<svg width="24" height="24" viewBox="0 0 24 24" fill="none" xmlns="http://www.w3.org/2000/svg">
<path fill-rule="evenodd" clip-rule="evenodd" d="M4.22222 12.5294C2.99492 12.5294 2 11.5813 2 10.4118V5.11765C2 3.9481 2.99492 3 4.22222 3H19.7778C21.0051 3 22 3.9481 22 5.11765V10.4118C22 11.5813 21.0051 12.5294 19.7778 12.5294H4.22222ZM4.22222 4.05882H19.7778C20.3914 4.05882 20.8889 4.53287 20.8889 5.11765V10.4118C20.8889 10.9965 20.3914 11.4706 19.7778 11.4706H18.6667V9.35294C18.6667 8.1834 17.6717 7.23529 16.4444 7.23529H7.55556C6.32826 7.23529 5.33333 8.1834 5.33333 9.35294V11.4706H4.22222C3.60857 11.4706 3.11111 10.9965 3.11111 10.4118V5.11765C3.11111 4.53288 3.60857 4.05882 4.22222 4.05882ZM16.4444 8.29412C17.0581 8.29412 17.5556 8.76817 17.5556 9.35294H6.44444C6.44444 8.76817 6.94191 8.29412 7.55556 8.29412H16.4444ZM17.5556 10.4118H6.44444V11.4706H17.5556V10.4118Z" fill="#0C0C0D"/>
<path d="M8.11111 14.1176C8.11111 13.8253 7.86238 13.5882 7.55556 13.5882C7.24873 13.5882 7 13.8253 7 14.1176V18.3529C7 18.6453 7.24873 18.8824 7.55556 18.8824C7.86238 18.8824 8.11111 18.6453 8.11111 18.3529V14.1176Z" fill="#0C0C0D"/>
<path d="M12 13.5882C12.3068 13.5882 12.5556 13.8253 12.5556 14.1176V20.4706C12.5556 20.763 12.3068 21 12 21C11.6932 21 11.4444 20.763 11.4444 20.4706V14.1176C11.4444 13.8253 11.6932 13.5882 12 13.5882Z" fill="#0C0C0D"/>
<path d="M17 14.1176C17 13.8253 16.7513 13.5882 16.4444 13.5882C16.1376 13.5882 15.8889 13.8253 15.8889 14.1176V18.3529C15.8889 18.6453 16.1376 18.8824 16.4444 18.8824C16.7513 18.8824 17 18.6453 17 18.3529V14.1176Z" fill="#0C0C0D"/>
</svg>
