<svg width="24" height="24" viewBox="0 0 24 24" fill="none" xmlns="http://www.w3.org/2000/svg">
<path d="M4.77708 9.77778C5.08383 9.77778 5.3325 9.52905 5.3325 9.22222C5.3325 8.9154 5.08383 8.66667 4.77708 8.66667C4.47033 8.66667 4.22166 8.9154 4.22166 9.22222C4.22166 9.52905 4.47033 9.77778 4.77708 9.77778Z" fill="#0C0C0D"/>
<path d="M5.3325 10.8889C5.3325 10.5821 5.08383 10.3333 4.77708 10.3333C4.47033 10.3333 4.22166 10.5821 4.22166 10.8889V14.2222C4.22166 14.529 4.47033 14.7778 4.77708 14.7778C5.08383 14.7778 5.3325 14.529 5.3325 14.2222V10.8889Z" fill="#0C0C0D"/>
<path fill-rule="evenodd" clip-rule="evenodd" d="M4.22166 2C2.99467 2 2 2.99492 2 4.22222V19.7778C2 21.0051 2.99467 22 4.22166 22H8.66499C9.89198 22 10.8867 21.0051 10.8867 19.7778V4.22222C10.8867 2.99492 9.89198 2 8.66499 2H4.22166ZM8.66499 3.11111H4.22166C3.60817 3.11111 3.11083 3.60857 3.11083 4.22222V5.88889H9.77582V4.22222C9.77582 3.60857 9.27849 3.11111 8.66499 3.11111ZM3.11083 19.7778V7H9.77582V19.7778C9.77582 20.3914 9.27849 20.8889 8.66499 20.8889H4.22166C3.60817 20.8889 3.11083 20.3914 3.11083 19.7778Z" fill="#0C0C0D"/>
<path fill-rule="evenodd" clip-rule="evenodd" d="M21.0421 18.6667L21.995 4.37004C22.0805 3.08741 21.0634 2 19.7782 2H14.5302C13.245 2 12.2279 3.08741 12.3134 4.37004L13.2663 18.6667V19.7778C13.2663 21.0051 14.261 22 15.4879 22H18.8204C20.0474 22 21.0421 21.0051 21.0421 19.7778V18.6667ZM19.9658 18.1122L20.7805 5.88889H13.5279L14.3426 18.1122C14.354 18.1115 14.3655 18.1111 14.3771 18.1111H19.9313C19.9429 18.1111 19.9544 18.1115 19.9658 18.1122ZM19.9313 19.2222H14.3771L14.3771 19.7778C14.3771 20.3914 14.8745 20.8889 15.4879 20.8889H18.8204C19.4339 20.8889 19.9313 20.3914 19.9313 19.7778L19.9313 19.2222ZM20.8866 4.29613L20.8545 4.77778H13.4539L13.4218 4.29613C13.379 3.65482 13.8876 3.11111 14.5302 3.11111H19.7782C20.4208 3.11111 20.9294 3.65482 20.8866 4.29613Z" fill="#0C0C0D"/>
</svg>
