<svg width="24" height="24" viewBox="0 0 24 24" fill="none" xmlns="http://www.w3.org/2000/svg">
<path d="M16.3903 1C16.4887 2.21917 16.0825 3.42672 15.2579 4.3662C14.8631 4.8323 14.362 5.2073 13.7924 5.46293C13.2228 5.71857 12.5995 5.8482 11.9694 5.84204C11.9292 5.25575 12.0111 4.66769 12.2105 4.11148C12.4099 3.55527 12.7228 3.04181 13.1314 2.60046C13.9671 1.69702 15.1306 1.12558 16.3903 1Z" fill="#0C0C0D"/>
<path d="M18.6888 9.87364C18.2702 10.5737 18.045 11.3629 18.0341 12.1678C18.0351 13.0732 18.3169 13.9583 18.8443 14.7127C19.3717 15.4672 20.1215 16.0575 21 16.4102C20.6546 17.4753 20.1339 18.4818 19.4573 19.3925C18.5486 20.6827 17.5958 21.9432 16.0837 21.9665C15.3645 21.9823 14.879 21.786 14.3731 21.5814C13.8455 21.3681 13.2956 21.1457 12.4352 21.1457C11.5227 21.1457 10.9482 21.3752 10.3942 21.5965C9.91537 21.7878 9.45182 21.973 8.79853 21.9987C7.3584 22.0493 6.25779 20.6216 5.31606 19.3435C3.43381 16.7334 1.96814 11.9877 3.93309 8.75866C4.3867 7.98497 5.04372 7.33599 5.84014 6.87497C6.63656 6.41396 7.54521 6.15661 8.47757 6.12802C9.29435 6.11207 10.0781 6.41088 10.7653 6.67286C11.2908 6.8732 11.7598 7.05201 12.1438 7.05201C12.4814 7.05201 12.9373 6.88027 13.4686 6.68011C14.3056 6.36481 15.3297 5.97902 16.3733 6.083C17.1731 6.10675 17.956 6.30718 18.66 6.66839C19.3639 7.02959 19.9694 7.54161 20.4283 8.16377C19.7059 8.58536 19.1075 9.17356 18.6888 9.87364Z" fill="#0C0C0D"/>
</svg>
