<svg width="24" height="24" viewBox="0 0 24 24" fill="none" xmlns="http://www.w3.org/2000/svg">
<path d="M10.3336 7C10.3336 6.69318 10.5823 6.44444 10.8892 6.44444H13.1111C13.4179 6.44444 13.6667 6.69318 13.6667 7C13.6667 7.30683 13.4179 7.55556 13.1111 7.55556H10.8892C10.5823 7.55556 10.3336 7.30683 10.3336 7Z" fill="#0C0C0D"/>
<path d="M10.8884 10.8889C10.5816 10.8889 10.3328 11.1376 10.3328 11.4444C10.3328 11.7513 10.5816 12 10.8884 12H13.1111C13.4179 12 13.6667 11.7513 13.6667 11.4444C13.6667 11.1376 13.4179 10.8889 13.1111 10.8889H10.8884Z" fill="#0C0C0D"/>
<path d="M10.3336 15.8889C10.3336 15.5821 10.5823 15.3333 10.8892 15.3333H13.1111C13.4179 15.3333 13.6667 15.5821 13.6667 15.8889C13.6667 16.1957 13.4179 16.4444 13.1111 16.4444H10.8892C10.5823 16.4444 10.3336 16.1957 10.3336 15.8889Z" fill="#0C0C0D"/>
<path fill-rule="evenodd" clip-rule="evenodd" d="M7.55556 6.44444V4.22222C7.55556 2.99492 8.55048 2 9.77778 2H14.2222C15.4495 2 16.4444 2.99492 16.4444 4.22222H18.6667C19.894 4.22222 20.8889 5.21715 20.8889 6.44444V20.8889H21.4444C21.7513 20.8889 22 21.1376 22 21.4444C22 21.7513 21.7513 22 21.4444 22H2.55556C2.24873 22 2 21.7513 2 21.4444C2 21.1376 2.24873 20.8889 2.55556 20.8889H3.11111V8.66667C3.11111 7.43937 4.10603 6.44444 5.33333 6.44444H7.55556ZM9.77778 3.11111H14.2222C14.8359 3.11111 15.3333 3.60857 15.3333 4.22222V20.8889H8.66667V4.22222C8.66667 3.60857 9.16413 3.11111 9.77778 3.11111ZM7.55556 7.55556H5.33333C4.71968 7.55556 4.22222 8.05302 4.22222 8.66667V20.8889H7.55556V18.6667H6.16667C5.85984 18.6667 5.61111 18.4179 5.61111 18.1111C5.61111 17.8043 5.85984 17.5556 6.16667 17.5556H7.55556V14.7778H6.16667C5.85984 14.7778 5.61111 14.529 5.61111 14.2222C5.61111 13.9154 5.85984 13.6667 6.16667 13.6667H7.55556V10.8889H6.16667C5.85984 10.8889 5.61111 10.6402 5.61111 10.3333C5.61111 10.0265 5.85984 9.77778 6.16667 9.77778H7.55556V7.55556ZM16.4444 20.8889H19.7778V6.44444C19.7778 5.8308 19.2803 5.33333 18.6667 5.33333H16.4444V8.38889H17.8333C18.1402 8.38889 18.3889 8.63762 18.3889 8.94444C18.3889 9.25127 18.1402 9.5 17.8333 9.5H16.4444V12.2778H17.8333C18.1402 12.2778 18.3889 12.5265 18.3889 12.8333C18.3889 13.1402 18.1402 13.3889 17.8333 13.3889H16.4444V20.8889Z" fill="#0C0C0D"/>
</svg>
