<svg width="24" height="24" viewBox="0 0 24 24" fill="none" xmlns="http://www.w3.org/2000/svg">
<path fill-rule="evenodd" clip-rule="evenodd" d="M7.70711 13.3985C7.31658 12.9851 6.68342 12.9851 6.29289 13.3985C5.90237 13.812 5.90237 14.4824 6.29289 14.8959L11.2929 20.1899C11.4804 20.3885 11.7348 20.5 12 20.5C12.2652 20.5 12.5196 20.3885 12.7071 20.1899L17.7071 14.8959C18.0976 14.4824 18.0976 13.812 17.7071 13.3985C17.3166 12.9851 16.6834 12.9851 16.2929 13.3985L13 16.885L13 4.5588C13 3.97404 12.5523 3.5 12 3.5C11.4477 3.5 11 3.97404 11 4.5588L11 16.885L7.70711 13.3985Z" fill="#0C0C0D"/>
</svg>
