<svg width="24" height="24" viewBox="0 0 24 24" fill="none" xmlns="http://www.w3.org/2000/svg">
<path d="M12 21C12.117 21 12.2278 20.9777 12.3325 20.933C12.4371 20.8883 12.5325 20.8213 12.6187 20.732L18.7507 14.7914C18.9169 14.6186 19 14.4251 19 14.2107C19 13.9903 18.9246 13.8057 18.7737 13.6568C18.6229 13.5079 18.4336 13.4335 18.2058 13.4335C18.095 13.4335 17.9888 13.4514 17.8872 13.4871C17.7856 13.5228 17.6979 13.5764 17.624 13.6479L15.5185 15.649L12.755 18.5745L12.8219 16.6763V3.78613C12.8219 3.55386 12.7449 3.36478 12.591 3.21887C12.4371 3.07296 12.2401 3 12 3C11.7599 3 11.5629 3.07296 11.409 3.21887C11.2551 3.36478 11.1781 3.55386 11.1781 3.78613V16.6763L11.2444 18.5836L8.48153 15.649L6.37599 13.6479C6.30211 13.5764 6.21438 13.5228 6.1128 13.4871C6.01121 13.4514 5.90501 13.4335 5.7942 13.4335C5.5664 13.4335 5.37709 13.5079 5.22625 13.6568C5.07542 13.8057 5 13.9903 5 14.2107C5 14.4251 5.08619 14.6186 5.25858 14.7914L11.3813 20.732C11.4736 20.8213 11.5721 20.8883 11.6768 20.933C11.7814 20.9777 11.8892 21 12 21Z" fill="black"/>
</svg>
