<svg width="24" height="24" viewBox="0 0 24 24" fill="none" xmlns="http://www.w3.org/2000/svg">
<path fill-rule="evenodd" clip-rule="evenodd" d="M14.9811 4.56975L16.7092 6.21839L4.96386 6.21839C4.43153 6.21839 4 6.63008 4 7.13793C4 7.64578 4.43153 8.05747 4.96386 8.05747L16.7092 8.05747L14.9811 9.70611C14.6047 10.0652 14.6047 10.6474 14.9811 11.0065C15.3575 11.3656 15.9678 11.3656 16.3442 11.0065L19.7177 7.78815C20.0941 7.42904 20.0941 6.84682 19.7177 6.48772L16.3442 3.26933C15.9678 2.91022 15.3575 2.91022 14.9811 3.26933C14.6047 3.62843 14.6047 4.21065 14.9811 4.56975Z" fill="#0C0C0D"/>
<path fill-rule="evenodd" clip-rule="evenodd" d="M9.01892 12.9935C8.64251 12.6344 8.03223 12.6344 7.65582 12.9935L4.28233 16.2119C3.90592 16.571 3.90592 17.1532 4.28233 17.5123L7.65582 20.7307C8.03223 21.0898 8.64251 21.0898 9.01892 20.7307C9.39533 20.3716 9.39533 19.7893 9.01892 19.4302L7.29083 17.7816L19.0361 17.7816C19.5685 17.7816 20 17.3699 20 16.8621C20 16.3542 19.5685 15.9425 19.0361 15.9425L7.29083 15.9425L9.01892 14.2939C9.39533 13.9348 9.39533 13.3526 9.01892 12.9935Z" fill="#0C0C0D"/>
</svg>
