<svg width="24" height="24" viewBox="0 0 24 24" fill="none" xmlns="http://www.w3.org/2000/svg">
<path fill-rule="evenodd" clip-rule="evenodd" d="M19.4302 14.9811L17.7816 16.7092L17.7816 4.96386C17.7816 4.43153 17.3699 4 16.8621 4C16.3542 4 15.9425 4.43153 15.9425 4.96386L15.9425 16.7092L14.2939 14.9811C13.9348 14.6047 13.3526 14.6047 12.9935 14.9811C12.6344 15.3575 12.6344 15.9678 12.9935 16.3442L16.2119 19.7177C16.571 20.0941 17.1532 20.0941 17.5123 19.7177L20.7307 16.3442C21.0898 15.9678 21.0898 15.3575 20.7307 14.9811C20.3716 14.6047 19.7893 14.6047 19.4302 14.9811Z" fill="#0C0C0D"/>
<path fill-rule="evenodd" clip-rule="evenodd" d="M11.0065 9.01892C11.3656 8.64251 11.3656 8.03223 11.0065 7.65582L7.78815 4.28233C7.42904 3.90592 6.84682 3.90592 6.48772 4.28233L3.26933 7.65582C2.91022 8.03223 2.91022 8.64251 3.26933 9.01892C3.62843 9.39533 4.21065 9.39533 4.56975 9.01892L6.21839 7.29083L6.21839 19.0361C6.21839 19.5685 6.63008 20 7.13793 20C7.64578 20 8.05747 19.5685 8.05747 19.0361L8.05747 7.29083L9.70611 9.01892C10.0652 9.39533 10.6474 9.39533 11.0065 9.01892Z" fill="#0C0C0D"/>
</svg>
