<svg width="24" height="24" viewBox="0 0 24 24" fill="none" xmlns="http://www.w3.org/2000/svg">
<path fill-rule="evenodd" clip-rule="evenodd" d="M13.3985 7.70711C12.9851 7.31658 12.9851 6.68342 13.3985 6.29289C13.812 5.90237 14.4824 5.90237 14.8959 6.29289L20.1899 11.2929C20.3885 11.4804 20.5 11.7348 20.5 12C20.5 12.2652 20.3885 12.5196 20.1899 12.7071L14.8959 17.7071C14.4824 18.0976 13.812 18.0976 13.3985 17.7071C12.9851 17.3166 12.9851 16.6834 13.3985 16.2929L16.885 13L4.5588 13C3.97404 13 3.5 12.5523 3.5 12C3.5 11.4477 3.97404 11 4.5588 11L16.885 11L13.3985 7.70711Z" fill="#0C0C0D"/>
</svg>
