<svg width="24" height="24" viewBox="0 0 24 24" fill="none" xmlns="http://www.w3.org/2000/svg">
<path fill-rule="evenodd" clip-rule="evenodd" d="M10.6015 16.2929C11.0149 16.6834 11.0149 17.3166 10.6015 17.7071C10.188 18.0976 9.51757 18.0976 9.10409 17.7071L3.81011 12.7071C3.61155 12.5196 3.5 12.2652 3.5 12C3.5 11.7348 3.61155 11.4804 3.81011 11.2929L9.10409 6.29289C9.51757 5.90237 10.188 5.90237 10.6015 6.29289C11.0149 6.68342 11.0149 7.31658 10.6015 7.70711L7.11495 11L19.4412 11C20.026 11 20.5 11.4477 20.5 12C20.5 12.5523 20.026 13 19.4412 13L7.11495 13L10.6015 16.2929Z" fill="#0C0C0D"/>
</svg>
