<svg width="24" height="24" viewBox="0 0 24 24" fill="none" xmlns="http://www.w3.org/2000/svg">
<path fill-rule="evenodd" clip-rule="evenodd" d="M7.70711 10.6015C7.31658 11.0149 6.68342 11.0149 6.29289 10.6015C5.90237 10.188 5.90237 9.51757 6.29289 9.10409L11.2929 3.81011C11.4804 3.61155 11.7348 3.5 12 3.5C12.2652 3.5 12.5196 3.61155 12.7071 3.81011L17.7071 9.10409C18.0976 9.51757 18.0976 10.188 17.7071 10.6015C17.3166 11.0149 16.6834 11.0149 16.2929 10.6015L13 7.11495L13 19.4412C13 20.026 12.5523 20.5 12 20.5C11.4477 20.5 11 20.026 11 19.4412L11 7.11495L7.70711 10.6015Z" fill="#0C0C0D"/>
</svg>
