<svg width="24" height="24" viewBox="0 0 24 24" fill="none" xmlns="http://www.w3.org/2000/svg">
<path d="M10.374 9.00501C10.6508 8.73165 11.0995 8.73165 11.3763 9.00501L13.4064 11.0101L15.4363 9.00519C15.7131 8.73182 16.162 8.73167 16.4388 9.00504C16.7155 9.2784 16.7155 9.72166 16.4387 9.99502L14.4087 12L16.4386 14.0049C16.7154 14.2782 16.7155 14.7216 16.4388 14.995C16.162 15.2683 15.7132 15.2683 15.4364 14.9949L13.4064 12.9899L11.3763 14.995C11.0995 15.2684 10.6508 15.2684 10.374 14.995C10.0972 14.7216 10.0972 14.2784 10.374 14.005L12.4041 12L10.374 9.99496C10.0972 9.7216 10.0972 9.27838 10.374 9.00501Z" fill="#0C0C0D"/>
<path fill-rule="evenodd" clip-rule="evenodd" d="M3.17062 11.5444C2.94313 11.8066 2.94313 12.1934 3.17062 12.4556L8.63804 18.7556C8.77269 18.9107 8.96926 19 9.17616 19H20.2913C20.6827 19 21 18.6866 21 18.3V5.7C21 5.3134 20.6827 5 20.2913 5H9.17616C8.96926 5 8.77269 5.08929 8.63804 5.24445L3.17062 11.5444ZM19.5825 17.6H9.50213L4.6422 12L9.50213 6.4H19.5825V17.6Z" fill="#0C0C0D"/>
</svg>
