<svg width="24" height="24" viewBox="0 0 24 24" fill="none" xmlns="http://www.w3.org/2000/svg">
<path d="M7.6 6C7.26863 6 7 6.26863 7 6.6C7 6.93137 7.26863 7.2 7.6 7.2H11.4C11.7314 7.2 12 6.93137 12 6.6C12 6.26863 11.7314 6 11.4 6H7.6Z" fill="#0C0C0D"/>
<path d="M7.6 9C7.26863 9 7 9.26863 7 9.6C7 9.93137 7.26863 10.2 7.6 10.2H11.4C11.7314 10.2 12 9.93137 12 9.6C12 9.26863 11.7314 9 11.4 9H7.6Z" fill="#0C0C0D"/>
<path fill-rule="evenodd" clip-rule="evenodd" d="M14.6381 19C14.8191 19 14.9634 18.9408 15.0711 18.8225C15.1809 18.7041 15.2628 18.5185 15.3166 18.2656L15.7246 16.4H16.2754L16.6834 18.2656C16.7394 18.5239 16.8212 18.7108 16.9289 18.8265C17.0366 18.9422 17.1831 19 17.3683 19C17.545 19 17.6861 18.9422 17.7916 18.8265C17.8971 18.7108 17.9768 18.5252 18.0307 18.2697L18.4407 16.4H19.35C19.5709 16.4 19.75 16.2209 19.75 16C19.75 15.7791 19.5709 15.6 19.35 15.6H18.6162L18.9386 14.1298C18.9795 13.9388 19 13.7747 19 13.6375C19 13.4385 18.9505 13.2824 18.8514 13.1695C18.7523 13.0565 18.6144 13 18.4378 13C18.1405 13 17.9575 13.2085 17.8885 13.6254L17.5431 15.6H16.9606L16.5574 13.5972C16.4798 13.1991 16.2946 13 16.0016 13C15.8487 13 15.727 13.0484 15.6365 13.1453C15.546 13.2421 15.4803 13.3941 15.4394 13.6012L15.0384 15.6H14.4569L14.1115 13.6254C14.0425 13.2085 13.8595 13 13.5622 13C13.3877 13 13.2499 13.0565 13.1486 13.1695C13.0495 13.2824 13 13.4385 13 13.6375C13 13.7021 13.0054 13.7787 13.0162 13.8675C13.0291 13.9536 13.0442 14.041 13.0614 14.1298L13.3833 15.6H12.65C12.4291 15.6 12.25 15.7791 12.25 16C12.25 16.2209 12.4291 16.4 12.65 16.4H13.5585L13.9661 18.2616C14.0221 18.5225 14.1029 18.7108 14.2084 18.8265C14.3139 18.9422 14.4572 19 14.6381 19ZM16.0145 15.2071L16.1004 15.6H15.8996L15.9855 15.2071H16.0145ZM17.2585 17.0794L17.1217 16.4H17.4032L17.2843 17.0794H17.2585ZM14.7157 17.0794L14.5968 16.4H14.8778L14.7415 17.0794H14.7157Z" fill="#0C0C0D"/>
<path fill-rule="evenodd" clip-rule="evenodd" d="M16 22C19.3137 22 22 19.3137 22 16C22 13.027 19.8377 10.559 17 10.083V3C17 2.44772 16.5523 2 16 2H3C2.44772 2 2 2.44772 2 3V21C2 21.5523 2.44772 22 3 22H16ZM3.2 3.2V20.8H6V14C6 13.4477 6.44772 13 7 13H10.8027C11.8089 11.2606 13.6631 10.0733 15.8 10.0033V3.2H3.2ZM7.2 14.2H10.2747C10.0962 14.7682 10 15.3729 10 16C10 17.6784 10.6892 19.1959 11.8 20.2849V20.8H7.2V14.2ZM21 16C21 18.7614 18.7614 21 16 21C13.2386 21 11 18.7614 11 16C11 13.2386 13.2386 11 16 11C18.7614 11 21 13.2386 21 16Z" fill="#0C0C0D"/>
</svg>
