<svg width="24" height="24" viewBox="0 0 24 24" fill="none" xmlns="http://www.w3.org/2000/svg">
<path d="M10.3333 7.83332C10.3333 7.40377 10.6816 7.05554 11.1111 7.05554H12.7778C13.18 7.05554 13.7661 7.16982 14.2739 7.53546C14.8214 7.92966 15.2222 8.57983 15.2222 9.49999C15.2222 10.4201 14.8214 11.0703 14.2739 11.4645C13.7661 11.8302 13.18 11.9444 12.7778 11.9444H12.4444V10.3889H12.7778C12.9311 10.3889 13.1784 10.3365 13.365 10.2021C13.5119 10.0963 13.6667 9.91316 13.6667 9.49999C13.6667 9.08681 13.5119 8.90365 13.365 8.79785C13.1784 8.66349 12.9311 8.6111 12.7778 8.6111H11.8889V13.9444C11.8889 14.374 11.5407 14.7222 11.1111 14.7222C10.6816 14.7222 10.3333 14.374 10.3333 13.9444V7.83332Z" fill="#0C0C0D"/>
<path d="M8.33333 10.3889H9.77778V11.9444H8.33333C7.90378 11.9444 7.55556 11.5962 7.55556 11.1667C7.55556 10.7371 7.90378 10.3889 8.33333 10.3889Z" fill="#0C0C0D"/>
<path fill-rule="evenodd" clip-rule="evenodd" d="M12 19.7778C17.5228 19.7778 22 15.7981 22 10.8889C22 5.97969 17.5228 2 12 2C6.47715 2 2 5.97969 2 10.8889C2 13.7224 3.49156 16.2463 5.81484 17.874L4.81513 20.9842C4.71624 21.2919 4.8179 21.6287 5.07053 21.8302C5.32315 22.0318 5.67409 22.0561 5.95211 21.8913L9.86226 19.5742C10.551 19.7075 11.2663 19.7778 12 19.7778ZM7.29577 18.35C7.50446 17.7008 7.26593 16.9913 6.70741 16.6C4.74227 15.2232 3.55556 13.1488 3.55556 10.8889C3.55556 7.00598 7.15896 3.55556 12 3.55556C16.841 3.55556 20.4444 7.00598 20.4444 10.8889C20.4444 14.7718 16.841 18.2222 12 18.2222C11.3657 18.2222 10.7494 18.1615 10.1579 18.047C9.7841 17.9747 9.39676 18.0419 9.06923 18.236L6.92377 19.5074L7.29577 18.35Z" fill="#0C0C0D"/>
</svg>
