<svg width="24" height="24" viewBox="0 0 24 24" fill="none" xmlns="http://www.w3.org/2000/svg">
<path d="M7.93227 9.96545V14.4474H9.63364V10.0211C9.49475 7.1503 7.11103 7 7.11103 7V8.7946C7.11103 8.7946 7.93227 8.92987 7.93227 9.96545Z" fill="#0C0C0D"/>
<path fill-rule="evenodd" clip-rule="evenodd" d="M10.9697 11.0206C10.8247 11.3419 10.7506 11.6904 10.7523 12.0426C10.7508 12.3948 10.8249 12.7433 10.9697 13.0647C11.1226 13.3961 11.3396 13.6944 11.6083 13.9424C11.8795 14.1925 12.1961 14.3889 12.5412 14.5211C12.8902 14.6555 13.2614 14.7239 13.6357 14.7225C14.0158 14.724 14.393 14.6557 14.7483 14.5211C15.0938 14.3907 15.4103 14.1941 15.6798 13.9424C15.9456 13.6985 16.1583 13.4028 16.3047 13.0737C16.4462 12.7479 16.5192 12.3968 16.5192 12.0419C16.5192 11.687 16.4462 11.3358 16.3047 11.01C16.1575 10.6814 15.9449 10.3858 15.6798 10.1413C15.4095 9.89065 15.0932 9.69419 14.7483 9.56264C14.3929 9.42852 14.0158 9.36076 13.6357 9.36274C13.2615 9.36087 12.8903 9.42866 12.5412 9.56264C12.1967 9.69598 11.8803 9.89223 11.6083 10.1413C11.3392 10.3896 11.1222 10.6884 10.9697 11.0206ZM12.5664 12.4813C12.5083 12.3387 12.4797 12.1859 12.4823 12.0321C12.4797 11.8783 12.5083 11.7255 12.5664 11.5829C12.6245 11.4403 12.7109 11.3109 12.8205 11.2024C12.925 11.0924 13.0512 11.0052 13.1913 10.9462C13.3313 10.8872 13.4821 10.8578 13.6342 10.8597C13.9465 10.8597 14.246 10.9833 14.4668 11.2031C14.6876 11.423 14.8117 11.7212 14.8117 12.0321C14.8117 12.343 14.6876 12.6412 14.4668 12.8611C14.246 13.0809 13.9465 13.2044 13.6342 13.2044C13.4821 13.2064 13.3313 13.1769 13.1913 13.118C13.0512 13.059 12.925 12.9717 12.8205 12.8618C12.7109 12.7533 12.6245 12.6239 12.5664 12.4813Z" fill="#0C0C0D"/>
<path fill-rule="evenodd" clip-rule="evenodd" d="M6.0573 10.1714C5.67989 9.73849 5.05037 9.36274 4.44651 9.38228C3.74 9.40483 3.14067 9.53258 2.68929 9.91885H2.66816V7.1503H1V14.3933H2.66816V14.0476H2.68929C3.12501 14.3692 3.65677 14.5355 4.19893 14.5196C4.93412 14.5196 5.60894 14.3107 6.04975 13.8162C6.49057 13.3217 6.70796 12.8557 6.70796 12.0396C6.71715 11.3603 6.48692 10.6992 6.0573 10.1714ZM4.62767 12.8768C4.52066 12.9872 4.39203 13.0746 4.24973 13.1336C4.10743 13.1925 3.9545 13.2218 3.80039 13.2195C3.64856 13.2214 3.49799 13.1919 3.35819 13.1329C3.21839 13.074 3.0924 12.9867 2.9882 12.8768C2.77309 12.6549 2.65288 12.3585 2.65288 12.0501C2.65288 11.7417 2.77309 11.4454 2.9882 11.2235C3.09233 11.1133 3.21827 11.0259 3.35806 10.9666C3.49785 10.9074 3.64847 10.8776 3.80039 10.8793C4.03295 10.8806 4.25993 10.9504 4.45276 11.0798C4.64559 11.2093 4.79566 11.3926 4.88409 11.6068C4.97252 11.8209 4.99535 12.0564 4.94973 12.2834C4.9041 12.5105 4.79205 12.719 4.62767 12.8828V12.8768Z" fill="#0C0C0D"/>
<path fill-rule="evenodd" clip-rule="evenodd" d="M21.3379 9.80914V9.41234H23V13.7936C23 15.0652 22.7569 15.8407 22.1863 16.3803C21.51 17.0206 20.5438 17.0657 19.7316 16.95V15.6348C20.4095 15.7025 21.3424 15.2576 21.3424 14.3828V14.0446H21.3198C20.9408 14.5677 20.3838 14.7586 19.6471 14.7586C19.3308 14.7687 19.0161 14.7093 18.7254 14.5846C18.4347 14.4599 18.1752 14.273 17.9653 14.0371C17.5628 13.5682 17.3615 12.9399 17.3615 12.1523C17.3615 11.2686 17.5925 10.5682 18.0348 10.0481C18.4771 9.52807 19.1157 9.28609 19.8464 9.28609C20.5 9.28609 20.9122 9.4439 21.3152 9.80914H21.3379ZM20.6399 13.1261C20.7822 13.0671 20.9108 12.9797 21.0178 12.8693V12.8753C21.1822 12.7115 21.2943 12.5029 21.3399 12.2759C21.3855 12.0488 21.3627 11.8134 21.2743 11.5993C21.1858 11.3851 21.0358 11.2018 20.8429 11.0723C20.6501 10.9429 20.4231 10.8731 20.1906 10.8718C20.0386 10.8701 19.888 10.8999 19.7482 10.9591C19.6084 11.0184 19.4825 11.1058 19.3784 11.216C19.1633 11.4379 19.0431 11.7342 19.0431 12.0426C19.0431 12.351 19.1633 12.6474 19.3784 12.8693C19.4826 12.9792 19.6086 13.0664 19.7484 13.1254C19.8882 13.1844 20.0387 13.2139 20.1906 13.212C20.3447 13.2142 20.4976 13.185 20.6399 13.1261Z" fill="#0C0C0D"/>
</svg>
