<svg width="24" height="24" viewBox="0 0 24 24" fill="none" xmlns="http://www.w3.org/2000/svg">
<path d="M5.5 7C5.5 6.72386 5.72386 6.5 6 6.5H12C12.2761 6.5 12.5 6.72386 12.5 7C12.5 7.27614 12.2761 7.5 12 7.5H6C5.72386 7.5 5.5 7.27614 5.5 7Z" fill="#0C0C0D"/>
<path d="M6 9.5C5.72386 9.5 5.5 9.72386 5.5 10C5.5 10.2761 5.72386 10.5 6 10.5H12C12.2761 10.5 12.5 10.2761 12.5 10C12.5 9.72386 12.2761 9.5 12 9.5H6Z" fill="#0C0C0D"/>
<path fill-rule="evenodd" clip-rule="evenodd" d="M21.5 22.5C22.0523 22.5 22.5 22.0523 22.5 21.5V9.5C22.5 8.94772 22.0523 8.5 21.5 8.5H16.5V2.5C16.5 1.94772 16.0523 1.5 15.5 1.5H2.5C1.94772 1.5 1.5 1.94772 1.5 2.5V21.5C1.5 22.0523 1.94772 22.5 2.5 22.5H21.5ZM2.7 2.7V21.3H5.5V14.5C5.5 13.9477 5.94772 13.5 6.5 13.5H11.5C12.0523 13.5 12.5 13.9477 12.5 14.5V21.3H15.3V2.7H2.7ZM11.3 21.3V14.7H6.7V21.3H11.3ZM21.3 21.3H16.5V9.7H21.3V21.3Z" fill="#0C0C0D"/>
</svg>
