<svg width="24" height="24" viewBox="0 0 24 24" fill="none" xmlns="http://www.w3.org/2000/svg">
<path fill-rule="evenodd" clip-rule="evenodd" d="M7.78005 7.27501C8.85404 7.40711 10.5594 7.4282 12 6.59645C13.4407 5.7647 14.2751 4.27728 14.6977 3.28112C14.9321 2.7286 14.5935 2.14216 13.9978 2.06889C12.9238 1.93679 11.2184 1.9157 9.7778 2.74745C8.33716 3.5792 7.50276 5.06662 7.08017 6.06278C6.84577 6.6153 7.18436 7.20174 7.78005 7.27501ZM8.95594 5.78795C9.71455 5.78015 10.5367 5.6451 11.2222 5.2493C11.9078 4.8535 12.4358 4.20901 12.8219 3.55594C12.0633 3.56375 11.2411 3.6988 10.5556 4.0946C9.87003 4.4904 9.34201 5.13489 8.95594 5.78795Z" fill="#0C0C0D"/>
<path d="M17.0766 12C17.0343 12 17 12.0343 17 12.0766V14.1456C17 14.1879 17.0343 14.2222 17.0766 14.2222H18.1111C18.7248 14.2222 19.2222 13.7248 19.2222 13.1111C19.2222 12.4975 18.7248 12 18.1111 12H17.0766Z" fill="#0C0C0D"/>
<path fill-rule="evenodd" clip-rule="evenodd" d="M2 11.4444C2 10.2171 2.99492 9.22222 4.22222 9.22222H18.1111C20.2589 9.22222 22 10.9633 22 13.1111C22 15.2589 20.2589 17 18.1111 17H17.9733C16.6873 19.9432 13.7505 22 10.3333 22C5.73096 22 2 18.269 2 13.6667V11.4444ZM16.9554 15.4444H18.1111C19.3998 15.4444 20.4444 14.3998 20.4444 13.1111C20.4444 11.8224 19.3998 10.7778 18.1111 10.7778H4.22222C3.85403 10.7778 3.55556 11.0763 3.55556 11.4444V13.6667C3.55556 17.4099 6.59007 20.4444 10.3333 20.4444C13.1102 20.4444 15.5005 18.7742 16.5478 16.3772L16.9554 15.4444Z" fill="#0C0C0D"/>
</svg>
