<svg width="24" height="24" viewBox="0 0 24 24" fill="none" xmlns="http://www.w3.org/2000/svg">
<path d="M7.45951 7.22993C8.48785 7.39294 10.406 7.51677 12 6.59645C13.5941 5.67613 14.4459 3.95306 14.8189 2.98098C14.9694 2.58874 14.7333 2.17975 14.3183 2.11397C13.29 1.95096 11.3719 1.82712 9.77781 2.74745C8.18376 3.66777 7.33193 5.39084 6.95894 6.36292C6.80843 6.75516 7.04456 7.16415 7.45951 7.22993Z" fill="#0C0C0D"/>
<path fill-rule="evenodd" clip-rule="evenodd" d="M4.22222 9.22222C2.99492 9.22222 2 10.2171 2 11.4444V13.9444C2 18.3934 5.6066 22 10.0556 22C13.8341 22 17.005 19.3985 17.8749 15.8889H18.6667C20.5076 15.8889 22 14.3965 22 12.5556C22 10.7146 20.5076 9.22222 18.6667 9.22222H4.22222ZM18.1111 11.5211C18.1111 11.4788 18.1454 11.4444 18.1877 11.4444H19.2222C19.8359 11.4444 20.3333 11.9419 20.3333 12.5556C20.3333 13.1692 19.8359 13.6667 19.2222 13.6667H18.1877C18.1454 13.6667 18.1111 13.6324 18.1111 13.59V11.5211Z" fill="#0C0C0D"/>
</svg>
