<svg width="24" height="24" viewBox="0 0 24 24" fill="none" xmlns="http://www.w3.org/2000/svg">
<path d="M9.7 10.65C9.58954 10.65 9.5 10.7395 9.5 10.85V11.95C9.5 12.0605 9.58954 12.15 9.7 12.15H10.8C10.9105 12.15 11 12.0605 11 11.95V10.85C11 10.7395 10.9105 10.65 10.8 10.65H9.7Z" fill="#0C0C0D"/>
<path d="M13.2 10.65C13.0895 10.65 13 10.7395 13 10.85V11.95C13 12.0605 13.0895 12.15 13.2 12.15H14.3C14.4105 12.15 14.5 12.0605 14.5 11.95V10.85C14.5 10.7395 14.4105 10.65 14.3 10.65H13.2Z" fill="#0C0C0D"/>
<path d="M16.5 10.85C16.5 10.7395 16.5895 10.65 16.7 10.65H17.8C17.9105 10.65 18 10.7395 18 10.85V11.95C18 12.0605 17.9105 12.15 17.8 12.15H16.7C16.5895 12.15 16.5 12.0605 16.5 11.95V10.85Z" fill="#0C0C0D"/>
<path d="M6.2 13.55C6.08954 13.55 6 13.6395 6 13.75V14.85C6 14.9605 6.08954 15.05 6.2 15.05H7.3C7.41046 15.05 7.5 14.9605 7.5 14.85V13.75C7.5 13.6395 7.41046 13.55 7.3 13.55H6.2Z" fill="#0C0C0D"/>
<path d="M9.5 13.75C9.5 13.6395 9.58954 13.55 9.7 13.55H10.8C10.9105 13.55 11 13.6395 11 13.75V14.85C11 14.9605 10.9105 15.05 10.8 15.05H9.7C9.58954 15.05 9.5 14.9605 9.5 14.85V13.75Z" fill="#0C0C0D"/>
<path d="M13.2 13.55C13.0895 13.55 13 13.6395 13 13.75V14.85C13 14.9605 13.0895 15.05 13.2 15.05H14.3C14.4105 15.05 14.5 14.9605 14.5 14.85V13.75C14.5 13.6395 14.4105 13.55 14.3 13.55H13.2Z" fill="#0C0C0D"/>
<path d="M16.5 13.75C16.5 13.6395 16.5895 13.55 16.7 13.55H17.8C17.9105 13.55 18 13.6395 18 13.75V14.85C18 14.9605 17.9105 15.05 17.8 15.05H16.7C16.5895 15.05 16.5 14.9605 16.5 14.85V13.75Z" fill="#0C0C0D"/>
<path d="M6.2 16.45C6.08954 16.45 6 16.5395 6 16.65V17.75C6 17.8605 6.08954 17.95 6.2 17.95H7.3C7.41046 17.95 7.5 17.8605 7.5 17.75V16.65C7.5 16.5395 7.41046 16.45 7.3 16.45H6.2Z" fill="#0C0C0D"/>
<path d="M9.5 16.65C9.5 16.5395 9.58954 16.45 9.7 16.45H10.8C10.9105 16.45 11 16.5395 11 16.65V17.75C11 17.8605 10.9105 17.95 10.8 17.95H9.7C9.58954 17.95 9.5 17.8605 9.5 17.75V16.65Z" fill="#0C0C0D"/>
<path d="M13.2 16.45C13.0895 16.45 13 16.5395 13 16.65V17.75C13 17.8605 13.0895 17.95 13.2 17.95H14.3C14.4105 17.95 14.5 17.8605 14.5 17.75V16.65C14.5 16.5395 14.4105 16.45 14.3 16.45H13.2Z" fill="#0C0C0D"/>
<path fill-rule="evenodd" clip-rule="evenodd" d="M7.4 3.7C7.4 3.3134 7.0866 3 6.7 3C6.3134 3 6 3.3134 6 3.7V5H5C3.89543 5 3 5.89543 3 7V19C3 20.1046 3.89543 21 5 21H19C20.1046 21 21 20.1046 21 19V7C21 5.89543 20.1046 5 19 5H18V3.7C18 3.3134 17.6866 3 17.3 3C16.9134 3 16.6 3.3134 16.6 3.7V5H7.4V3.7ZM19.6 9H4.4V19C4.4 19.3314 4.66863 19.6 5 19.6H19C19.3314 19.6 19.6 19.3314 19.6 19V9Z" fill="#0C0C0D"/>
</svg>
