<svg width="24" height="24" viewBox="0 0 24 24" fill="none" xmlns="http://www.w3.org/2000/svg">
<path d="M8.33333 13.7778C7.90378 13.7778 7.55556 14.126 7.55556 14.5556C7.55556 14.9851 7.90378 15.3333 8.33333 15.3333H15.6667C16.0962 15.3333 16.4444 14.9851 16.4444 14.5556C16.4444 14.126 16.0962 13.7778 15.6667 13.7778H8.33333Z" fill="#0C0C0D"/>
<path fill-rule="evenodd" clip-rule="evenodd" d="M6.88889 2.77778C6.88889 2.34822 6.54067 2 6.11111 2C5.68156 2 5.33333 2.34822 5.33333 2.77778V4.22222H4.22222C2.99492 4.22222 2 5.21715 2 6.44444V19.7778C2 21.0051 2.99492 22 4.22222 22H19.7778C21.0051 22 22 21.0051 22 19.7778V6.44444C22 5.21715 21.0051 4.22222 19.7778 4.22222H18.6667V2.77778C18.6667 2.34822 18.3184 2 17.8889 2C17.4593 2 17.1111 2.34822 17.1111 2.77778L17.1111 4.22222H6.88889V2.77778ZM3.55556 8.66667H20.4444V19.7778C20.4444 20.146 20.146 20.4444 19.7778 20.4444H4.22222C3.85403 20.4444 3.55556 20.146 3.55556 19.7778V8.66667Z" fill="#0C0C0D"/>
</svg>
