<svg width="24" height="24" viewBox="0 0 24 24" fill="none" xmlns="http://www.w3.org/2000/svg">
<path fill-rule="evenodd" clip-rule="evenodd" d="M18.1942 15.5867L18.1352 15.5305C17.9429 15.3476 17.6877 15.2458 17.4225 15.2462C17.1572 15.2465 16.9023 15.349 16.7106 15.5325L16.6751 15.5665L15.2532 16.7648C14.6882 17.241 13.8807 17.3827 13.1646 17.0648C11.7888 16.4541 10.5367 15.5941 9.47199 14.5275C8.40708 13.4606 7.54922 12.2067 6.94083 10.8294C6.62494 10.1143 6.76675 9.30884 7.24159 8.74484L8.43412 7.32841L8.46691 7.29396C8.6507 7.10095 8.75343 6.84465 8.7538 6.57797C8.75418 6.31129 8.65216 6.05471 8.46892 5.86118L8.41454 5.80375L8.36627 5.74111L9.59847 4.79166C10.0558 5.27468 10.3103 5.9149 10.3094 6.58015C10.3084 7.24541 10.0522 7.88491 9.59346 8.36665L8.43157 9.7467C8.32486 9.87344 8.2968 10.0493 8.36374 10.2009C8.89475 11.403 9.64349 12.4974 10.5729 13.4285C11.5022 14.3595 12.595 15.11 13.7957 15.643C13.9474 15.7104 14.1238 15.6824 14.2508 15.5754L15.635 14.4087C16.1157 13.9487 16.755 13.6915 17.4203 13.6906C18.0855 13.6897 18.7256 13.945 19.2076 14.4037L18.2588 15.6364L18.1942 15.5867ZM8.02672 2.75955C8.0526 2.78543 9.59847 4.79166 9.59847 4.79166L8.36627 5.74111L7.59098 4.73589C7.39626 4.48367 7.2013 4.23136 7.05362 4.04078C6.97962 3.94528 6.91844 3.8665 6.87539 3.81134L6.87392 3.80947C6.69155 3.64876 6.457 3.55821 6.21259 3.55561C5.9456 3.55277 5.68814 3.65511 5.49586 3.84062L5.46696 3.8685L4.54069 4.67413C3.4939 5.82945 3.26843 7.47328 3.92006 9.55051C4.58464 11.669 6.10675 13.9784 8.08582 15.9534C10.0652 17.9287 12.3737 19.442 14.4881 20.0942C16.5602 20.7334 18.2022 20.4964 19.3605 19.4253L20.1055 18.5674L20.1432 18.5295C20.3361 18.336 20.4444 18.0738 20.4444 17.8004C20.4444 17.5527 20.3554 17.3141 20.1952 17.1275C20.1209 17.0703 19.9877 16.9677 19.8212 16.8395C19.6599 16.7152 19.4674 16.5669 19.2669 16.4126L18.2588 15.6364L19.2076 14.4037C19.2076 14.4037 21.2175 15.9508 21.2451 15.9733C21.7285 16.4584 22 17.1155 22 17.8004C22 18.4854 21.7285 19.1425 21.2451 19.6276L20.4838 20.5042C13.6393 27.0481 -2.98716 10.4104 3.4559 3.55603L4.4158 2.72114C4.90213 2.25194 5.55348 1.99296 6.22913 2.00015C6.90479 2.00733 7.55049 2.28011 8.02672 2.75955Z" fill="#0C0C0D"/>
</svg>
