<svg width="24" height="24" viewBox="0 0 24 24" fill="none" xmlns="http://www.w3.org/2000/svg">
<path d="M19.2076 14.4037C18.7256 13.945 18.0855 13.6897 17.4203 13.6906C16.755 13.6915 16.1157 13.9487 15.635 14.4087L14.0441 15.7495C12.7455 15.2121 11.5659 14.4233 10.5729 13.4285C9.57997 12.4338 8.79325 11.2526 8.25794 9.95293L9.59346 8.36665C10.0522 7.88491 10.3084 7.24541 10.3094 6.58015C10.3103 5.9149 10.0558 5.27468 9.59847 4.79166C9.59847 4.79166 8.0526 2.78543 8.02672 2.75955C7.55049 2.28011 6.90479 2.00733 6.22913 2.00015C5.55348 1.99296 4.90213 2.25194 4.4158 2.72114L3.4559 3.55603C-2.98716 10.4104 13.6393 27.0481 20.4838 20.5042L21.2451 19.6276C21.7285 19.1425 22 18.4854 22 17.8004C22 17.1155 21.7285 16.4584 21.2451 15.9733C21.2175 15.9508 19.2076 14.4037 19.2076 14.4037Z" fill="#0C0C0D"/>
</svg>
