<svg width="24" height="24" viewBox="0 0 24 24" fill="none" xmlns="http://www.w3.org/2000/svg">
<path d="M12 16.1143C13.5955 16.1143 14.8889 14.7839 14.8889 13.1429C14.8889 11.5018 13.5955 10.1714 12 10.1714C10.4045 10.1714 9.1111 11.5018 9.1111 13.1429C9.1111 14.7839 10.4045 16.1143 12 16.1143Z" fill="#0C0C0D"/>
<path fill-rule="evenodd" clip-rule="evenodd" d="M14.6466 4C15.0675 4 15.4522 4.24457 15.6404 4.63176L16.1373 5.65396C16.3256 6.04114 16.7103 6.28571 17.1312 6.28571H19.7778C21.0051 6.28571 22 7.30906 22 8.57143V17.7143C22 18.9767 21.0051 20 19.7778 20H4.22222C2.99492 20 2 18.9767 2 17.7143V8.57143C2 7.30906 2.99492 6.28571 4.22222 6.28571H6.86885C7.28971 6.28571 7.67445 6.04114 7.86266 5.65396L8.35956 4.63176C8.54778 4.24457 8.93251 4 9.35337 4H14.6466ZM12 17.7143C14.4546 17.7143 16.4444 15.6676 16.4444 13.1429C16.4444 10.6181 14.4546 8.57143 12 8.57143C9.5454 8.57143 7.55556 10.6181 7.55556 13.1429C7.55556 15.6676 9.5454 17.7143 12 17.7143ZM5.88889 9.42857C5.88889 9.90196 5.51579 10.2857 5.05556 10.2857C4.59532 10.2857 4.22222 9.90196 4.22222 9.42857C4.22222 8.95518 4.59532 8.57143 5.05556 8.57143C5.51579 8.57143 5.88889 8.95518 5.88889 9.42857Z" fill="#0C0C0D"/>
</svg>
