<svg width="24" height="24" viewBox="0 0 24 24" fill="none" xmlns="http://www.w3.org/2000/svg">
<path fill-rule="evenodd" clip-rule="evenodd" d="M12 17.0857C14.2705 17.0857 16.1111 15.1925 16.1111 12.8571C16.1111 10.5218 14.2705 8.62857 12 8.62857C9.7295 8.62857 7.88889 10.5218 7.88889 12.8571C7.88889 15.1925 9.7295 17.0857 12 17.0857ZM12 15.4857C13.4114 15.4857 14.5556 14.3089 14.5556 12.8571C14.5556 11.4054 13.4114 10.2286 12 10.2286C10.5886 10.2286 9.44444 11.4054 9.44444 12.8571C9.44444 14.3089 10.5886 15.4857 12 15.4857Z" fill="#0C0C0D"/>
<path d="M5.61111 10.8571C6.07135 10.8571 6.44444 10.4734 6.44444 10C6.44444 9.52661 6.07135 9.14286 5.61111 9.14286C5.15087 9.14286 4.77778 9.52661 4.77778 10C4.77778 10.4734 5.15087 10.8571 5.61111 10.8571Z" fill="#0C0C0D"/>
<path fill-rule="evenodd" clip-rule="evenodd" d="M14.6466 4C15.0675 4 15.4522 4.24457 15.6404 4.63176L16.1373 5.65396C16.3256 6.04114 16.7103 6.28571 17.1312 6.28571H19.7778C21.0051 6.28571 22 7.30906 22 8.57143V17.7143C22 18.9767 21.0051 20 19.7778 20H4.22222C2.99492 20 2 18.9767 2 17.7143V8.57143C2 7.30906 2.99492 6.28571 4.22222 6.28571H6.86885C7.28971 6.28571 7.67445 6.04114 7.86266 5.65396L8.35956 4.63176C8.54778 4.24457 8.93251 4 9.35337 4H14.6466ZM9.62805 5.6H14.3719L14.746 6.3695C15.1977 7.29874 16.1211 7.88571 17.1312 7.88571H19.7778C20.146 7.88571 20.4444 8.19272 20.4444 8.57143V17.7143C20.4444 18.093 20.146 18.4 19.7778 18.4H4.22222C3.85403 18.4 3.55556 18.093 3.55556 17.7143V8.57143C3.55556 8.19272 3.85403 7.88571 4.22222 7.88571H6.86885C7.87891 7.88571 8.80228 7.29874 9.25399 6.3695L9.62805 5.6Z" fill="#0C0C0D"/>
</svg>
