<svg width="24" height="24" viewBox="0 0 24 24" fill="none" xmlns="http://www.w3.org/2000/svg">
<path d="M18.4629 2.3462C18.2025 2.08447 17.7804 2.08447 17.5201 2.3462C17.2597 2.60794 17.2597 3.03229 17.5201 3.29403L18.4191 4.20196L7.47628 4.20205C5.0041 4.20205 3 6.21677 3 8.70206V10.617C3 10.9871 3.29848 11.2872 3.66668 11.2872C4.03488 11.2872 4.33336 10.9871 4.33336 10.617V8.70206C4.33336 6.95707 5.74049 5.54248 7.47628 5.54248L18.4191 5.54239L17.5201 6.39838C17.2597 6.66011 17.2597 7.08447 17.5201 7.3462C17.7804 7.60794 18.2025 7.60794 18.4629 7.3462L20.5 5.34609C20.7603 5.08435 20.7598 4.65945 20.4994 4.39772L18.4629 2.3462Z" fill="#0C0C0D"/>
<path d="M19.6666 15.1702C19.6666 16.9152 18.2595 18.3298 16.5237 18.3298L5.58041 18.3298L6.60698 17.2941C6.86734 17.0324 6.86734 16.608 6.60698 16.3463C6.34663 16.0845 5.92451 16.0845 5.66416 16.3463L3.50005 18.5255C3.2397 18.7873 3.23916 19.2122 3.49951 19.4739L5.66416 21.6537C5.92451 21.9154 6.34663 21.9154 6.60698 21.6537C6.86734 21.3919 6.86734 20.9676 6.60698 20.7058L5.58046 19.6702L16.5237 19.6702C18.9959 19.6702 21 17.6555 21 15.1702V13.2553C21 12.8851 20.7015 12.5851 20.3333 12.5851C19.9651 12.5851 19.6666 12.8851 19.6666 13.2553V15.1702Z" fill="#0C0C0D"/>
<path d="M13.2871 10.7401V11.6851H14.2591V12.9181H15.4471V7.85107H14.2591V9.18307H13.2871V10.1371H14.2591V10.7401H13.2871Z" fill="#0C0C0D"/>
<path fill-rule="evenodd" clip-rule="evenodd" d="M8.64309 12.6121C9.93909 12.6121 11.7391 12.5851 13.2691 12.3241L13.1971 11.4511C13.0648 11.4658 12.9297 11.4778 12.7921 11.4901C12.6769 11.5003 12.5599 11.5108 12.4411 11.5231V9.34507H13.0981V8.40007H8.72409V9.34507H9.38109V11.6491H8.51709L8.64309 12.6121ZM11.0334 11.6063C10.8614 11.6142 10.6908 11.6221 10.5241 11.6221V9.34507H11.2981V11.5951C11.2097 11.5981 11.1214 11.6022 11.0334 11.6063Z" fill="#0C0C0D"/>
<path fill-rule="evenodd" clip-rule="evenodd" d="M15.4831 14.6011C15.4831 13.6201 14.4121 13.0531 12.6391 13.0531C10.8751 13.0531 9.80409 13.6201 9.80409 14.6011C9.80409 15.5731 10.8751 16.1491 12.6391 16.1491C14.4121 16.1491 15.4831 15.5731 15.4831 14.6011ZM14.2951 14.6011C14.2951 15.0331 13.7461 15.2491 12.6391 15.2491C11.5411 15.2491 10.9921 15.0331 10.9921 14.6011C10.9921 14.1691 11.5411 13.9531 12.6391 13.9531C13.7461 13.9531 14.2951 14.1691 14.2951 14.6011Z" fill="#0C0C0D"/>
</svg>
