<svg width="24" height="24" viewBox="0 0 24 24" fill="none" xmlns="http://www.w3.org/2000/svg">
<path d="M18.4629 2.3462C18.2025 2.08447 17.7804 2.08447 17.5201 2.3462C17.2597 2.60794 17.2597 3.03229 17.5201 3.29403L18.4191 4.20196L7.47628 4.20205C5.0041 4.20205 3 6.21677 3 8.70206V10.617C3 10.9871 3.29848 11.2872 3.66668 11.2872C4.03488 11.2872 4.33336 10.9871 4.33336 10.617V8.70206C4.33336 6.95707 5.74049 5.54248 7.47628 5.54248L18.4191 5.54239L17.5201 6.39838C17.2597 6.66011 17.2597 7.08447 17.5201 7.3462C17.7804 7.60794 18.2025 7.60794 18.4629 7.3462L20.5 5.34609C20.7603 5.08435 20.7598 4.65945 20.4994 4.39772L18.4629 2.3462Z" fill="#0C0C0D"/>
<path d="M19.6666 15.1702C19.6666 16.9152 18.2595 18.3298 16.5237 18.3298L5.58041 18.3298L6.60698 17.2941C6.86734 17.0324 6.86734 16.608 6.60698 16.3463C6.34663 16.0845 5.92451 16.0845 5.66416 16.3463L3.50005 18.5255C3.2397 18.7873 3.23916 19.2122 3.49951 19.4739L5.66416 21.6537C5.92451 21.9154 6.34663 21.9154 6.60698 21.6537C6.86734 21.3919 6.86734 20.9676 6.60698 20.7058L5.58046 19.6702L16.5237 19.6702C18.9959 19.6702 21 17.6555 21 15.1702V13.2553C21 12.8851 20.7015 12.5851 20.3333 12.5851C19.9651 12.5851 19.6666 12.8851 19.6666 13.2553V15.1702Z" fill="#0C0C0D"/>
<path d="M13.6912 9.61733C13.6469 9.65021 13.6021 9.68342 13.557 9.71697V10.23H15.978V9.43797H15.033C15.42 9.10497 15.906 8.64597 15.906 8.10597C15.906 7.52997 15.465 7.11597 14.673 7.11597C14.169 7.11597 13.845 7.33197 13.458 7.71897L13.98 8.24997C14.16 8.00697 14.34 7.88997 14.52 7.88997C14.808 7.88997 14.952 8.01597 14.952 8.27697C14.952 8.68257 14.3728 9.11198 13.6912 9.61733Z" fill="#0C0C0D"/>
<path d="M9.20097 11.472L9.09297 10.806H8.02197V15H9.34497V12.381C9.70497 12.003 10.029 11.814 10.317 11.814C10.821 11.814 11.028 12.093 11.028 12.885V15H12.342V12.381C12.711 12.003 13.044 11.814 13.323 11.814C13.8 11.814 14.034 12.093 14.034 12.885V15H15.348V12.705C15.348 11.436 14.862 10.698 13.773 10.698C13.125 10.698 12.648 11.067 12.171 11.571C11.928 10.995 11.505 10.698 10.776 10.698C10.128 10.698 9.65997 11.049 9.23697 11.472H9.20097Z" fill="#0C0C0D"/>
</svg>
