<svg width="24" height="24" viewBox="0 0 24 24" fill="none" xmlns="http://www.w3.org/2000/svg">
<path fill-rule="evenodd" clip-rule="evenodd" d="M3 19.5297C3 19.9095 3.45534 20.1321 3.78673 19.9143L8 17.1451H17C19.2091 17.1451 21 15.4636 21 13.3894V7.75575C21 5.68151 19.2091 4 17 4H7C4.79086 4 3 5.68151 3 7.75575V19.5297ZM8.89999 11.0611C8.89999 11.6315 8.4075 12.0939 7.79999 12.0939C7.19247 12.0939 6.69999 11.6315 6.69999 11.0611C6.69999 10.4906 7.19247 10.0282 7.79999 10.0282C8.4075 10.0282 8.89999 10.4906 8.89999 11.0611ZM13.1 11.0611C13.1 11.6315 12.6075 12.0939 12 12.0939C11.3925 12.0939 10.9 11.6315 10.9 11.0611C10.9 10.4906 11.3925 10.0282 12 10.0282C12.6075 10.0282 13.1 10.4906 13.1 11.0611ZM16.2 12.0939C16.8075 12.0939 17.3 11.6315 17.3 11.0611C17.3 10.4906 16.8075 10.0282 16.2 10.0282C15.5925 10.0282 15.1 10.4906 15.1 11.0611C15.1 11.6315 15.5925 12.0939 16.2 12.0939Z" fill="#0C0C0D"/>
</svg>
