<svg width="24" height="24" viewBox="0 0 24 24" fill="none" xmlns="http://www.w3.org/2000/svg">
<path d="M8.90001 11.0611C8.90001 11.6315 8.40753 12.0939 7.80001 12.0939C7.1925 12.0939 6.70001 11.6315 6.70001 11.0611C6.70001 10.4906 7.1925 10.0282 7.80001 10.0282C8.40753 10.0282 8.90001 10.4906 8.90001 11.0611Z" fill="#0C0C0D"/>
<path d="M13.1 11.0611C13.1 11.6315 12.6075 12.0939 12 12.0939C11.3925 12.0939 10.9 11.6315 10.9 11.0611C10.9 10.4906 11.3925 10.0282 12 10.0282C12.6075 10.0282 13.1 10.4906 13.1 11.0611Z" fill="#0C0C0D"/>
<path d="M17.3 11.0611C17.3 11.6315 16.8076 12.0939 16.2 12.0939C15.5925 12.0939 15.1 11.6315 15.1 11.0611C15.1 10.4906 15.5925 10.0282 16.2 10.0282C16.8076 10.0282 17.3 10.4906 17.3 11.0611Z" fill="#0C0C0D"/>
<path fill-rule="evenodd" clip-rule="evenodd" d="M3 19.5297C3 19.9095 3.45534 20.1321 3.78673 19.9143L8 17.1451H17C19.2091 17.1451 21 15.4636 21 13.3894V7.75575C21 5.68151 19.2091 4 17 4H7C4.79086 4 3 5.68151 3 7.75575V19.5297ZM8 15.8306C7.71276 15.8306 7.43247 15.9136 7.19715 16.0682L4.4 17.9067V7.75575C4.4 6.40749 5.56406 5.31451 7 5.31451H17C18.4359 5.31451 19.6 6.40749 19.6 7.75575V13.3894C19.6 14.7376 18.4359 15.8306 17 15.8306H8Z" fill="#0C0C0D"/>
</svg>
