<svg width="24" height="24" viewBox="0 0 24 24" fill="none" xmlns="http://www.w3.org/2000/svg">
<path fill-rule="evenodd" clip-rule="evenodd" d="M12 22C17.5228 22 22 17.5228 22 12C22 6.47715 17.5228 2 12 2C6.47715 2 2 6.47715 2 12C2 17.5228 6.47715 22 12 22ZM16.7926 9.6097C17.1294 9.17195 17.0475 8.5441 16.6097 8.20736C16.172 7.87063 15.5441 7.95252 15.2074 8.39028L10.958 13.9144L8.75927 11.3492C8.39985 10.9299 7.76855 10.8813 7.34923 11.2407C6.9299 11.6002 6.88134 12.2315 7.24076 12.6508L10.2408 16.1508C10.4368 16.3795 10.7254 16.5076 11.0265 16.4996C11.3276 16.4917 11.609 16.3484 11.7926 16.1097L16.7926 9.6097Z" fill="#0C0C0D"/>
</svg>
