<svg width="24" height="24" viewBox="0 0 24 24" fill="none" xmlns="http://www.w3.org/2000/svg">
<path fill-rule="evenodd" clip-rule="evenodd" d="M19.7778 8.66667C21.0051 8.66667 22 9.66159 22 10.8889V17.5556C22 18.7829 21.0051 19.7778 19.7778 19.7778H18.6667V21.4444C18.6667 21.7513 18.4179 22 18.1111 22C17.8043 22 17.5556 21.7513 17.5556 21.4444V19.7778H6.44444V21.4444C6.44444 21.7513 6.19571 22 5.88889 22C5.58206 22 5.33333 21.7513 5.33333 21.4444V19.7778H4.22222C2.99492 19.7778 2 18.7829 2 17.5556V10.8889C2 9.66159 2.99492 8.66667 4.22222 8.66667C4.22222 4.98477 7.20699 2 10.8889 2H13.1111C16.793 2 19.7778 4.98477 19.7778 8.66667ZM13.1111 3.11111H10.8889C7.82064 3.11111 5.33333 5.59842 5.33333 8.66667C6.56063 8.66667 7.55556 9.66159 7.55556 10.8889V13.6667H16.4444V10.8889C16.4444 9.66159 17.4394 8.66667 18.6667 8.66667C18.6667 5.59842 16.1794 3.11111 13.1111 3.11111ZM19.7778 18.6667C20.3914 18.6667 20.8889 18.1692 20.8889 17.5556V10.8889C20.8889 10.2752 20.3914 9.77778 19.7778 9.77778H18.6667C18.053 9.77778 17.5556 10.2752 17.5556 10.8889V14.7778H6.44444V10.8889C6.44444 10.2752 5.94698 9.77778 5.33333 9.77778H4.22222C3.60857 9.77778 3.11111 10.2752 3.11111 10.8889V17.5556C3.11111 18.1692 3.60857 18.6667 4.22222 18.6667H19.7778Z" fill="#0C0C0D"/>
</svg>
