<svg width="24" height="24" viewBox="0 0 24 24" fill="none" xmlns="http://www.w3.org/2000/svg">
<path d="M7 10.2998C7 9.91319 7.3134 9.59979 7.7 9.59979H13.3C13.6866 9.59979 14 9.91319 14 10.2998C14 10.6864 13.6866 10.9998 13.3 10.9998H7.7C7.3134 10.9998 7 10.6864 7 10.2998Z" fill="#0C0C0D"/>
<path d="M7.7 12.9998C7.3134 12.9998 7 13.3132 7 13.6998C7 14.0864 7.3134 14.3998 7.7 14.3998L16.3 14.4002C16.6866 14.4002 17 14.0868 17 13.7002C17 13.3136 16.6866 13.0002 16.3 13.0002L7.7 12.9998Z" fill="#0C0C0D"/>
<path fill-rule="evenodd" clip-rule="evenodd" d="M21 12C21 16.9706 16.9706 21 12 21H3.7C3.3134 21 3 20.6866 3 20.3V12C3 7.02944 7.02944 3 12 3C16.9706 3 21 7.02944 21 12ZM12 19.6C16.1974 19.6 19.6 16.1974 19.6 12C19.6 7.80264 16.1974 4.4 12 4.4C7.80264 4.4 4.4 7.80264 4.4 12V19.6H12Z" fill="#0C0C0D"/>
</svg>
