<svg width="24" height="24" viewBox="0 0 24 24" fill="none" xmlns="http://www.w3.org/2000/svg">
<path d="M12 6.61124C12.4392 6.61124 12.7953 6.95946 12.7953 7.38902V10.9443C12.7953 11.3739 12.4392 11.7221 12 11.7221C11.5608 11.7221 11.2047 11.3739 11.2047 10.9443L11.2047 7.38902C11.2047 6.95946 11.5608 6.61124 12 6.61124Z" fill="#0C0C0D"/>
<path d="M12.7952 13.2777C12.7952 13.7072 12.4392 14.0554 12 14.0554C11.5608 14.0554 11.2047 13.7072 11.2047 13.2777C11.2047 12.8481 11.5608 12.4999 12 12.4999C12.4392 12.4999 12.7952 12.8481 12.7952 13.2777Z" fill="#0C0C0D"/>
<path fill-rule="evenodd" clip-rule="evenodd" d="M19.2133 8.15536L19.7808 15.8889H20.1406C20.6897 15.8889 21.1602 16.2729 21.2584 16.8012L21.9813 20.6901C22.1081 21.3722 21.5724 22 20.8636 22H3.13642C2.42761 22 1.89186 21.3722 2.01865 20.6901L2.74162 16.8012C2.83984 16.2729 3.31033 15.8889 3.85939 15.8889H4.21917L4.78666 8.15536C5.05985 4.68205 8.02125 2 11.5832 2H12.4168C15.9787 2 18.9401 4.68204 19.2133 8.15536ZM11.5832 3.55556H12.4168C15.1476 3.55556 17.418 5.61179 17.6274 8.27466L18.1856 15.8889H5.81436L6.37251 8.27467C6.58195 5.61179 8.85236 3.55556 11.5832 3.55556ZM4.23866 17.4444L3.68094 20.4444H20.3191L19.7613 17.4444H4.23866Z" fill="#0C0C0D"/>
</svg>
