<svg width="24" height="24" viewBox="0 0 24 24" fill="none" xmlns="http://www.w3.org/2000/svg">
<path d="M14.25 13.75C13.8358 13.75 13.5 13.4142 13.5 13V10.5L11 10.5C10.5858 10.5 10.25 10.1642 10.25 9.75C10.25 9.33578 10.5858 9 11 9H13.5V6.5C13.5 6.08579 13.8358 5.75 14.25 5.75C14.6642 5.75 15 6.08579 15 6.5V9L17.5 9C17.9142 9 18.25 9.33579 18.25 9.75C18.25 10.1642 17.9142 10.5 17.5 10.5H15V13C15 13.4142 14.6642 13.75 14.25 13.75Z" fill="#0C0C0D"/>
<path fill-rule="evenodd" clip-rule="evenodd" d="M8.66667 2C7.43937 2 6.44444 2.99492 6.44444 4.22222V5.33333H4.22222C2.99492 5.33333 2 6.32826 2 7.55556V19.7778C2 21.0051 2.99492 22 4.22222 22H16.4444C17.6717 22 18.6667 21.0051 18.6667 19.7778V17.5556H19.7778C21.0051 17.5556 22 16.5606 22 15.3333V4.22222C22 2.99492 21.0051 2 19.7778 2H8.66667ZM19.7778 3.55556H8.66667C8.29848 3.55556 8 3.85403 8 4.22222V15.3333C8 15.7015 8.29848 16 8.66667 16H19.7778C20.146 16 20.4444 15.7015 20.4444 15.3333V4.22222C20.4444 3.85403 20.146 3.55556 19.7778 3.55556ZM4.22222 6.88889H6.44444V15.3333C6.44444 16.5606 7.43937 17.5556 8.66667 17.5556H17.1111V19.7778C17.1111 20.146 16.8126 20.4444 16.4444 20.4444H4.22222C3.85403 20.4444 3.55556 20.146 3.55556 19.7778V7.55556C3.55556 7.18737 3.85403 6.88889 4.22222 6.88889Z" fill="#0C0C0D"/>
</svg>
