<svg width="24" height="24" viewBox="0 0 24 24" fill="none" xmlns="http://www.w3.org/2000/svg">
<path d="M9.04352 3.05258C9.31795 2.91537 9.42918 2.58166 9.29197 2.30723C9.15475 2.03279 8.82104 1.92156 8.54661 2.05877C8.26925 2.19745 7.89539 2.50404 7.78136 3.00085C7.65851 3.53612 7.87895 4.0919 8.40223 4.61518C8.76784 4.98079 8.73259 5.16575 8.72581 5.19529C8.7102 5.2633 8.63962 5.3456 8.54661 5.39211C8.27218 5.52932 8.16094 5.86303 8.29816 6.13746C8.43538 6.4119 8.76908 6.52313 9.04352 6.38591C9.32088 6.24723 9.69474 5.94065 9.80876 5.44384C9.93161 4.90857 9.71118 4.35279 9.1879 3.82951C8.82229 3.4639 8.85754 3.27894 8.86432 3.2494C8.87993 3.18139 8.95051 3.09909 9.04352 3.05258Z" fill="#0C0C0D"/>
<path fill-rule="evenodd" clip-rule="evenodd" d="M4.79469 9.20517L3.1937 12.8074C2.4842 13.1785 2 13.9216 2 14.7778C2 15.634 2.4842 16.3771 3.1937 16.7482L4.79469 20.3504C5.24052 21.3535 6.23531 22 7.33305 22H16.667C17.7647 22 18.7595 21.3535 19.2053 20.3504L20.8063 16.7482C21.5158 16.3771 22 15.634 22 14.7778C22 13.9216 21.5158 13.1785 20.8063 12.8074L19.2053 9.20517C18.7595 8.20204 17.7647 7.55556 16.667 7.55556H7.33305C6.23531 7.55556 5.24052 8.20204 4.79469 9.20517ZM7.33305 8.66667C6.67441 8.66667 6.07754 9.05456 5.81003 9.65644L4.52154 12.5556H19.4785L18.19 9.65644C17.9225 9.05456 17.3256 8.66667 16.667 8.66667H7.33305ZM19.4785 17H12.2301L9.61508 19.6151C9.39812 19.832 9.04636 19.832 8.8294 19.6151L6.21434 17H4.52154L5.81003 19.8991C6.07754 20.501 6.67441 20.8889 7.33305 20.8889H16.667C17.3256 20.8889 17.9225 20.501 18.19 19.8991L19.4785 17ZM7.78569 17H10.6588L9.22224 18.4365L7.78569 17ZM19.7778 15.8889H4.22222C3.60857 15.8889 3.11111 15.3914 3.11111 14.7778C3.11111 14.1641 3.60857 13.6667 4.22222 13.6667H19.7778C20.3914 13.6667 20.8889 14.1641 20.8889 14.7778C20.8889 15.3914 20.3914 15.8889 19.7778 15.8889Z" fill="#0C0C0D"/>
<path d="M12.4969 2.30723C12.6341 2.58166 12.5229 2.91537 12.2485 3.05258C12.1555 3.09909 12.0849 3.18139 12.0693 3.2494C12.0625 3.27894 12.0272 3.4639 12.3929 3.82951C12.9161 4.35279 13.1366 4.90857 13.0137 5.44384C12.8997 5.94065 12.5258 6.24723 12.2485 6.38591C11.974 6.52313 11.6403 6.4119 11.5031 6.13746C11.3659 5.86303 11.4771 5.52932 11.7516 5.39211C11.8446 5.3456 11.9152 5.2633 11.9308 5.19529C11.9375 5.16575 11.9728 4.98079 11.6072 4.61518C11.0839 4.0919 10.8635 3.53612 10.9863 3.00085C11.1003 2.50404 11.4742 2.19745 11.7516 2.05877C12.026 1.92156 12.3597 2.03279 12.4969 2.30723Z" fill="#0C0C0D"/>
<path d="M15.4534 3.05258C15.7278 2.91537 15.839 2.58166 15.7018 2.30723C15.5646 2.03279 15.2309 1.92156 14.9565 2.05877C14.6791 2.19745 14.3052 2.50404 14.1912 3.00085C14.0684 3.53612 14.2888 4.0919 14.8121 4.61518C15.1777 4.98079 15.1424 5.16575 15.1357 5.19529C15.12 5.2633 15.0495 5.3456 14.9565 5.39211C14.682 5.52932 14.5708 5.86303 14.708 6.13746C14.8452 6.4119 15.1789 6.52313 15.4534 6.38591C15.7307 6.24723 16.1046 5.94065 16.2186 5.44384C16.3415 4.90857 16.121 4.35279 15.5977 3.82951C15.2321 3.4639 15.2674 3.27894 15.2742 3.2494C15.2898 3.18139 15.3604 3.09909 15.4534 3.05258Z" fill="#0C0C0D"/>
</svg>
