<svg width="24" height="24" viewBox="0 0 24 24" fill="none" xmlns="http://www.w3.org/2000/svg">
<path d="M8.05117 7.96248C7.74363 7.65494 7.24501 7.65494 6.93747 7.96248C6.62994 8.27001 6.62994 8.76863 6.93747 9.07617L11.4431 13.5818C11.5908 13.7295 11.7911 13.8125 12 13.8125C12.2088 13.8125 12.4092 13.7295 12.5568 13.5818L17.0625 9.07617C17.37 8.76863 17.37 8.27001 17.0625 7.96248C16.755 7.65494 16.2564 7.65494 15.9488 7.96248L12.7875 11.1238V2.7875C12.7875 2.35258 12.4349 2 12 2C11.5651 2 11.2125 2.35258 11.2125 2.7875L11.2125 11.1238L8.05117 7.96248Z" fill="#0C0C0D"/>
<path d="M4.575 11.7875C4.575 11.3526 4.22242 11 3.7875 11C3.35258 11 3 11.3526 3 11.7875L3.00002 16.9625C3.00002 18.6401 4.35995 20 6.03752 20H17.9625C19.6401 20 21 18.6401 21 16.9625L21 11.7875C21 11.3526 20.6474 11 20.2125 11C19.7776 11 19.425 11.3526 19.425 11.7875L19.425 16.9625C19.425 17.7702 18.7702 18.425 17.9625 18.425H6.03752C5.2298 18.425 4.57502 17.7702 4.57502 16.9625L4.575 11.7875Z" fill="#0C0C0D"/>
</svg>
