<svg width="24" height="24" viewBox="0 0 24 24" fill="none" xmlns="http://www.w3.org/2000/svg">
<path d="M9.22222 4.88889C8.9154 4.88889 8.66667 5.13762 8.66667 5.44444C8.66667 5.75127 8.9154 6 9.22222 6L14.7778 6C15.0846 6 15.3333 5.75127 15.3333 5.44444C15.3333 5.13762 15.0846 4.88889 14.7778 4.88889L9.22222 4.88889Z" fill="#0C0C0D"/>
<path fill-rule="evenodd" clip-rule="evenodd" d="M19.7778 22C21.0051 22 22 21.0051 22 19.7778V4.22222C22 2.99492 21.0051 2 19.7778 2H4.22222C2.99492 2 2 2.99492 2 4.22222V19.7778C2 21.0051 2.99492 22 4.22222 22H19.7778ZM4.22222 3.11111H19.7778C20.3914 3.11111 20.8889 3.60857 20.8889 4.22222V19.7778C20.8889 20.3914 20.3914 20.8889 19.7778 20.8889H18.6667V9.77778C18.6667 8.55048 17.6717 7.55556 16.4444 7.55556H7.55556C6.32826 7.55556 5.33333 8.55048 5.33333 9.77778V20.8889H4.22222C3.60857 20.8889 3.11111 20.3914 3.11111 19.7778V4.22222C3.11111 3.60857 3.60857 3.11111 4.22222 3.11111ZM6.44444 20.8889H11.4444L11.4444 8.66667H7.55556C6.94191 8.66667 6.44444 9.16413 6.44444 9.77778V20.8889ZM12.5556 8.66667L12.5556 20.8889H17.5556V9.77778C17.5556 9.16413 17.0581 8.66667 16.4444 8.66667H12.5556Z" fill="#0C0C0D"/>
</svg>
