<svg width="24" height="24" viewBox="0 0 24 24" fill="none" xmlns="http://www.w3.org/2000/svg">
<path fill-rule="evenodd" clip-rule="evenodd" d="M12 22C17.5228 22 22 17.5228 22 12C22 6.47715 17.5228 2 12 2C6.47715 2 2 6.47715 2 12C2 17.5228 6.47715 22 12 22ZM8.74999 10.75C9.44034 10.75 9.99999 10.1904 9.99999 9.5C9.99999 8.80964 9.44034 8.25 8.74999 8.25C8.05963 8.25 7.49999 8.80964 7.49999 9.5C7.49999 10.1904 8.05963 10.75 8.74999 10.75ZM6.34237 13.3487C6.68684 16.1671 9.08849 18.35 12 18.35C14.9115 18.35 17.3131 16.1671 17.6576 13.3487C17.7045 12.9649 17.3866 12.65 17 12.65C16.6134 12.65 16.306 12.9656 16.2437 13.3472C15.9106 15.3905 14.1374 16.95 12 16.95C9.86254 16.95 8.08934 15.3905 7.75621 13.3472C7.694 12.9656 7.38658 12.65 6.99998 12.65C6.61338 12.65 6.29547 12.9649 6.34237 13.3487ZM16.5 9.5C16.5 10.1904 15.9403 10.75 15.25 10.75C14.5596 10.75 14 10.1904 14 9.5C14 8.80964 14.5596 8.25 15.25 8.25C15.9403 8.25 16.5 8.80964 16.5 9.5Z" fill="#0C0C0D"/>
</svg>
