<svg width="24" height="24" viewBox="0 0 24 24" fill="none" xmlns="http://www.w3.org/2000/svg">
<path d="M9.99999 9.5C9.99999 10.1904 9.44034 10.75 8.74999 10.75C8.05963 10.75 7.49999 10.1904 7.49999 9.5C7.49999 8.80964 8.05963 8.25 8.74999 8.25C9.44034 8.25 9.99999 8.80964 9.99999 9.5Z" fill="#0C0C0D"/>
<path d="M12 18.35C9.08849 18.35 6.68684 16.1671 6.34237 13.3487C6.29547 12.9649 6.61338 12.65 6.99998 12.65C7.38658 12.65 7.694 12.9656 7.75621 13.3472C8.08934 15.3905 9.86254 16.95 12 16.95C14.1374 16.95 15.9106 15.3905 16.2437 13.3472C16.306 12.9656 16.6134 12.65 17 12.65C17.3866 12.65 17.7045 12.9649 17.6576 13.3487C17.3131 16.1671 14.9115 18.35 12 18.35Z" fill="#0C0C0D"/>
<path d="M16.5 9.5C16.5 10.1904 15.9403 10.75 15.25 10.75C14.5596 10.75 14 10.1904 14 9.5C14 8.80964 14.5596 8.25 15.25 8.25C15.9403 8.25 16.5 8.80964 16.5 9.5Z" fill="#0C0C0D"/>
<path fill-rule="evenodd" clip-rule="evenodd" d="M22 12C22 17.5228 17.5228 22 12 22C6.47715 22 2 17.5228 2 12C2 6.47715 6.47715 2 12 2C17.5228 2 22 6.47715 22 12ZM20.6 12C20.6 16.7496 16.7496 20.6 12 20.6C7.25035 20.6 3.4 16.7496 3.4 12C3.4 7.25035 7.25035 3.4 12 3.4C16.7496 3.4 20.6 7.25035 20.6 12Z" fill="#0C0C0D"/>
</svg>
