<svg width="24" height="24" viewBox="0 0 24 24" fill="none" xmlns="http://www.w3.org/2000/svg">
<path fill-rule="evenodd" clip-rule="evenodd" d="M5.33333 5.33334C5.33333 3.49239 6.82572 2 8.66667 2C10.5076 2 12 3.49239 12 5.33334C12 3.49239 13.4924 2 15.3333 2C17.1743 2 18.6667 3.49239 18.6667 5.33334H19.7778C21.0051 5.33334 22 6.32826 22 7.55556V9.77778C22 10.6003 21.5531 11.3185 20.8889 11.7027V19.7778C20.8889 21.0051 19.894 22 18.6667 22H5.33333C4.10603 22 3.11111 21.0051 3.11111 19.7778V11.7027C2.44689 11.3185 2 10.6003 2 9.77778V7.55556C2 6.32826 2.99492 5.33334 4.22222 5.33334H5.33333ZM8.66667 3.55556C9.64851 3.55556 10.4444 4.3515 10.4444 5.33334H6.88889C6.88889 4.3515 7.68483 3.55556 8.66667 3.55556ZM13.5556 12H19.3333V19.7778C19.3333 20.146 19.0349 20.4444 18.6667 20.4444H13.5556V12ZM13.5556 10.4445H19.7778C20.146 10.4445 20.4444 10.146 20.4444 9.77778V7.55556C20.4444 7.18737 20.146 6.88889 19.7778 6.88889H13.5556V10.4445ZM10.4445 6.88889V10.4445H4.22222C3.85403 10.4445 3.55556 10.146 3.55556 9.77778V7.55556C3.55556 7.18737 3.85403 6.88889 4.22222 6.88889H10.4445ZM10.4445 12V20.4444H5.33333C4.96514 20.4444 4.66667 20.146 4.66667 19.7778V12H10.4445ZM17.1111 5.33334C17.1111 4.3515 16.3152 3.55556 15.3333 3.55556C14.3515 3.55556 13.5556 4.3515 13.5556 5.33334H17.1111Z" fill="#0C0C0D"/>
</svg>
