<svg width="24" height="24" viewBox="0 0 24 24" fill="none" xmlns="http://www.w3.org/2000/svg">
<path d="M15.15 8.05115C14.8424 7.74361 14.8424 7.24499 15.15 6.93746C15.4575 6.62992 15.9561 6.62992 16.2637 6.93746L20.7693 11.4431C20.917 11.5908 21 11.7911 21 12C21 12.2088 20.917 12.4091 20.7693 12.5568L16.2637 17.0625C15.9561 17.37 15.4575 17.37 15.15 17.0625C14.8424 16.755 14.8424 16.2563 15.15 15.9488L18.3113 12.7875H9.975C9.54008 12.7875 9.1875 12.4349 9.1875 12C9.1875 11.5651 9.54008 11.2125 9.975 11.2125L18.3113 11.2125L15.15 8.05115Z" fill="#0C0C0D"/>
<path d="M12.7125 4.575C13.1474 4.575 13.5 4.22242 13.5 3.7875C13.5 3.35258 13.1474 3 12.7125 3L6.0375 3C4.35993 3 3 4.35993 3 6.0375V17.9625C3 19.6401 4.35993 21 6.0375 21L12.7125 21C13.1474 21 13.5 20.6474 13.5 20.2125C13.5 19.7776 13.1474 19.425 12.7125 19.425H6.0375C5.22978 19.425 4.575 18.7702 4.575 17.9625V6.0375C4.575 5.22978 5.22978 4.575 6.0375 4.575L12.7125 4.575Z" fill="#0C0C0D"/>
</svg>
