<svg width="24" height="24" viewBox="0 0 24 24" fill="none" xmlns="http://www.w3.org/2000/svg">
<path d="M8.08262 9.04662C7.98559 8.75554 7.67097 8.59823 7.37989 8.69526C7.08881 8.79229 6.9315 9.10691 7.02852 9.39799L9.25075 16.0647C9.32637 16.2915 9.53867 16.4445 9.77779 16.4445C10.0169 16.4445 10.2292 16.2915 10.3048 16.0647L12 10.9791L13.6952 16.0647C13.7708 16.2915 13.9831 16.4445 14.2222 16.4445C14.4614 16.4445 14.6737 16.2915 14.7493 16.0647L16.9715 9.39799C17.0685 9.10691 16.9112 8.79229 16.6201 8.69526C16.3291 8.59823 16.0144 8.75554 15.9174 9.04662L14.2222 14.1322L12.5271 9.04662C12.4514 8.81977 12.2391 8.66675 12 8.66675C11.7609 8.66675 11.5486 8.81977 11.473 9.04662L9.77779 14.1322L8.08262 9.04662Z" fill="#0C0C0D"/>
<path fill-rule="evenodd" clip-rule="evenodd" d="M22 12C22 17.5228 17.5228 22 12 22C6.47715 22 2 17.5228 2 12C2 6.47715 6.47715 2 12 2C17.5228 2 22 6.47715 22 12ZM20.8889 12C20.8889 16.9092 16.9092 20.8889 12 20.8889C7.0908 20.8889 3.11111 16.9092 3.11111 12C3.11111 7.0908 7.0908 3.11111 12 3.11111C16.9092 3.11111 20.8889 7.0908 20.8889 12Z" fill="#0C0C0D"/>
</svg>
