<svg width="24" height="24" viewBox="0 0 24 24" fill="none" xmlns="http://www.w3.org/2000/svg">
<path fill-rule="evenodd" clip-rule="evenodd" d="M4.55631 20.4523C2.48123 18.3886 2.48123 15.0428 4.55631 12.9792L14.4772 3.11298C15.9693 1.62901 18.3887 1.62901 19.8809 3.11298C21.373 4.59694 21.373 7.00293 19.8809 8.4869L10.8043 17.5134C9.89503 18.4177 8.42076 18.4177 7.51145 17.5134C6.60215 16.6091 6.60215 15.143 7.51145 14.2387L14.8993 6.89152C15.2257 6.5669 15.755 6.5669 16.0814 6.89152C16.4078 7.21613 16.4078 7.74244 16.0814 8.06706L8.69351 15.4142C8.43704 15.6693 8.43704 16.0828 8.69351 16.3379C8.94998 16.5929 9.3658 16.5929 9.62227 16.3379L18.6988 7.31135C19.5382 6.47662 19.5382 5.12325 18.6988 4.28852C17.8594 3.45379 16.4986 3.45379 15.6592 4.28852L5.73837 14.1547C4.31612 15.5691 4.31612 17.8623 5.73837 19.2767C7.16061 20.6911 9.46652 20.6911 10.8888 19.2767L19.121 11.0899C19.4474 10.7653 19.9766 10.7653 20.303 11.0899C20.6294 11.4145 20.6294 11.9408 20.303 12.2654L12.0708 20.4523C9.99575 22.5159 6.63138 22.5159 4.55631 20.4523Z" fill="#0C0C0D"/>
</svg>
