<svg width="24" height="24" viewBox="0 0 24 24" fill="none" xmlns="http://www.w3.org/2000/svg">
<path fill-rule="evenodd" clip-rule="evenodd" d="M8.5 10.25C10.0855 10.25 11.4248 9.19574 11.8551 7.75H21C21.5523 7.75 22 7.30228 22 6.75C22 6.19772 21.5523 5.75 21 5.75H11.8551C11.4248 4.30426 10.0855 3.25 8.5 3.25C6.91449 3.25 5.57521 4.30425 5.14494 5.75H3C2.44772 5.75 2 6.19772 2 6.75C2 7.30228 2.44772 7.75 3 7.75H5.14494C5.57521 9.19574 6.91449 10.25 8.5 10.25ZM8.5 8.25C9.32843 8.25 10 7.57843 10 6.75C10 5.92157 9.32843 5.25 8.5 5.25C7.67157 5.25 7 5.92157 7 6.75C7 7.57843 7.67157 8.25 8.5 8.25Z" fill="#0C0C0D"/>
<path fill-rule="evenodd" clip-rule="evenodd" d="M15.5 20.75C17.0855 20.75 18.4248 19.6957 18.8551 18.25H21C21.5523 18.25 22 17.8023 22 17.25C22 16.6977 21.5523 16.25 21 16.25H18.8551C18.4248 14.8043 17.0855 13.75 15.5 13.75C13.9145 13.75 12.5752 14.8043 12.1449 16.25H3C2.44772 16.25 2 16.6977 2 17.25C2 17.8023 2.44772 18.25 3 18.25H12.1449C12.5752 19.6957 13.9145 20.75 15.5 20.75ZM15.5 18.75C16.3284 18.75 17 18.0784 17 17.25C17 16.4216 16.3284 15.75 15.5 15.75C14.6716 15.75 14 16.4216 14 17.25C14 18.0784 14.6716 18.75 15.5 18.75Z" fill="#0C0C0D"/>
</svg>
