<svg width="24" height="24" viewBox="0 0 24 24" fill="none" xmlns="http://www.w3.org/2000/svg">
<path d="M13.6667 7C13.3598 7 13.1111 7.24873 13.1111 7.55556C13.1111 7.86238 13.3598 8.11111 13.6667 8.11111H17C17.3068 8.11111 17.5556 7.86238 17.5556 7.55556C17.5556 7.24873 17.3068 7 17 7H13.6667Z" fill="#0C0C0D"/>
<path d="M13.1111 12C13.1111 11.6932 13.3598 11.4444 13.6667 11.4444H17C17.3068 11.4444 17.5556 11.6932 17.5556 12C17.5556 12.3068 17.3068 12.5556 17 12.5556H13.6667C13.3598 12.5556 13.1111 12.3068 13.1111 12Z" fill="#0C0C0D"/>
<path d="M13.6667 15.8889C13.3598 15.8889 13.1111 16.1376 13.1111 16.4444C13.1111 16.7513 13.3598 17 13.6667 17H17C17.3068 17 17.5556 16.7513 17.5556 16.4444C17.5556 16.1376 17.3068 15.8889 17 15.8889H13.6667Z" fill="#0C0C0D"/>
<path d="M5.33333 10.8889C5.33333 10.5821 5.58206 10.3333 5.88889 10.3333H8.11111C8.41794 10.3333 8.66667 10.5821 8.66667 10.8889C8.66667 11.1957 8.41794 11.4444 8.11111 11.4444H5.88889C5.58206 11.4444 5.33333 11.1957 5.33333 10.8889Z" fill="#0C0C0D"/>
<path d="M5.88889 13.6667C5.58206 13.6667 5.33333 13.9154 5.33333 14.2222C5.33333 14.529 5.58206 14.7778 5.88889 14.7778H8.11111C8.41794 14.7778 8.66667 14.529 8.66667 14.2222C8.66667 13.9154 8.41794 13.6667 8.11111 13.6667H5.88889Z" fill="#0C0C0D"/>
<path fill-rule="evenodd" clip-rule="evenodd" d="M2.55556 20.8889L3.11111 20.8889V9.68011C3.11111 9.24551 3.23855 8.82046 3.47764 8.45754L5.14431 5.92778C6.02243 4.59491 7.97757 4.59491 8.85569 5.92778L9.77778 7.32737V4.22222C9.77778 2.99492 10.7727 2 12 2H18.6667C19.894 2 20.8889 2.99492 20.8889 4.22222V20.8889H21.4444C21.7513 20.8889 22 21.1376 22 21.4444C22 21.7513 21.7513 22 21.4444 22H2.55556C2.24873 22 2 21.7513 2 21.4444C2 21.1376 2.24873 20.8889 2.55556 20.8889ZM12 3.11111H18.6667C19.2803 3.11111 19.7778 3.60857 19.7778 4.22222V20.8889H10.8889V4.22222C10.8889 3.60857 11.3864 3.11111 12 3.11111ZM9.77778 9.68011V20.8889L4.22222 20.8889V9.68011C4.22222 9.46281 4.28594 9.25028 4.40549 9.06883L6.07216 6.53906C6.51122 5.87263 7.48878 5.87263 7.92785 6.53906L9.59451 9.06883C9.71406 9.25028 9.77778 9.46281 9.77778 9.68011Z" fill="#0C0C0D"/>
</svg>
