<svg width="24" height="24" viewBox="0 0 24 24" fill="none" xmlns="http://www.w3.org/2000/svg">
<path d="M6 7C5.72386 7 5.5 7.22386 5.5 7.5C5.5 7.77614 5.72386 8 6 8H12C12.2761 8 12.5 7.77614 12.5 7.5C12.5 7.22386 12.2761 7 12 7H6Z" fill="#0C0C0D"/>
<path d="M5.5 10.5C5.5 10.2239 5.72386 10 6 10H12C12.2761 10 12.5 10.2239 12.5 10.5C12.5 10.7761 12.2761 11 12 11H6C5.72386 11 5.5 10.7761 5.5 10.5Z" fill="#0C0C0D"/>
<path fill-rule="evenodd" clip-rule="evenodd" d="M2.5 23H15.5C16.0523 23 16.5 22.5523 16.5 22V2C16.5 1.44772 16.0523 1 15.5 1H2.5C1.94772 1 1.5 1.44772 1.5 2V22C1.5 22.5523 1.94772 23 2.5 23ZM2.7 2.2V21.8H5.5V15C5.5 14.4477 5.94772 14 6.5 14H11.5C12.0523 14 12.5 14.4477 12.5 15V21.8H15.3V2.2H2.7ZM11.3 21.8H6.7V15.2H11.3V21.8Z" fill="#0C0C0D"/>
<path d="M19.1 7C18.7686 7 18.5 7.26863 18.5 7.6C18.5 7.93137 18.7686 8.2 19.1 8.2H19.9001V19.8H19.1C18.7686 19.8 18.5 20.0686 18.5 20.4C18.5 20.7314 18.7686 21 19.1 21H20.4964L20.5001 21L20.5038 21H21.9C22.2314 21 22.5 20.7314 22.5 20.4C22.5 20.0686 22.2314 19.8 21.9 19.8H21.1001V8.2H21.9C22.2314 8.2 22.5 7.93137 22.5 7.6C22.5 7.26863 22.2314 7 21.9 7H19.1Z" fill="#0C0C0D"/>
</svg>
