<svg width="24" height="24" viewBox="0 0 24 24" fill="none" xmlns="http://www.w3.org/2000/svg">
<path d="M4.77778 4.22222C4.47095 4.22222 4.22222 4.47095 4.22222 4.77778C4.22222 5.0846 4.47095 5.33333 4.77778 5.33333H7.55556C7.86238 5.33333 8.11111 5.0846 8.11111 4.77778C8.11111 4.47095 7.86238 4.22222 7.55556 4.22222H4.77778Z" fill="#0C0C0D"/>
<path d="M9.77778 4.77778C9.77778 4.47095 10.0265 4.22222 10.3333 4.22222H11.4444C11.7513 4.22222 12 4.47095 12 4.77778C12 5.0846 11.7513 5.33333 11.4444 5.33333H10.3333C10.0265 5.33333 9.77778 5.0846 9.77778 4.77778Z" fill="#0C0C0D"/>
<path fill-rule="evenodd" clip-rule="evenodd" d="M16.4444 13.1111C16.4444 15.5657 14.4546 17.5556 12 17.5556C9.5454 17.5556 7.55556 15.5657 7.55556 13.1111C7.55556 10.6565 9.5454 8.66667 12 8.66667C14.4546 8.66667 16.4444 10.6565 16.4444 13.1111ZM14.9314 14.6992C14.3671 15.7387 13.266 16.4444 12 16.4444C10.2157 16.4444 8.75881 15.0425 8.67087 13.28C9.13284 12.6523 9.63309 12.4167 10.0556 12.4167C10.5079 12.4167 11.0495 12.6869 11.5378 13.4193C12.1606 14.3535 13.0079 14.9166 13.9445 14.9166C14.2876 14.9166 14.6189 14.841 14.9314 14.6992ZM15.3291 12.9422C14.8672 13.5699 14.3669 13.8055 13.9444 13.8055C13.4921 13.8055 12.9505 13.5353 12.4623 12.8029C11.8394 11.8687 10.9921 11.3056 10.0556 11.3056C9.71238 11.3056 9.38117 11.3812 9.06859 11.523C9.63294 10.4835 10.7341 9.77778 12 9.77778C13.7843 9.77778 15.2411 11.1797 15.3291 12.9422Z" fill="#0C0C0D"/>
<path fill-rule="evenodd" clip-rule="evenodd" d="M12 19.7778C15.6819 19.7778 18.6667 16.793 18.6667 13.1111C18.6667 9.42921 15.6819 6.44444 12 6.44444C8.3181 6.44444 5.33333 9.42921 5.33333 13.1111C5.33333 16.793 8.3181 19.7778 12 19.7778ZM12 18.6667C15.0682 18.6667 17.5556 16.1794 17.5556 13.1111C17.5556 10.0429 15.0682 7.55556 12 7.55556C8.93175 7.55556 6.44444 10.0429 6.44444 13.1111C6.44444 16.1794 8.93175 18.6667 12 18.6667Z" fill="#0C0C0D"/>
<path fill-rule="evenodd" clip-rule="evenodd" d="M2 4.22222C2 2.99492 2.99492 2 4.22222 2H19.7778C21.0051 2 22 2.99492 22 4.22222V19.7778C22 21.0051 21.0051 22 19.7778 22H4.22222C2.99492 22 2 21.0051 2 19.7778V4.22222ZM4.22222 3.11111H19.7778C20.3914 3.11111 20.8889 3.60857 20.8889 4.22222V19.7778C20.8889 20.3914 20.3914 20.8889 19.7778 20.8889H4.22222C3.60857 20.8889 3.11111 20.3914 3.11111 19.7778V4.22222C3.11111 3.60857 3.60857 3.11111 4.22222 3.11111Z" fill="#0C0C0D"/>
</svg>
