<svg width="24" height="24" viewBox="0 0 24 24" fill="none" xmlns="http://www.w3.org/2000/svg">
<path fill-rule="evenodd" clip-rule="evenodd" d="M11.4706 9.33333C12.991 9.33333 14.2235 8.03993 14.2235 6.44444C14.2235 4.84896 12.991 3.55556 11.4706 3.55556C9.95018 3.55556 8.71765 4.84896 8.71765 6.44444C8.71765 8.03993 9.95018 9.33333 11.4706 9.33333ZM11.4706 10.8889C13.8097 10.8889 15.7059 8.89904 15.7059 6.44444C15.7059 3.98985 13.8097 2 11.4706 2C9.1315 2 7.23529 3.98985 7.23529 6.44444C7.23529 8.89904 9.1315 10.8889 11.4706 10.8889Z" fill="#0C0C0D"/>
<path d="M17.7606 20.0247H16.0054C15.928 20.0247 15.8634 19.9976 15.8118 19.948C15.7602 19.8984 15.7301 19.8308 15.7301 19.7496C15.7301 19.6774 15.7559 19.6143 15.8118 19.5602C15.8634 19.5061 15.928 19.479 16.0054 19.479H16.5905V17.2421H16.0656C15.9882 17.2421 15.9237 17.2151 15.872 17.1609C15.8204 17.1113 15.7946 17.0437 15.7946 16.9625C15.7946 16.8858 15.8204 16.8227 15.8763 16.7686C15.928 16.7145 15.9925 16.6874 16.0656 16.6874H16.883C16.9777 16.6874 17.0508 16.719 17.0981 16.7821C17.1454 16.8453 17.1712 16.9309 17.1712 17.0347V19.4745H17.7563C17.8337 19.4745 17.8983 19.5016 17.9499 19.5557C18.0015 19.6098 18.0273 19.6729 18.0273 19.7451C18.0273 19.8263 18.0015 19.8939 17.9499 19.9435C17.9026 20.0021 17.838 20.0247 17.7606 20.0247ZM16.741 15.8892C16.5991 15.8892 16.4829 15.8396 16.384 15.7358C16.2807 15.6321 16.2291 15.5103 16.2291 15.3615C16.2291 15.2127 16.2807 15.0864 16.3797 14.9827C16.4786 14.879 16.5991 14.8294 16.7367 14.8294C16.8787 14.8294 16.9949 14.879 17.0938 14.9827C17.1928 15.0864 17.2401 15.2127 17.2401 15.3615C17.2401 15.5103 17.1928 15.6321 17.0938 15.7358C16.9992 15.8396 16.8787 15.8892 16.741 15.8892ZM16.7669 22C17.3476 22 17.894 21.8827 18.4016 21.6527C18.9092 21.4227 19.3653 21.098 19.7524 20.6921C20.1439 20.2818 20.4493 19.8082 20.6687 19.2761C20.8881 18.7394 21 18.1666 21 17.5623C21 16.9535 20.8881 16.3807 20.6687 15.8486C20.4493 15.3119 20.1396 14.8384 19.7524 14.4325C19.3653 14.0131 18.9135 13.6929 18.4016 13.4584C17.8897 13.2284 17.3433 13.1111 16.7626 13.1111C16.1861 13.1111 15.6397 13.2284 15.1278 13.4584C14.6159 13.6929 14.1685 14.0131 13.777 14.4235C13.3898 14.8294 13.0844 15.3029 12.8607 15.8396C12.637 16.3762 12.5294 16.949 12.5294 17.5533C12.5294 18.1621 12.6413 18.7349 12.8607 19.267C13.0801 19.7992 13.3898 20.2772 13.7813 20.6876C14.1728 21.098 14.6245 21.4182 15.1321 21.6482C15.6397 21.8782 16.1904 22 16.7669 22Z" fill="#0C0C0D"/>
<path d="M13.0832 13.5632C13.6071 13.0311 14.2355 12.6115 14.9328 12.3416C14.2576 12.1196 13.5391 12 12.7941 12H10.1471C6.30061 12 3.16386 15.1886 3.00622 19.1844C3.00615 19.1861 3.00478 19.1875 3.00311 19.1875C3.00139 19.1875 3 19.189 3 19.1908V19.5C3 19.5432 3.00104 19.5862 3.00311 19.6288C3.02205 20.0205 3.1269 20.3884 3.29827 20.7122C3.70485 21.4801 4.48583 22 5.38235 22H13.5877C13.0506 21.5766 12.5928 21.0484 12.2418 20.4444H5.38235C4.8853 20.4444 4.48235 20.0216 4.48235 19.5V19.3269C4.48461 19.301 4.48626 19.2749 4.4873 19.2487C4.6122 16.0828 7.09876 13.5556 10.1471 13.5556H12.7941C12.8911 13.5556 12.9875 13.5581 13.0832 13.5632Z" fill="#0C0C0D"/>
</svg>
