<svg width="24" height="24" viewBox="0 0 24 24" fill="none" xmlns="http://www.w3.org/2000/svg">
<path d="M14.2222 12C14.2222 13.2273 13.2273 14.2222 12 14.2222C10.7727 14.2222 9.77778 13.2273 9.77778 12C9.77778 10.7727 10.7727 9.77778 12 9.77778C13.2273 9.77778 14.2222 10.7727 14.2222 12Z" fill="#0C0C0D"/>
<path fill-rule="evenodd" clip-rule="evenodd" d="M12 22C17.5228 22 22 17.5228 22 12C22 6.47715 17.5228 2 12 2C6.47715 2 2 6.47715 2 12C2 17.5228 6.47715 22 12 22ZM20.4091 11.2222H18.3333C17.9038 11.2222 17.5556 11.5704 17.5556 12C17.5556 12.4295 17.9038 12.7778 18.3333 12.7778H20.4091C20.0399 16.8208 16.8208 20.0399 12.7778 20.4091V18.3333C12.7778 17.9038 12.4296 17.5556 12 17.5556C11.5705 17.5556 11.2222 17.9038 11.2222 18.3333V20.4091C7.17919 20.0399 3.9601 16.8208 3.5909 12.7778H5.66667C6.09622 12.7778 6.44444 12.4295 6.44444 12C6.44444 11.5704 6.09622 11.2222 5.66667 11.2222H3.5909C3.96011 7.17918 7.1792 3.9601 11.2222 3.5909V5.66667C11.2222 6.09622 11.5705 6.44444 12 6.44444C12.4296 6.44444 12.7778 6.09622 12.7778 5.66667V3.5909C16.8208 3.96011 20.0399 7.17919 20.4091 11.2222Z" fill="#0C0C0D"/>
</svg>
