<svg width="24" height="24" viewBox="0 0 24 24" fill="none" xmlns="http://www.w3.org/2000/svg">
<path d="M3 5.75385C3 5.33751 3.33184 5 3.74118 5H20.2588C20.6682 5 21 5.33751 21 5.75385C21 6.17018 20.6682 6.50769 20.2588 6.50769H3.74118C3.33184 6.50769 3 6.17018 3 5.75385Z" fill="#0C0C0D"/>
<path d="M3 12C3 11.5837 3.33184 11.2462 3.74118 11.2462H20.2588C20.6682 11.2462 21 11.5837 21 12C21 12.4163 20.6682 12.7538 20.2588 12.7538H3.74118C3.33184 12.7538 3 12.4163 3 12Z" fill="#0C0C0D"/>
<path d="M3.74118 17.4923C3.33184 17.4923 3 17.8298 3 18.2462C3 18.6625 3.33184 19 3.74118 19H20.2588C20.6682 19 21 18.6625 21 18.2462C21 17.8298 20.6682 17.4923 20.2588 17.4923H3.74118Z" fill="#0C0C0D"/>
</svg>
