<svg width="24" height="24" viewBox="0 0 24 24" fill="none" xmlns="http://www.w3.org/2000/svg">
<path fill-rule="evenodd" clip-rule="evenodd" d="M12.5064 7.7368C12.2706 8.10765 11.7294 8.10765 11.4936 7.7368L10.5925 6.31916C10.4428 6.08358 10.2637 5.86061 10.0547 5.65497C8.591 4.21501 6.23784 4.21501 4.77418 5.65497C3.99458 6.42194 3.64934 7.27433 3.64707 8.13506C3.64478 9.00546 3.99499 10.0203 4.86375 11.0734L12 19.0144L19.1362 11.0734C20.005 10.0203 20.3552 9.00546 20.3529 8.13506C20.3507 7.27433 20.0054 6.42194 19.2258 5.65497C17.7621 4.21501 15.409 4.21501 13.9453 5.65497C13.7363 5.86061 13.5572 6.08358 13.4075 6.31916L12.5064 7.7368ZM20.4069 12.076L12.6343 20.7251C12.3049 21.0916 11.6951 21.0916 11.3657 20.7251L3.59311 12.076C1.45531 9.50503 1.48266 6.63347 3.59311 4.5572C5.59293 2.58977 8.77014 2.48664 10.8934 4.2478C11.0109 4.34523 11.1251 4.44836 11.2357 4.5572C11.5321 4.84878 11.7869 5.16579 12 5.5011C12.2131 5.16579 12.4679 4.84878 12.7643 4.5572C12.8749 4.44836 12.9891 4.34523 13.1066 4.2478C15.2299 2.48664 18.4071 2.58977 20.4069 4.5572C22.5173 6.63347 22.5447 9.50503 20.4069 12.076Z" fill="#0C0C0D"/>
</svg>
