<svg width="24" height="24" viewBox="0 0 24 24" fill="none" xmlns="http://www.w3.org/2000/svg">
<path d="M9.33657 11.6541C9.61444 11.513 9.72706 11.1697 9.58813 10.8874C9.4492 10.6052 9.11133 10.4907 8.83346 10.6319C8.18565 10.9609 7.61767 11.4944 7.41915 12.2003C7.20913 12.947 7.45558 13.7244 8.12476 14.4042C8.58057 14.8672 8.61537 15.2328 8.54415 15.486C8.46142 15.7802 8.18565 16.1038 7.70845 16.3462C7.43059 16.4873 7.31796 16.8306 7.4569 17.1128C7.59583 17.3951 7.93371 17.5095 8.21157 17.3684C8.85937 17.0393 9.42735 16.5058 9.62586 15.8C9.83589 15.0532 9.58945 14.2759 8.92026 13.5961C8.46445 13.133 8.42964 12.7675 8.50087 12.5143C8.5836 12.2201 8.85937 11.8965 9.33657 11.6541Z" fill="#0C0C0D"/>
<path d="M13.0656 10.8874C13.2045 11.1697 13.0919 11.513 12.8141 11.6541C12.3368 11.8965 12.0611 12.2201 11.9783 12.5143C11.9071 12.7675 11.9419 13.133 12.3977 13.5961C13.0669 14.2759 13.3134 15.0532 13.1033 15.8C12.9048 16.5058 12.3369 17.0393 11.6891 17.3684C11.4112 17.5095 11.0733 17.3951 10.9344 17.1128C10.7954 16.8306 10.9081 16.4873 11.1859 16.3462C11.6631 16.1038 11.9389 15.7802 12.0216 15.486C12.0929 15.2328 12.0581 14.8672 11.6022 14.4042C10.9331 13.7244 10.6866 12.947 10.8966 12.2003C11.0952 11.4944 11.6631 10.9609 12.3109 10.6319C12.5888 10.4907 12.9267 10.6052 13.0656 10.8874Z" fill="#0C0C0D"/>
<path d="M16.2916 11.6541C16.5694 11.513 16.6821 11.1697 16.5431 10.8874C16.4042 10.6052 16.0663 10.4907 15.7885 10.6319C15.1407 10.9609 14.5727 11.4944 14.3741 12.2003C14.1641 12.947 14.4106 13.7244 15.0798 14.4042C15.5356 14.8672 15.5704 15.2328 15.4991 15.486C15.4164 15.7802 15.1406 16.1038 14.6634 16.3462C14.3856 16.4873 14.273 16.8306 14.4119 17.1128C14.5508 17.3951 14.8887 17.5095 15.1666 17.3684C15.8144 17.0393 16.3823 16.5058 16.5809 15.8C16.7909 15.0532 16.5444 14.2759 15.8753 13.5961C15.4194 13.133 15.3846 12.7675 15.4559 12.5143C15.5386 12.2201 15.8144 11.8965 16.2916 11.6541Z" fill="#0C0C0D"/>
<path fill-rule="evenodd" clip-rule="evenodd" d="M21 9.42857C21 8.70913 20.6666 8.03167 20.1 7.6L13.35 2.45714C12.55 1.84762 11.45 1.84762 10.65 2.45714L3.9 7.6C3.33344 8.03167 3 8.70913 3 9.42857V19.7143C3 20.9767 4.00736 22 5.25 22H18.75C19.9926 22 21 20.9767 21 19.7143V9.42857ZM12.675 3.37143L19.425 8.51429C19.7083 8.73012 19.875 9.06885 19.875 9.42857V19.7143C19.875 20.3455 19.3713 20.8571 18.75 20.8571H5.25C4.62868 20.8571 4.125 20.3455 4.125 19.7143V9.42857C4.125 9.06885 4.29172 8.73012 4.575 8.51429L11.325 3.37143C11.725 3.06667 12.275 3.06667 12.675 3.37143Z" fill="#0C0C0D"/>
</svg>
