<svg width="24" height="24" viewBox="0 0 24 24" fill="none" xmlns="http://www.w3.org/2000/svg">
<path fill-rule="evenodd" clip-rule="evenodd" d="M11.3016 20.5573C11.6854 20.6043 12 20.9134 12 21.3C12 21.6866 11.6854 22.0035 11.3005 21.9666C8.09117 21.6591 5.38618 19.2541 4.17743 15.9187C2.92762 15.6137 2 14.4866 2 13.1429V10.8571C2 9.51341 2.92762 8.38633 4.17743 8.08135C5.47306 4.50615 8.48776 2 12 2C15.5122 2 18.5269 4.50615 19.8226 8.08135C21.0724 8.38633 22 9.51341 22 10.8571V13.1429C22 14.7208 20.7208 16 19.1429 16C17.9594 16 17 15.0406 17 13.8571V10.1429C17 9.23774 17.5612 8.4637 18.3546 8.14965C17.156 5.2636 14.6635 3.4 12 3.4C9.33648 3.4 6.84401 5.2636 5.64545 8.14965C6.43884 8.4637 7 9.23774 7 10.1429V13.8571C7 14.7623 6.43884 15.5363 5.64545 15.8503C6.73854 18.4825 8.90786 20.2641 11.3016 20.5573ZM5.6 10.1429V13.8571C5.6 14.2674 5.26741 14.6 4.85714 14.6C4.05239 14.6 3.4 13.9476 3.4 13.1429V10.8571C3.4 10.0524 4.05239 9.4 4.85714 9.4C5.26741 9.4 5.6 9.73259 5.6 10.1429ZM20.6 10.8571V13.1429C20.6 13.9476 19.9476 14.6 19.1429 14.6C18.7326 14.6 18.4 14.2674 18.4 13.8571V10.1429C18.4 9.73259 18.7326 9.4 19.1429 9.4C19.9476 9.4 20.6 10.0524 20.6 10.8571Z" fill="#0C0C0D"/>
<path d="M12.1308 9.59062C12.1308 9.20403 11.8174 8.89062 11.4308 8.89062C11.0442 8.89062 10.7308 9.20403 10.7308 9.59062V12.7094C10.7308 13.4826 11.3576 14.1094 12.1308 14.1094L12.5692 14.1094C12.9558 14.1094 13.2692 13.796 13.2692 13.4094C13.2692 13.0228 12.9558 12.7094 12.5692 12.7094H12.1308V9.59062Z" fill="#0C0C0D"/>
<path d="M8.8 9C9.1866 9 9.5 9.3134 9.5 9.7V11.1C9.5 11.4866 9.1866 11.8 8.8 11.8C8.4134 11.8 8.1 11.4866 8.1 11.1V9.7C8.1 9.3134 8.4134 9 8.8 9Z" fill="#0C0C0D"/>
<path d="M15.2 9C15.5866 9 15.9 9.3134 15.9 9.7V11.1C15.9 11.4866 15.5866 11.8 15.2 11.8C14.8134 11.8 14.5 11.4866 14.5 11.1V9.7C14.5 9.3134 14.8134 9 15.2 9Z" fill="#0C0C0D"/>
<path d="M9.00501 14.505C9.27838 14.2316 9.7216 14.2316 9.99496 14.505L10.0539 14.5643C10.2138 14.7259 10.3619 14.8755 10.6092 15.01C10.8782 15.1561 11.3026 15.3 12 15.3C12.6974 15.3 13.1218 15.1561 13.3907 15.01C13.6381 14.8755 13.7862 14.7259 13.9461 14.5643L14.005 14.505C14.2784 14.2316 14.7216 14.2316 14.995 14.505C15.2683 14.7784 15.2683 15.2216 14.995 15.495C14.9797 15.5102 14.9629 15.5274 14.9444 15.5462C14.783 15.711 14.4984 16.0014 14.0592 16.24C13.5615 16.5105 12.9026 16.7 12 16.7C11.0974 16.7 10.4384 16.5105 9.94073 16.24C9.5016 16.0014 9.217 15.711 9.05554 15.5462C9.03711 15.5274 9.02028 15.5102 9.00501 15.495C8.73165 15.2216 8.73165 14.7784 9.00501 14.505Z" fill="#0C0C0D"/>
</svg>
