<svg width="24" height="24" viewBox="0 0 24 24" fill="none" xmlns="http://www.w3.org/2000/svg">
<path d="M12.0009 3.39023C11.1618 2.82898 10.0572 2.87707 9.26971 3.50915L2.86913 8.64659C2.31979 9.08752 2 9.75508 2 10.4609V18.6765C2 19.9598 3.03681 21 4.31579 21H17.4737C17.8806 21 18.2105 20.669 18.2105 20.2607C18.2105 19.8524 17.8806 19.5214 17.4737 19.5214H4.31579C3.8507 19.5214 3.47368 19.1432 3.47368 18.6765V10.4609C3.47368 10.2042 3.58997 9.9615 3.78973 9.80116L10.1903 4.66372C10.4767 4.43387 10.8784 4.41638 11.1835 4.62047L16.5386 8.2024C16.8772 8.42888 17.3347 8.33708 17.5604 7.99736C17.7862 7.65764 17.6947 7.19864 17.3561 6.97216L12.0009 3.39023Z" fill="#0C0C0D"/>
<path fill-rule="evenodd" clip-rule="evenodd" d="M12.9474 13.3091C12.9474 11.1406 14.6995 9.38268 16.8609 9.38268C19.0222 9.38268 20.7744 11.1406 20.7744 13.3091C20.7744 14.1571 20.5062 14.9428 20.0505 15.5848L21.8092 17.3493C22.0636 17.6046 22.0636 18.0185 21.8092 18.2738C21.5547 18.5291 21.1421 18.5291 20.8877 18.2738L19.129 16.5093C18.4892 16.9665 17.706 17.2356 16.8609 17.2356C14.6995 17.2356 12.9474 15.4777 12.9474 13.3091ZM16.8609 10.6901C15.4192 10.6901 14.2505 11.8627 14.2505 13.3091C14.2505 14.7556 15.4192 15.9281 16.8609 15.9281C18.3025 15.9281 19.4712 14.7556 19.4712 13.3091C19.4712 11.8627 18.3025 10.6901 16.8609 10.6901Z" fill="#0C0C0D"/>
<path d="M10.4211 15.7194C10.4211 15.3111 10.751 14.9801 11.1579 14.9801C11.5649 14.9801 11.8948 15.3111 11.8948 15.7194V19.5214H10.4211V15.7194Z" fill="#0C0C0D"/>
</svg>
