<svg width="24" height="24" viewBox="0 0 24 24" fill="none" xmlns="http://www.w3.org/2000/svg">
<path d="M9.6312 2.53744C10.4578 1.87024 11.6174 1.81947 12.4982 2.41191L18.1197 6.19283C18.4751 6.4319 18.5711 6.91639 18.3342 7.27499C18.0972 7.63358 17.617 7.73048 17.2616 7.49142L11.6401 3.7105C11.3198 3.49507 10.8982 3.51353 10.5976 3.75615L3.87872 9.179C3.66903 9.34825 3.54696 9.60448 3.54696 9.87541V18.5475C3.54696 19.04 3.94273 19.4393 4.43094 19.4393H18.2431C18.6703 19.4393 19.0166 19.7887 19.0166 20.2196C19.0166 20.6506 18.6703 21 18.2431 21H4.43094C3.08837 21 2 19.902 2 18.5475V9.87541C2 9.13037 2.33569 8.42572 2.91234 7.96029L9.6312 2.53744Z" fill="#0C0C0D"/>
<path fill-rule="evenodd" clip-rule="evenodd" d="M17.5 16.6C19.2121 16.6 20.6 15.2121 20.6 13.5C20.6 11.7879 19.2121 10.4 17.5 10.4C15.7879 10.4 14.4 11.7879 14.4 13.5C14.4 15.2121 15.7879 16.6 17.5 16.6ZM17.5 18C19.9853 18 22 15.9853 22 13.5C22 11.0147 19.9853 9 17.5 9C15.0147 9 13 11.0147 13 13.5C13 15.9853 15.0147 18 17.5 18Z" fill="#0C0C0D"/>
<path fill-rule="evenodd" clip-rule="evenodd" d="M17.0588 13.3818L15.7595 13.9503C15.456 14.0832 15.3175 14.4369 15.4504 14.7405C15.5832 15.0441 15.937 15.1825 16.2406 15.0497L17.8394 14.35C18.0941 14.2386 18.2587 13.9869 18.2588 13.7088L18.2589 11.7815C18.2589 11.4501 17.9903 11.1815 17.6589 11.1815C17.3275 11.1814 17.0589 11.4501 17.0589 11.7814L17.0588 13.3818Z" fill="#0C0C0D"/>
</svg>
