<svg width="24" height="24" viewBox="0 0 24 24" fill="none" xmlns="http://www.w3.org/2000/svg">
<path fill-rule="evenodd" clip-rule="evenodd" d="M10.4828 2.51689C11.3819 1.8277 12.6181 1.8277 13.5172 2.51689L20.9885 8.24376C21.6253 8.73184 22 9.49784 22 10.3113V19.4156C22 20.8429 20.8678 22 19.4713 22H4.52874C3.13215 22 2 20.8429 2 19.4156V10.3113C2 9.49784 2.37474 8.73184 3.01149 8.24376L10.4828 2.51689ZM12.5517 3.8326C12.2248 3.58199 11.7752 3.58199 11.4483 3.8326L3.97701 9.55947C3.74547 9.73696 3.6092 10.0155 3.6092 10.3113V19.4156C3.6092 19.9346 4.02089 20.3554 4.52874 20.3554H19.4713C19.9791 20.3554 20.3908 19.9346 20.3908 19.4156V10.3113C20.3908 10.0155 20.2545 9.73696 20.023 9.55947L12.5517 3.8326Z" fill="#0C0C0D"/>
<path d="M11.1955 16.1263C11.1955 15.6721 11.5557 15.304 12.0001 15.304C12.4444 15.304 12.8047 15.6721 12.8047 16.1263V20.3554H11.1955V16.1263Z" fill="#0C0C0D"/>
</svg>
