<svg width="24" height="24" viewBox="0 0 24 24" fill="none" xmlns="http://www.w3.org/2000/svg">
<path d="M9.63121 2.53744C10.4578 1.87024 11.6174 1.81947 12.4982 2.41191L18.1197 6.19283C18.4751 6.43189 18.5712 6.91639 18.3342 7.27499C18.0972 7.63358 17.617 7.73048 17.2616 7.49142L11.6401 3.7105C11.3198 3.49507 10.8982 3.51353 10.5976 3.75615L3.87872 9.179C3.66903 9.34825 3.54696 9.60448 3.54696 9.87541V18.5475C3.54696 19.04 3.94273 19.4393 4.43094 19.4393H18.2431C18.6703 19.4393 19.0166 19.7887 19.0166 20.2196C19.0166 20.6506 18.6703 21 18.2431 21H4.43094C3.08837 21 2 19.902 2 18.5475V9.87541C2 9.13037 2.33569 8.42572 2.91234 7.96029L9.63121 2.53744Z" fill="#0C0C0D"/>
<path fill-rule="evenodd" clip-rule="evenodd" d="M16.5338 17.6149C16.8543 17.9664 17.422 17.9664 17.7424 17.6149L21.1842 13.9235L21.192 13.9141C21.7165 13.2854 22.0018 12.5873 22 11.888C21.9981 11.1834 21.7044 10.5271 21.1619 9.9952C20.0576 8.91246 18.2722 8.91248 17.1679 9.99522L17.1611 10.0018L17.1381 10.0248L17.1151 10.0018L17.1084 9.9952C16.004 8.91246 14.2187 8.91246 13.1143 9.9952C12.5719 10.5271 12.2781 11.1834 12.2762 11.888C12.2744 12.5873 12.5597 13.2854 13.0842 13.9141L13.0921 13.9235L16.5338 17.6149ZM17.1381 10.7308C17.231 10.5852 17.3417 10.4475 17.4702 10.3206C17.4552 10.3354 17.4404 10.3504 17.4259 10.3655C17.3161 10.4797 17.2201 10.6022 17.1381 10.7308ZM16.8453 11.2129C16.8378 11.2035 16.8307 11.1936 16.8241 11.1832L16.8453 11.2129ZM13.6802 11.8916C13.6794 12.2098 13.807 12.6045 14.1602 13.0336L17.1381 16.2233L20.116 13.0336C20.4692 12.6045 20.5969 12.2098 20.596 11.8916C20.5952 11.5791 20.4715 11.2604 20.1663 10.9613C19.6105 10.4163 18.7193 10.4163 18.1634 10.9613C18.0836 11.0396 18.0154 11.1242 17.9585 11.2134L17.8239 11.4245C17.5093 11.9177 16.767 11.9177 16.4524 11.4245L16.3178 11.2134C16.2609 11.1242 16.1927 11.0396 16.1128 10.9613C15.557 10.4163 14.6657 10.4163 14.1099 10.9613C13.8048 11.2604 13.681 11.5791 13.6802 11.8916Z" fill="#0C0C0D"/>
</svg>
