<svg width="24" height="24" viewBox="0 0 24 24" fill="none" xmlns="http://www.w3.org/2000/svg">
<path d="M12.4982 2.41191C11.6174 1.81947 10.4578 1.87024 9.6312 2.53744L2.91234 7.96029C2.33569 8.42572 2 9.13037 2 9.87541V18.5475C2 19.902 3.08837 21 4.43094 21H18.2431C18.6703 21 19.0166 20.6506 19.0166 20.2196C19.0166 19.7887 18.6703 19.4393 18.2431 19.4393H4.43094C3.94273 19.4393 3.54696 19.04 3.54696 18.5475V9.87541C3.54696 9.60448 3.66903 9.34825 3.87872 9.179L10.5976 3.75615C10.8982 3.51353 11.3198 3.49507 11.6401 3.7105L17.2616 7.49142C17.617 7.73048 18.0972 7.63359 18.3342 7.27499C18.5711 6.91639 18.4751 6.4319 18.1197 6.19283L12.4982 2.41191Z" fill="#0C0C0D"/>
<path d="M20.8052 10.1948C19.6834 9.07287 18.5169 8.90646 17.9449 9.03846C17.6615 9.10386 17.4848 9.38661 17.5502 9.66999C17.6156 9.95338 17.8983 10.1301 18.1817 10.0647C18.3434 10.0274 19.1515 10.0305 20.0605 10.9395C20.9695 11.8485 20.9726 12.6566 20.9353 12.8183C20.8699 13.1017 21.0466 13.3844 21.33 13.4498C21.6134 13.5152 21.8961 13.3385 21.9615 13.0551C22.0935 12.4831 21.9271 11.3166 20.8052 10.1948Z" fill="#0C0C0D"/>
<path d="M18.2353 10.7446C18.5852 10.6279 19.2362 10.6568 19.7897 11.2103C20.3432 11.7638 20.3721 12.4148 20.2554 12.7647C20.1635 13.0406 19.8652 13.1898 19.5893 13.0978C19.3134 13.0058 19.1643 12.7076 19.2563 12.4317C19.2563 12.4317 19.256 12.4318 19.2563 12.4293C19.2591 12.4027 19.2812 12.1913 19.045 11.955C18.8087 11.7188 18.5973 11.7409 18.5707 11.7437C18.5681 11.744 18.5683 11.7437 18.5683 11.7437C18.2924 11.8357 17.9942 11.6866 17.9022 11.4107C17.8102 11.1348 17.9594 10.8365 18.2353 10.7446Z" fill="#0C0C0D"/>
<path fill-rule="evenodd" clip-rule="evenodd" d="M13.4951 9.77062C13.8203 9.46418 14.2517 9.29534 14.6991 9.3001C15.1533 9.30493 15.5872 9.48829 15.9073 9.8105C15.9685 9.93361 15.9057 9.8089 15.9379 9.84333L15.9485 9.85566L15.9577 9.86688L15.9685 9.88047L15.9925 9.91105L16.0666 10.0064C16.1264 10.0836 16.205 10.1853 16.283 10.2864L16.5749 10.6648C16.5749 10.6648 16.5569 10.6451 16.5477 10.6354L16.5749 10.6648L15.5066 11.5721L15.1748 11.1419C15.0969 11.041 15.019 10.9401 14.96 10.864L14.8929 10.7776C14.9002 10.7838 14.9073 10.7903 14.9141 10.7971C14.8981 10.7811 14.8865 10.7677 14.8842 10.7651L14.8748 10.7541L14.8691 10.7472C14.8691 10.7472 14.8691 10.7472 14.8704 10.7488L14.8888 10.7724L14.8929 10.7776C14.8347 10.7285 14.7609 10.7008 14.6842 10.7C14.5978 10.6991 14.5146 10.7322 14.4523 10.7922L14.4393 10.8048L14.0709 11.1253C14.0779 11.1174 14.0851 11.1096 14.0924 11.1018L14.0709 11.1253C13.6797 11.5597 13.5871 12.1837 13.8422 12.9969C14.1033 13.8292 14.7039 14.7425 15.4893 15.5263C16.2748 16.3103 17.1877 16.9072 18.0182 17.1634C18.8292 17.4135 19.4524 17.3166 19.8883 16.9159L19.865 16.9427L19.9098 16.8957C19.9027 16.9025 19.8955 16.9092 19.8883 16.9159L20.1852 16.5739L20.2022 16.5569C20.2648 16.4941 20.3 16.409 20.3 16.3202C20.3 16.2423 20.2729 16.1672 20.2239 16.1075C20.2448 16.1235 20.2547 16.131 20.2547 16.131L20.2239 16.1075L20.2022 16.0834C20.2099 16.0911 20.2171 16.0991 20.2239 16.1075C20.1913 16.0824 20.135 16.039 20.0655 15.9855C20.0046 15.9385 19.9335 15.8837 19.8593 15.8266L19.4566 15.5166L20.3353 14.4263L20.3656 14.4544C20.3556 14.4449 20.3455 14.4355 20.3353 14.4263L20.7531 14.7479C20.9345 14.8876 21.1262 15.0352 21.1413 15.0476L21.1688 15.0701L21.1938 15.0952C21.518 15.4205 21.7 15.861 21.7 16.3202C21.7 16.7703 21.5251 17.2025 21.2128 17.5258L21.1938 17.5452C21.2002 17.5388 21.2066 17.5323 21.2128 17.5258L20.9007 17.8852L20.8773 17.9077C19.9451 18.7988 18.7175 18.8442 17.6055 18.5012C16.4995 18.16 15.3975 17.4126 14.5003 16.5173C13.603 15.6218 12.853 14.5209 12.5064 13.416C12.1585 12.3068 12.1929 11.0785 13.0723 10.143L13.0964 10.1173L13.4951 9.77062ZM13.4951 9.77062C13.4901 9.77528 13.4852 9.77997 13.4803 9.78469L13.4951 9.77062ZM17.9882 14.4406C18.3083 14.143 18.7293 13.9769 19.1671 13.9762C19.5995 13.9756 20.0159 14.1364 20.3353 14.4263L19.4566 15.5166L19.427 15.4938L19.4004 15.4686C19.338 15.4092 19.2552 15.3761 19.1691 15.3762C19.083 15.3764 19.0002 15.4096 18.938 15.4692L18.922 15.4845L17.9432 16.3094L17.5499 16.1466C16.9453 15.8963 16.3961 15.5291 15.9338 15.0659C15.4714 14.6028 15.1052 14.0529 14.8559 13.4478L14.6942 13.0552L15.5157 12.0795L15.5304 12.064C15.5902 12.0012 15.6236 11.9178 15.6237 11.8311C15.6239 11.7443 15.5907 11.6609 15.5311 11.5979L15.5066 11.5721L16.5749 10.6648C16.8641 10.9846 17.0243 11.401 17.0237 11.833C17.0231 12.2705 16.8577 12.6913 16.5609 13.0118L16.5729 12.9975L16.5443 13.0294C16.5499 13.0235 16.5554 13.0177 16.5609 13.0118L16.3295 13.2866C16.2628 13.1664 16.382 13.4142 16.3295 13.2866C16.4899 13.5758 16.69 13.8419 16.9246 14.0769C17.1589 14.3116 17.4242 14.512 17.7127 14.6728C17.5849 14.6199 17.8331 14.7399 17.7127 14.6728L17.9882 14.4406ZM17.9882 14.4406C17.9821 14.4463 17.976 14.452 17.97 14.4578L18.0029 14.4282L17.9882 14.4406Z" fill="#0C0C0D"/>
</svg>
