<svg width="24" height="24" viewBox="0 0 24 24" fill="none" xmlns="http://www.w3.org/2000/svg">
<path fill-rule="evenodd" clip-rule="evenodd" d="M2 4.5C2 3.11929 3.11929 2 4.5 2H15.75C17.1307 2 18.25 3.11929 18.25 4.5V15.75C18.25 17.1307 17.1307 18.25 15.75 18.25H4.5C3.11929 18.25 2 17.1307 2 15.75V4.5ZM4.5 3.75H15.75C16.1642 3.75 16.5 4.08579 16.5 4.5V15.75C16.5 16.1642 16.1642 16.5 15.75 16.5H4.5C4.08579 16.5 3.75 16.1642 3.75 15.75V4.5C3.75 4.08579 4.08579 3.75 4.5 3.75Z" fill="#0C0C0D"/>
<path d="M22 7.875C22 7.39175 21.6082 7 21.125 7C20.6418 7 20.25 7.39175 20.25 7.875V18.625C20.25 19.5225 19.5225 20.25 18.625 20.25H7.875C7.39175 20.25 7 20.6418 7 21.125C7 21.6082 7.39175 22 7.875 22H18.625C20.489 22 22 20.489 22 18.625V7.875Z" fill="#0C0C0D"/>
</svg>
