<svg width="24" height="24" viewBox="0 0 24 24" fill="none" xmlns="http://www.w3.org/2000/svg">
<path d="M3.18285 2.20305C2.91226 1.93232 2.47354 1.93232 2.20294 2.20305C1.93235 2.47377 1.93235 2.91271 2.20294 3.18344L20.8172 21.797C21.0877 22.0677 21.5265 22.0677 21.7971 21.797C22.0676 21.5262 22.0676 21.0873 21.7971 20.8166L3.18285 2.20305Z" fill="#0C0C0D"/>
<path d="M6.96985 4H19C20.1046 4 21 4.89543 21 6V18L20.9998 18.0299L19.6 16.6302V6C19.6 5.66863 19.3314 5.4 19 5.4H8.36985L6.96985 4Z" fill="#0C0C0D"/>
<path d="M17.0302 20L11.5201 14.49L10.0101 16L8.98995 14.99C8.44322 14.4432 7.55678 14.4432 7.01005 14.9899L4.4 17.6V7.36985L3.00022 5.97007L3 6V18C3 19.1046 3.89543 20 5 20H17.0302Z" fill="#0C0C0D"/>
<path d="M16 10.5C17.1046 10.5 18 9.60457 18 8.5C18 7.39543 17.1046 6.5 16 6.5C14.8954 6.5 14 7.39543 14 8.5C14 9.60457 14.8954 10.5 16 10.5Z" fill="#0C0C0D"/>
</svg>
