<svg width="24" height="24" viewBox="0 0 24 24" fill="none" xmlns="http://www.w3.org/2000/svg">
<path d="M7.55556 10.875C8.78286 10.875 9.77778 9.86764 9.77778 8.625C9.77778 7.38236 8.78286 6.375 7.55556 6.375C6.32826 6.375 5.33333 7.38236 5.33333 8.625C5.33333 9.86764 6.32826 10.875 7.55556 10.875Z" fill="#0C0C0D"/>
<path fill-rule="evenodd" clip-rule="evenodd" d="M2 5.25C2 4.00736 2.99492 3 4.22222 3H19.7778C21.0051 3 22 4.00736 22 5.25V18.75C22 19.9926 21.0051 21 19.7778 21H4.22222C2.99492 21 2 19.9926 2 18.75V5.25ZM4.22222 4.575H19.7778C20.146 4.575 20.4444 4.87721 20.4444 5.25V16.0613L16.9832 12.5569C16.072 11.6342 14.5946 11.6342 13.6834 12.5569L9.78895 16.5L8.6555 15.3637C8.04802 14.7486 7.06309 14.7486 6.45561 15.3637L3.55556 18.3V5.25C3.55556 4.87721 3.85403 4.575 4.22222 4.575Z" fill="#0C0C0D"/>
</svg>
