<svg width="24" height="24" viewBox="0 0 24 24" fill="none" xmlns="http://www.w3.org/2000/svg">
<path fill-rule="evenodd" clip-rule="evenodd" d="M12 22C17.5228 22 22 17.5228 22 12C22 6.47715 17.5228 2 12 2C6.47715 2 2 6.47715 2 12C2 17.5228 6.47715 22 12 22ZM12 8.83333C12.6137 8.83333 13.1111 8.33587 13.1111 7.72222C13.1111 7.10857 12.6137 6.6111 12 6.6111C11.3864 6.6111 10.8889 7.10857 10.8889 7.72222C10.8889 8.33587 11.3864 8.83333 12 8.83333ZM9.77776 9.94444C9.34821 9.94444 8.99999 10.2927 8.99999 10.7222C8.99999 11.1518 9.34821 11.5 9.77776 11.5H11.2222V15.8333H9.44444C9.01489 15.8333 8.66667 16.1816 8.66667 16.6111C8.66667 17.0407 9.01489 17.3889 9.44444 17.3889H14.5556C14.9851 17.3889 15.3333 17.0407 15.3333 16.6111C15.3333 16.1816 14.9851 15.8333 14.5556 15.8333H12.7778V10.7222C12.7778 10.5159 12.6958 10.3181 12.55 10.1722C12.4041 10.0264 12.2063 9.94444 12 9.94444H9.77776Z" fill="#0C0C0D"/>
</svg>
