<svg width="24" height="24" viewBox="0 0 24 24" fill="none" xmlns="http://www.w3.org/2000/svg">
<path d="M13.1111 7.72222C13.1111 8.33587 12.6137 8.83333 12 8.83333C11.3864 8.83333 10.8889 8.33587 10.8889 7.72222C10.8889 7.10857 11.3864 6.6111 12 6.6111C12.6137 6.6111 13.1111 7.10857 13.1111 7.72222Z" fill="#0C0C0D"/>
<path d="M8.99999 10.7222C8.99999 10.2927 9.34821 9.94444 9.77776 9.94444H12C12.2063 9.94444 12.4041 10.0264 12.55 10.1722C12.6958 10.3181 12.7778 10.5159 12.7778 10.7222V15.8333H14.5556C14.9851 15.8333 15.3333 16.1816 15.3333 16.6111C15.3333 17.0407 14.9851 17.3889 14.5556 17.3889H9.44444C9.01489 17.3889 8.66667 17.0407 8.66667 16.6111C8.66667 16.1816 9.01489 15.8333 9.44444 15.8333H11.2222V11.5H9.77776C9.34821 11.5 8.99999 11.1518 8.99999 10.7222Z" fill="#0C0C0D"/>
<path fill-rule="evenodd" clip-rule="evenodd" d="M12 22C17.5228 22 22 17.5228 22 12C22 6.47715 17.5228 2 12 2C6.47715 2 2 6.47715 2 12C2 17.5228 6.47715 22 12 22ZM12 20.4444C16.6637 20.4444 20.4444 16.6637 20.4444 12C20.4444 7.33626 16.6637 3.55556 12 3.55556C7.33626 3.55556 3.55556 7.33626 3.55556 12C3.55556 16.6637 7.33626 20.4444 12 20.4444Z" fill="#0C0C0D"/>
</svg>
