<svg width="24" height="24" viewBox="0 0 24 24" fill="none" xmlns="http://www.w3.org/2000/svg">
<path d="M11.2222 7.8889C11.2222 7.45934 11.5704 7.11112 12 7.11112H16.4444C16.874 7.11112 17.2222 7.45934 17.2222 7.8889C17.2222 8.31845 16.874 8.66667 16.4444 8.66667H12C11.5704 8.66667 11.2222 8.31845 11.2222 7.8889Z" fill="#0C0C0D"/>
<path d="M12 10.8889C11.5704 10.8889 11.2222 11.2371 11.2222 11.6667C11.2222 12.0962 11.5704 12.4444 12 12.4444H16.4444C16.874 12.4444 17.2222 12.0962 17.2222 11.6667C17.2222 11.2371 16.874 10.8889 16.4444 10.8889H12Z" fill="#0C0C0D"/>
<path fill-rule="evenodd" clip-rule="evenodd" d="M6.44444 4.22222C6.44444 2.99492 7.43937 2 8.66667 2H19.7778C21.0051 2 22 2.99492 22 4.22222V15.3333C22 16.5606 21.0051 17.5556 19.7778 17.5556H18.6667V19.7778C18.6667 21.0051 17.6717 22 16.4444 22H4.22222C2.99492 22 2 21.0051 2 19.7778V7.55556C2 6.32826 2.99492 5.33333 4.22222 5.33333H6.44444V4.22222ZM8.66667 3.55556H19.7778C20.146 3.55556 20.4444 3.85403 20.4444 4.22222V15.3333C20.4444 15.7015 20.146 16 19.7778 16H8.66667C8.29848 16 8 15.7015 8 15.3333V4.22222C8 3.85403 8.29848 3.55556 8.66667 3.55556ZM6.44444 6.88889H4.22222C3.85403 6.88889 3.55556 7.18737 3.55556 7.55556V19.7778C3.55556 20.146 3.85403 20.4444 4.22222 20.4444H16.4444C16.8126 20.4444 17.1111 20.146 17.1111 19.7778V17.5556H8.66667C7.43937 17.5556 6.44444 16.5606 6.44444 15.3333V6.88889Z" fill="#0C0C0D"/>
</svg>
