<svg width="24" height="24" viewBox="0 0 24 24" fill="none" xmlns="http://www.w3.org/2000/svg">
<path fill-rule="evenodd" clip-rule="evenodd" d="M6.44444 4.22222C6.44444 2.99492 7.43937 2 8.66667 2H19.7778C21.0051 2 22 2.99492 22 4.22222V15.3333C22 16.5606 21.0051 17.5556 19.7778 17.5556H8.66667C7.43937 17.5556 6.44444 16.5606 6.44444 15.3333V4.22222ZM11.2222 7.8889C11.2222 7.45934 11.5704 7.11112 12 7.11112H16.4444C16.874 7.11112 17.2222 7.45934 17.2222 7.8889C17.2222 8.31845 16.874 8.66667 16.4444 8.66667H12C11.5704 8.66667 11.2222 8.31845 11.2222 7.8889ZM12 10.8889C11.5704 10.8889 11.2222 11.2371 11.2222 11.6667C11.2222 12.0962 11.5704 12.4444 12 12.4444H16.4444C16.874 12.4444 17.2222 12.0962 17.2222 11.6667C17.2222 11.2371 16.874 10.8889 16.4444 10.8889H12Z" fill="#0C0C0D"/>
<path d="M4.8889 5.33333V15.3333C4.8889 17.4197 6.58026 19.1111 8.66667 19.1111H18.6667V19.7778C18.6667 21.0051 17.6717 22 16.4444 22H4.22222C2.99492 22 2 21.0051 2 19.7778V7.55556C2 6.32826 2.99492 5.33333 4.22222 5.33333H4.8889Z" fill="#0C0C0D"/>
</svg>
