<svg width="24" height="24" viewBox="0 0 24 24" fill="none" xmlns="http://www.w3.org/2000/svg">
<path d="M3.04759 9.11092C3.45647 8.59603 4.56397 7.606 6.16014 6.74458C7.74634 5.88853 9.76849 5.18519 12 5.18519C14.2315 5.18519 16.2537 5.88853 17.8399 6.74458C19.436 7.606 20.5435 8.59604 20.9524 9.11093C21.1554 9.36649 21.5255 9.40793 21.7792 9.20348C22.0329 8.99903 22.074 8.62612 21.8711 8.37055C21.3388 7.70025 20.0933 6.61621 18.3954 5.69986C16.6875 4.77813 14.4744 4 12 4C9.52564 4 7.3125 4.77813 5.60459 5.69986C3.90665 6.6162 2.66122 7.70024 2.12892 8.37054C1.92598 8.6261 1.96711 8.99902 2.22079 9.20347C2.47447 9.40792 2.84464 9.36648 3.04759 9.11092Z" fill="#0C0C0D"/>
<path d="M12 11.1111C9.2629 11.1111 7.24701 12.5892 6.53362 13.3079C6.3039 13.5393 5.93145 13.5393 5.70173 13.3079C5.47201 13.0765 5.47201 12.7013 5.70173 12.4699C6.55697 11.6083 8.85479 9.92593 12 9.92593C15.1452 9.92593 17.4431 11.6083 18.2983 12.4699C18.528 12.7013 18.528 13.0765 18.2983 13.3079C18.0686 13.5393 17.6961 13.5393 17.4664 13.3079C16.753 12.5892 14.7371 11.1111 12 11.1111Z" fill="#0C0C0D"/>
<path d="M13.7647 18.2222C13.7647 19.2041 12.9746 20 12 20C11.0254 20 10.2353 19.2041 10.2353 18.2222C10.2353 17.2404 11.0254 16.4444 12 16.4444C12.9746 16.4444 13.7647 17.2404 13.7647 18.2222Z" fill="#0C0C0D"/>
</svg>
