<svg width="24" height="24" viewBox="0 0 24 24" fill="none" xmlns="http://www.w3.org/2000/svg">
<path d="M2 10.69C2 6.4427 6.47692 3 12 3C17.5231 3 22 6.4427 22 10.69C22 14.9374 17.5231 18.3801 12 18.3801C11.4075 18.3815 10.8157 18.3423 10.2288 18.2629C10.204 18.2798 10.1741 18.3002 10.1395 18.3238C9.37021 18.8482 6.29989 20.9412 5.99808 20.9825C5.95944 20.9961 5.91836 21.0019 5.87736 20.9995C5.83636 20.997 5.79629 20.9865 5.75962 20.9684C5.65 20.9056 5.67019 20.7406 5.67019 20.7406C5.70245 20.5231 6.51262 17.7948 6.68104 17.2277L6.6875 17.206C3.87212 15.848 2 13.436 2 10.69Z" fill="#0C0C0D"/>
</svg>
