<svg width="24" height="24" viewBox="0 0 24 24" fill="none" xmlns="http://www.w3.org/2000/svg">
<path d="M12 15C14.7614 15 17 12.7614 17 10C17 7.23858 14.7614 5 12 5C9.23858 5 7 7.23858 7 10C7 12.7614 9.23858 15 12 15Z" fill="#0C0C0D"/>
<path fill-rule="evenodd" clip-rule="evenodd" d="M6.375 16.8087C4.31746 15.1817 3 12.6816 3 9.87794C3 4.97479 7.02944 1 12 1C16.9706 1 21 4.97479 21 9.87794C21 12.6816 19.6825 15.1817 17.625 16.8087V22.1119C17.625 22.6721 17.1054 23.0923 16.5485 22.9825L12.1765 22.1199C12.06 22.0969 11.94 22.0969 11.8235 22.1199L7.45151 22.9825C6.89459 23.0923 6.375 22.6721 6.375 22.1119V16.8087ZM19 9.87794C19 13.8005 15.9764 16.8087 12 16.8087C8.02355 16.8087 5 13.8005 5 9.87794C5 5.95542 8.02355 3 12 3C15.9764 3 19 5.95542 19 9.87794Z" fill="#0C0C0D"/>
</svg>
