<svg width="24" height="24" viewBox="0 0 24 24" fill="none" xmlns="http://www.w3.org/2000/svg">
<path d="M20 5.5C20 4.94772 19.5523 4.5 19 4.5H11C10.4477 4.5 10 4.94772 10 5.5V6.5C10 7.05228 10.4477 7.5 11 7.5H19C19.5523 7.5 20 7.05228 20 6.5V5.5Z" fill="#0C0C0D"/>
<path d="M8 5C8 4.44772 7.55228 4 7 4H5C4.44772 4 4 4.44772 4 5V7C4 7.55228 4.44772 8 5 8H7C7.55228 8 8 7.55228 8 7V5Z" fill="#0C0C0D"/>
<path d="M20 11.5C20 10.9477 19.5523 10.5 19 10.5H11C10.4477 10.5 10 10.9477 10 11.5V12.5C10 13.0523 10.4477 13.5 11 13.5H19C19.5523 13.5 20 13.0523 20 12.5V11.5Z" fill="#0C0C0D"/>
<path d="M8 11C8 10.4477 7.55228 10 7 10H5C4.44772 10 4 10.4477 4 11V13C4 13.5523 4.44772 14 5 14H7C7.55228 14 8 13.5523 8 13V11Z" fill="#0C0C0D"/>
<path d="M20 17.5C20 16.9477 19.5523 16.5 19 16.5H11C10.4477 16.5 10 16.9477 10 17.5V18.5C10 19.0523 10.4477 19.5 11 19.5H19C19.5523 19.5 20 19.0523 20 18.5V17.5Z" fill="#0C0C0D"/>
<path d="M8 17C8 16.4477 7.55228 16 7 16H5C4.44772 16 4 16.4477 4 17V19C4 19.5523 4.44772 20 5 20H7C7.55228 20 8 19.5523 8 19V17Z" fill="#0C0C0D"/>
</svg>
