<svg width="24" height="24" viewBox="0 0 24 24" fill="none" xmlns="http://www.w3.org/2000/svg">
<path fill-rule="evenodd" clip-rule="evenodd" d="M15 2C14.0335 2 13.25 2.7835 13.25 3.75V9C13.25 9.9665 14.0335 10.75 15 10.75H20.25C21.2165 10.75 22 9.9665 22 9V3.75C22 2.7835 21.2165 2 20.25 2H15ZM20.25 3.75H15V9H20.25V3.75Z" fill="#0C0C0D"/>
<path d="M2.875 3.37497C2.39175 3.37497 2 3.76672 2 4.24997C2 4.73322 2.39175 5.12497 2.875 5.12497H9.875C10.3582 5.12497 10.75 4.73322 10.75 4.24997C10.75 3.76672 10.3582 3.37497 9.875 3.37497H2.875Z" fill="#0C0C0D"/>
<path d="M2.875 7.625C2.39175 7.625 2 8.01675 2 8.5C2 8.98325 2.39175 9.375 2.875 9.375H9.875C10.3582 9.375 10.75 8.98325 10.75 8.5C10.75 8.01675 10.3582 7.625 9.875 7.625H2.875Z" fill="#0C0C0D"/>
<path d="M2.875 14.625C2.39175 14.625 2 15.0167 2 15.5C2 15.9832 2.39175 16.375 2.875 16.375H9.875C10.3582 16.375 10.75 15.9832 10.75 15.5C10.75 15.0167 10.3582 14.625 9.875 14.625H2.875Z" fill="#0C0C0D"/>
<path d="M2 19.75C2 19.2668 2.39175 18.875 2.875 18.875H9.875C10.3582 18.875 10.75 19.2668 10.75 19.75C10.75 20.2332 10.3582 20.625 9.875 20.625H2.875C2.39175 20.625 2 20.2332 2 19.75Z" fill="#0C0C0D"/>
<path fill-rule="evenodd" clip-rule="evenodd" d="M13.25 15C13.25 14.0335 14.0335 13.25 15 13.25H20.25C21.2165 13.25 22 14.0335 22 15V20.25C22 21.2165 21.2165 22 20.25 22H15C14.0335 22 13.25 21.2165 13.25 20.25V15ZM15 15H20.25V20.25H15V15Z" fill="#0C0C0D"/>
</svg>
