<svg width="24" height="24" viewBox="0 0 24 24" fill="none" xmlns="http://www.w3.org/2000/svg">
<path fill-rule="evenodd" clip-rule="evenodd" d="M12 11.4445C13.5533 11.4445 14.8125 10.2008 14.8125 8.66668C14.8125 7.13255 13.5533 5.88889 12 5.88889C10.4467 5.88889 9.1875 7.13255 9.1875 8.66668C9.1875 10.2008 10.4467 11.4445 12 11.4445ZM12 9.8889C12.6835 9.8889 13.2375 9.34169 13.2375 8.66668C13.2375 7.99166 12.6835 7.44445 12 7.44445C11.3165 7.44445 10.7625 7.99166 10.7625 8.66668C10.7625 9.34169 11.3165 9.8889 12 9.8889Z" fill="#0C0C0D"/>
<path fill-rule="evenodd" clip-rule="evenodd" d="M12.9732 17.8024C14.842 16.0629 18.75 12.0041 18.75 8.48149C18.75 4.90186 15.7279 2 12 2C8.27208 2 5.25 4.90186 5.25 8.48149C5.25 12.0041 9.15795 16.0629 11.0268 17.8024C11.5801 18.3174 12.4199 18.3174 12.9732 17.8024ZM15.2812 12.9059C16.4454 11.2976 17.175 9.73788 17.175 8.48149C17.175 5.80199 14.9002 3.55556 12 3.55556C9.09981 3.55556 6.825 5.80199 6.825 8.48149C6.825 9.73788 7.55463 11.2976 8.71884 12.9059C9.8018 14.4021 11.1027 15.7269 12 16.5703C12.8973 15.7269 14.1982 14.4021 15.2812 12.9059Z" fill="#0C0C0D"/>
<path d="M3.7875 20.4444C3.35258 20.4444 3 20.7927 3 21.2222C3 21.6518 3.35258 22 3.7875 22H20.2125C20.6474 22 21 21.6518 21 21.2222C21 20.7927 20.6474 20.4444 20.2125 20.4444H3.7875Z" fill="#0C0C0D"/>
</svg>
