<svg width="24" height="24" viewBox="0 0 24 24" fill="none" xmlns="http://www.w3.org/2000/svg">
<path fill-rule="evenodd" clip-rule="evenodd" d="M13.0082 21.5914C15.1585 19.5348 20 14.4117 20 9.97832C20 5.57202 16.4183 2 12 2C7.58172 2 4 5.57202 4 9.97832C4 14.4117 8.84155 19.5348 10.9918 21.5914C11.5613 22.1362 12.4387 22.1362 13.0082 21.5914ZM12 12.8277C13.578 12.8277 14.8571 11.552 14.8571 9.97832C14.8571 8.40464 13.578 7.12892 12 7.12892C10.422 7.12892 9.14286 8.40464 9.14286 9.97832C9.14286 11.552 10.422 12.8277 12 12.8277Z" fill="#0C0C0D"/>
</svg>
