<svg width="24" height="24" viewBox="0 0 24 24" fill="none" xmlns="http://www.w3.org/2000/svg">
<path fill-rule="evenodd" clip-rule="evenodd" d="M15.4286 9.97832C15.4286 11.8667 13.8935 13.3976 12 13.3976C10.1065 13.3976 8.57143 11.8667 8.57143 9.97832C8.57143 8.0899 10.1065 6.55904 12 6.55904C13.8935 6.55904 15.4286 8.0899 15.4286 9.97832ZM13.8286 9.97832C13.8286 10.9855 13.0099 11.8019 12 11.8019C10.9901 11.8019 10.1714 10.9855 10.1714 9.97832C10.1714 8.97117 10.9901 8.15471 12 8.15471C13.0099 8.15471 13.8286 8.97117 13.8286 9.97832Z" fill="#0C0C0D"/>
<path fill-rule="evenodd" clip-rule="evenodd" d="M20 9.97832C20 14.4117 15.1585 19.5348 13.0082 21.5914C12.4387 22.1362 11.5613 22.1362 10.9918 21.5914C8.84155 19.5348 4 14.4117 4 9.97832C4 5.57202 7.58172 2 12 2C16.4183 2 20 5.57202 20 9.97832ZM18.4 9.97832C18.4 11.6821 17.4363 13.7291 16.0028 15.7566C14.6506 17.6691 13.044 19.3383 12 20.3445C10.956 19.3383 9.3494 17.6691 7.99716 15.7566C6.56365 13.7291 5.6 11.6821 5.6 9.97832C5.6 6.45328 8.46538 3.59566 12 3.59566C15.5346 3.59566 18.4 6.45328 18.4 9.97832Z" fill="#0C0C0D"/>
</svg>
