<svg width="24" height="24" viewBox="0 0 24 24" fill="none" xmlns="http://www.w3.org/2000/svg">
<path d="M7.88888 3.00001C7.8601 3.0158 7.83172 3.03253 7.8038 3.05021L2.69269 6.2859C2.25993 6.55986 2 7.02108 2 7.51497V18.7359C2 19.9157 3.38467 20.6194 4.41842 19.965L7.8038 17.8218C7.83172 17.8042 7.8601 17.7874 7.88888 17.7716V3.00001Z" fill="#0C0C0D"/>
<path d="M9.44443 17.7716V3C9.47322 3.01579 9.5016 3.03253 9.52953 3.05021L14.4705 6.17817C14.4984 6.19584 14.5268 6.21258 14.5555 6.22836V21C14.5268 20.9842 14.4984 20.9675 14.4705 20.9498L9.52953 17.8218C9.5016 17.8042 9.47322 17.7874 9.44443 17.7716Z" fill="#0C0C0D"/>
<path d="M16.1111 21C16.1399 20.9842 16.1683 20.9675 16.1962 20.9498L21.3073 17.7141C21.7401 17.4401 22 16.9789 22 16.485V5.26406C22 4.08426 20.6153 3.38055 19.5816 4.03499L16.1962 6.17817C16.1683 6.19585 16.1399 6.21259 16.1111 6.22838V21Z" fill="#0C0C0D"/>
</svg>
