<svg width="24" height="24" viewBox="0 0 24 24" fill="none" xmlns="http://www.w3.org/2000/svg">
<path fill-rule="evenodd" clip-rule="evenodd" d="M2.69269 5.78759C2.25993 6.08544 2 6.58688 2 7.12385V19.3234C2 20.6061 3.38467 21.3711 4.41842 20.6596L7.8038 18.3295C8.32631 17.9699 9.00702 17.9699 9.52953 18.3295L14.4705 21.7303C14.993 22.0899 15.6737 22.0899 16.1962 21.7303L21.3073 18.2124C21.7401 17.9146 22 17.4131 22 16.8762V4.67664C22 3.39395 20.6153 2.62887 19.5816 3.34038L16.1962 5.67046C15.6737 6.03009 14.993 6.03009 14.4705 5.67046L9.52953 2.26972C9.00702 1.91009 8.32631 1.91009 7.8038 2.26972L2.69269 5.78759ZM3.55556 7.12385V19.3234L6.94093 16.9933C7.23639 16.7899 7.55714 16.6441 7.88888 16.5557V4.14132L3.55556 7.12385ZM10.3924 16.9933C10.0969 16.7899 9.77618 16.6441 9.44443 16.5557V4.1413L13.6076 7.00672C13.9031 7.21007 14.2238 7.35593 14.5555 7.4443V19.8587L10.3924 16.9933ZM16.1111 19.8587L20.4444 16.8762V4.67664L17.0591 7.00672C16.7636 7.21008 16.4428 7.35594 16.1111 7.44431V19.8587Z" fill="#0C0C0D"/>
</svg>
