<svg width="24" height="24" viewBox="0 0 24 24" fill="none" xmlns="http://www.w3.org/2000/svg">
<path fill-rule="evenodd" clip-rule="evenodd" d="M20.4927 2.39894C20.5792 2.6933 20.4108 3.00211 20.1164 3.08868L12 5.33333V6.33479L19.9865 4.75846C20.2886 4.70477 20.577 4.90613 20.6307 5.20822C20.6844 5.51031 20.4831 5.79873 20.181 5.85243L12 7.46714V8.66667H19.7778C21.0051 8.66667 22 9.66159 22 10.8889V14.2222C22 17.2905 19.5127 19.7778 16.4444 19.7778V21.2222C16.4444 21.6518 16.0962 22 15.6667 22H8.33333C7.90378 22 7.55556 21.6518 7.55556 21.2222V19.7778C4.48731 19.7778 2 17.2905 2 14.2222V10.8889C2 9.66159 2.99492 8.66667 4.22222 8.66667H5.33333V4.67011C5.33333 3.87229 5.89873 3.18636 6.68188 3.03408L10.0152 2.38593C11.0441 2.18588 12 2.97385 12 4.02196V4.18067L19.8029 2.02272C20.0973 1.93614 20.4061 2.10458 20.4927 2.39894ZM6.44444 8.66667H7.16666V4.07174L6.89396 4.12476C6.63291 4.17552 6.44444 4.40416 6.44444 4.67011V8.66667ZM8.27777 8.66667H9.05556V3.70445L8.27777 3.85569V8.66667ZM10.1667 8.66667H10.8889V4.02196C10.8889 3.67258 10.5702 3.40993 10.2273 3.47661L10.1667 3.4884V8.66667ZM4.22222 9.77778C3.60857 9.77778 3.11111 10.2752 3.11111 10.8889V14.2222C3.11111 16.6768 5.10096 18.6667 7.55556 18.6667H16.4444C18.899 18.6667 20.8889 16.6768 20.8889 14.2222V10.8889C20.8889 10.2752 20.3914 9.77778 19.7778 9.77778H4.22222ZM8.66667 20.8889V19.7778H15.3333V20.8889H8.66667Z" fill="#0C0C0D"/>
</svg>
