<svg width="24" height="24" viewBox="0 0 24 24" fill="none" xmlns="http://www.w3.org/2000/svg">
<path fill-rule="evenodd" clip-rule="evenodd" d="M12 10C12 10.9718 11.5379 11.8357 10.8215 12.3839C12.1956 12.9929 13.2078 14.2698 13.4463 15.8027C13.5057 16.1847 13.1866 16.5 12.8 16.5C12.4134 16.5 12.1082 16.1825 12.0219 15.8056C11.7067 14.4279 10.4734 13.4 9 13.4C7.52663 13.4 6.29334 14.4279 5.97806 15.8056C5.89183 16.1825 5.5866 16.5 5.2 16.5C4.8134 16.5 4.49428 16.1847 4.55371 15.8027C4.79218 14.2698 5.80439 12.9929 7.17848 12.3839C6.46207 11.8357 6 10.9718 6 10C6 8.34315 7.34315 7 9 7C10.6569 7 12 8.34315 12 10ZM9 11.6C9.88366 11.6 10.6 10.8837 10.6 10C10.6 9.11634 9.88366 8.4 9 8.4C8.11634 8.4 7.4 9.11634 7.4 10C7.4 10.8837 8.11634 11.6 9 11.6Z" fill="#0C0C0D"/>
<path d="M15.2 9.35001C14.8134 9.35001 14.5 9.66341 14.5 10.05C14.5 10.4366 14.8134 10.75 15.2 10.75H18.6069C18.9935 10.75 19.3069 10.4366 19.3069 10.05C19.3069 9.66341 18.9935 9.35001 18.6069 9.35001H15.2Z" fill="#0C0C0D"/>
<path d="M15.2 12.75C14.8134 12.75 14.5 13.0634 14.5 13.45C14.5 13.8366 14.8134 14.15 15.2 14.15H18.6069C18.9935 14.15 19.3069 13.8366 19.3069 13.45C19.3069 13.0634 18.9935 12.75 18.6069 12.75H15.2Z" fill="#0C0C0D"/>
<path fill-rule="evenodd" clip-rule="evenodd" d="M2 6C2 4.89543 2.89543 4 4 4H20C21.1046 4 22 4.89543 22 6V18C22 19.1046 21.1046 20 20 20H4C2.89543 20 2 19.1046 2 18V6ZM4 5.4H20C20.3314 5.4 20.6 5.66863 20.6 6V18C20.6 18.3314 20.3314 18.6 20 18.6H4C3.66863 18.6 3.4 18.3314 3.4 18V6C3.4 5.66863 3.66863 5.4 4 5.4Z" fill="#0C0C0D"/>
</svg>
