<svg width="24" height="24" viewBox="0 0 24 24" fill="none" xmlns="http://www.w3.org/2000/svg">
<path fill-rule="evenodd" clip-rule="evenodd" d="M2 3.75C2 2.7835 2.7835 2 3.75 2H9C9.9665 2 10.75 2.7835 10.75 3.75V9C10.75 9.9665 9.9665 10.75 9 10.75H3.75C2.7835 10.75 2 9.9665 2 9V3.75ZM3.75 3.75H9V9H3.75L3.75 3.75Z" fill="#0C0C0D"/>
<path fill-rule="evenodd" clip-rule="evenodd" d="M2 15C2 14.0335 2.7835 13.25 3.75 13.25H9C9.9665 13.25 10.75 14.0335 10.75 15V20.25C10.75 21.2165 9.9665 22 9 22H3.75C2.7835 22 2 21.2165 2 20.25V15ZM3.75 15H9V20.25H3.75L3.75 15Z" fill="#0C0C0D"/>
<path fill-rule="evenodd" clip-rule="evenodd" d="M15 13.25C14.0335 13.25 13.25 14.0335 13.25 15V20.25C13.25 21.2165 14.0335 22 15 22H20.25C21.2165 22 22 21.2165 22 20.25V15C22 14.0335 21.2165 13.25 20.25 13.25H15ZM20.25 15H15V20.25H20.25V15Z" fill="#0C0C0D"/>
<path fill-rule="evenodd" clip-rule="evenodd" d="M13.25 3.75C13.25 2.7835 14.0335 2 15 2H20.25C21.2165 2 22 2.7835 22 3.75V9C22 9.9665 21.2165 10.75 20.25 10.75H15C14.0335 10.75 13.25 9.9665 13.25 9V3.75ZM15 3.75H20.25V9H15V3.75Z" fill="#0C0C0D"/>
</svg>
