<svg width="24" height="24" viewBox="0 0 24 24" fill="none" xmlns="http://www.w3.org/2000/svg">
<path d="M4 5.4C4 4.6268 4.6268 4 5.4 4H9.6C10.3732 4 11 4.6268 11 5.4V9.6C11 10.3732 10.3732 11 9.6 11H5.4C4.6268 11 4 10.3732 4 9.6V5.4Z" fill="#0C0C0D"/>
<path d="M4 14.4C4 13.6268 4.6268 13 5.4 13H9.6C10.3732 13 11 13.6268 11 14.4V18.6C11 19.3732 10.3732 20 9.6 20H5.4C4.6268 20 4 19.3732 4 18.6V14.4Z" fill="#0C0C0D"/>
<path d="M13 14.4C13 13.6268 13.6268 13 14.4 13H18.6C19.3732 13 20 13.6268 20 14.4V18.6C20 19.3732 19.3732 20 18.6 20H14.4C13.6268 20 13 19.3732 13 18.6V14.4Z" fill="#0C0C0D"/>
<path d="M13 5.4C13 4.6268 13.6268 4 14.4 4H18.6C19.3732 4 20 4.6268 20 5.4V9.6C20 10.3732 19.3732 11 18.6 11H14.4C13.6268 11 13 10.3732 13 9.6V5.4Z" fill="#0C0C0D"/>
</svg>
