<svg width="24" height="24" viewBox="0 0 24 24" fill="none" xmlns="http://www.w3.org/2000/svg">
<path d="M2.19987 5.33699L10.3501 13.72C11.2613 14.6573 12.7387 14.6573 13.6499 13.72L21.8001 5.33696C21.9285 5.62595 22 5.94724 22 6.28571V17.7143C22 18.9767 21.0051 20 19.7778 20H4.22222C2.99492 20 2 18.9767 2 17.7143V6.28571C2 5.94725 2.07152 5.62597 2.19987 5.33699Z" fill="#0C0C0D"/>
<path d="M3.2998 4.2056C3.58077 4.07357 3.89314 4 4.22222 4H19.7778C20.1068 4 20.4192 4.07357 20.7002 4.20559L12.55 12.5887C12.2462 12.9011 11.7538 12.9011 11.45 12.5887L3.2998 4.2056Z" fill="#0C0C0D"/>
</svg>
