<svg width="24" height="24" viewBox="0 0 24 24" fill="none" xmlns="http://www.w3.org/2000/svg">
<path fill-rule="evenodd" clip-rule="evenodd" d="M2 6.28571C2 5.02335 2.99492 4 4.22222 4H19.7778C21.0051 4 22 5.02335 22 6.28571V17.7143C22 18.9767 21.0051 20 19.7778 20H4.22222C2.99492 20 2 18.9767 2 17.7143V6.28571ZM19.3445 5.6H4.6555L11.45 12.5887C11.7538 12.9011 12.2462 12.9011 12.55 12.5887L19.3445 5.6ZM3.55556 6.73137V17.7143C3.55556 18.093 3.85403 18.4 4.22222 18.4H19.7778C20.146 18.4 20.4444 18.093 20.4444 17.7143V6.73139L13.6499 13.72C12.7387 14.6573 11.2613 14.6573 10.3501 13.72L3.55556 6.73137Z" fill="#0C0C0D"/>
</svg>
