<svg width="24" height="24" viewBox="0 0 24 24" fill="none" xmlns="http://www.w3.org/2000/svg">
<path d="M6.0375 2C4.35994 2 3 3.34315 3 5V6.44444H21V5C21 3.34315 19.6401 2 17.9625 2H6.0375Z" fill="#0C0C0D"/>
<path d="M21 8H12.7875L12.7875 11.5555H21V8Z" fill="#0C0C0D"/>
<path fill-rule="evenodd" clip-rule="evenodd" d="M21 13.1111H3V18.3333C3 18.7629 3.35258 19.1111 3.7875 19.1111H6.17656L5.13723 20.8219C4.91346 21.1903 5.03439 21.668 5.40734 21.889C5.78028 22.11 6.26401 21.9906 6.48778 21.6223L8.0133 19.1111H15.9867L17.5122 21.6223C17.736 21.9906 18.2197 22.11 18.5927 21.889C18.9656 21.668 19.0865 21.1903 18.8628 20.8219L17.8234 19.1111H20.2125C20.6474 19.1111 21 18.7629 21 18.3333V13.1111ZM7.725 14.5555C7.29008 14.5555 6.9375 14.9038 6.9375 15.3333C6.9375 15.7629 7.29008 16.1111 7.725 16.1111H9.525C9.95992 16.1111 10.3125 15.7629 10.3125 15.3333C10.3125 14.9038 9.95992 14.5555 9.525 14.5555H7.725ZM13.6875 15.3333C13.6875 14.9038 14.0401 14.5555 14.475 14.5555H16.275C16.7099 14.5555 17.0625 14.9038 17.0625 15.3333C17.0625 15.7629 16.7099 16.1111 16.275 16.1111H14.475C14.0401 16.1111 13.6875 15.7629 13.6875 15.3333Z" fill="#0C0C0D"/>
<path d="M3 11.5555H11.2125V8H3V11.5555Z" fill="#0C0C0D"/>
</svg>
