<svg width="24" height="24" viewBox="0 0 24 24" fill="none" xmlns="http://www.w3.org/2000/svg">
<path d="M7.725 14.5555C7.29008 14.5555 6.9375 14.9038 6.9375 15.3333C6.9375 15.7629 7.29008 16.1111 7.725 16.1111H9.525C9.95992 16.1111 10.3125 15.7629 10.3125 15.3333C10.3125 14.9038 9.95992 14.5555 9.525 14.5555H7.725Z" fill="#0C0C0D"/>
<path d="M13.6875 15.3333C13.6875 14.9038 14.0401 14.5555 14.475 14.5555H16.275C16.7099 14.5555 17.0625 14.9038 17.0625 15.3333C17.0625 15.7629 16.7099 16.1111 16.275 16.1111H14.475C14.0401 16.1111 13.6875 15.7629 13.6875 15.3333Z" fill="#0C0C0D"/>
<path fill-rule="evenodd" clip-rule="evenodd" d="M3 5C3 3.34315 4.35994 2 6.0375 2H17.9625C19.6401 2 21 3.34315 21 5V18.3333C21 18.7629 20.6474 19.1111 20.2125 19.1111H17.8234L18.8628 20.8219C19.0865 21.1903 18.9656 21.668 18.5927 21.889C18.2197 22.11 17.736 21.9906 17.5122 21.6223L15.9867 19.1111H8.0133L6.48778 21.6223C6.26401 21.9906 5.78028 22.11 5.40734 21.889C5.03439 21.668 4.91346 21.1903 5.13723 20.8219L6.17656 19.1111H3.7875C3.35258 19.1111 3 18.7629 3 18.3333V5ZM6.0375 3.55556C5.22978 3.55556 4.575 4.20225 4.575 5V6.44444H19.425V5C19.425 4.20226 18.7702 3.55556 17.9625 3.55556H6.0375ZM19.425 8H12.7875V11.5555H19.425V8ZM19.425 13.1111H4.575V17.5556H19.425V13.1111ZM4.575 11.5555H11.2125L11.2125 8H4.575V11.5555Z" fill="#0C0C0D"/>
</svg>
