<svg width="24" height="24" viewBox="0 0 24 24" fill="none" xmlns="http://www.w3.org/2000/svg">
<path fill-rule="evenodd" clip-rule="evenodd" d="M6.64286 1C5.45939 1 4.5 1.98497 4.5 3.2V20.8C4.5 22.015 5.45939 23 6.64286 23H17.3571C18.5406 23 19.5 22.015 19.5 20.8V3.2C19.5 1.98497 18.5406 1 17.3571 1H6.64286ZM6.64286 4.3C6.64286 3.69249 7.12255 3.2 7.71429 3.2H16.2857C16.8774 3.2 17.3571 3.69249 17.3571 4.3V16.4C17.3571 17.0075 16.8774 17.5 16.2857 17.5H7.71429C7.12255 17.5 6.64286 17.0075 6.64286 16.4V4.3ZM13.6071 20.25C13.6071 21.1613 12.8876 21.9 12 21.9C11.1124 21.9 10.3929 21.1613 10.3929 20.25C10.3929 19.3387 11.1124 18.6 12 18.6C12.8876 18.6 13.6071 19.3387 13.6071 20.25Z" fill="#0C0C0D"/>
</svg>
