<svg width="24" height="24" viewBox="0 0 24 24" fill="none" xmlns="http://www.w3.org/2000/svg">
<path d="M5.16596 9.5C5.31891 9.5 5.43812 9.45614 5.52359 9.36842C5.60906 9.27845 5.65179 9.1525 5.65179 8.99055V6.24764H5.68216L7.79417 9.20648C7.87064 9.31219 7.94711 9.38754 8.02359 9.43252C8.10006 9.47751 8.1934 9.5 8.30361 9.5C8.46331 9.5 8.58589 9.45726 8.67136 9.37179C8.75908 9.28632 8.80294 9.16374 8.80294 9.00405V5.01282C8.80294 4.84863 8.7602 4.72267 8.67473 4.63495C8.58926 4.54498 8.47006 4.5 8.31711 4.5C8.16416 4.5 8.04383 4.54498 7.95611 4.63495C7.87064 4.72267 7.8279 4.84863 7.8279 5.01282V7.73887H7.80091L5.69565 4.7969C5.61693 4.68893 5.53933 4.61246 5.46286 4.56748C5.38638 4.52249 5.29529 4.5 5.18958 4.5C5.02764 4.5 4.90168 4.54498 4.81171 4.63495C4.72174 4.72267 4.67676 4.8475 4.67676 5.00945V8.99055C4.67676 9.1525 4.71949 9.27845 4.80496 9.36842C4.89268 9.45614 5.01302 9.5 5.16596 9.5Z" fill="#0C0C0D"/>
<path d="M9.98728 9.4359H12.3017C12.4412 9.4359 12.5525 9.39879 12.6357 9.32456C12.7212 9.24809 12.7639 9.14462 12.7639 9.01417C12.7639 8.88147 12.7212 8.778 12.6357 8.70378C12.5503 8.62955 12.4389 8.59244 12.3017 8.59244H10.4967V7.36437H12.214C12.3422 7.36437 12.4445 7.32951 12.521 7.25978C12.5997 7.19006 12.6391 7.09447 12.6391 6.97301C12.6391 6.85155 12.5997 6.75596 12.521 6.68623C12.4445 6.61651 12.3422 6.58165 12.214 6.58165H10.4967V5.41093H12.3017C12.4389 5.41093 12.5503 5.37382 12.6357 5.2996C12.7212 5.22312 12.7639 5.11966 12.7639 4.9892C12.7639 4.8565 12.7212 4.75304 12.6357 4.67881C12.5525 4.60459 12.4412 4.56748 12.3017 4.56748H9.98728C9.82759 4.56748 9.70276 4.61359 9.61279 4.7058C9.52282 4.79802 9.47784 4.92848 9.47784 5.09717V8.90283C9.47784 9.07153 9.52282 9.2031 9.61279 9.29757C9.70276 9.38979 9.82759 9.4359 9.98728 9.4359Z" fill="#0C0C0D"/>
<path d="M15.1932 9.37854C15.0965 9.45951 14.9683 9.5 14.8086 9.5C14.6489 9.5 14.5218 9.45951 14.4274 9.37854C14.3351 9.29532 14.2632 9.16262 14.2114 8.98043L13.1959 5.29622C13.1802 5.23324 13.1667 5.17251 13.1554 5.11404C13.1464 5.05556 13.1419 5.00382 13.1419 4.95884C13.1419 4.81714 13.1869 4.7058 13.2769 4.62483C13.3669 4.54161 13.4894 4.5 13.6446 4.5C13.9078 4.5 14.0709 4.6462 14.1338 4.9386L14.8626 8.09312H14.8896L15.7094 4.95547C15.7477 4.79802 15.8084 4.68331 15.8916 4.61134C15.9771 4.53711 16.0907 4.5 16.2324 4.5C16.5045 4.5 16.6777 4.64957 16.7519 4.94872L17.5718 8.09312H17.5988L18.3275 4.9386C18.3905 4.6462 18.5547 4.5 18.8201 4.5C18.9753 4.5 19.0979 4.54161 19.1878 4.62483C19.2778 4.7058 19.3228 4.81714 19.3228 4.95884C19.3228 5.05331 19.3048 5.16577 19.2688 5.29622L18.2499 8.98718C18.2004 9.16487 18.1284 9.29532 18.034 9.37854C17.9418 9.45951 17.8169 9.5 17.6595 9.5C17.4953 9.5 17.366 9.45951 17.2715 9.37854C17.177 9.29757 17.1051 9.16599 17.0556 8.98381L16.2459 6.10931H16.2155L15.4091 8.98381C15.3619 9.16374 15.2899 9.29532 15.1932 9.37854Z" fill="#0C0C0D"/>
<path fill-rule="evenodd" clip-rule="evenodd" d="M2 3C2 2.44772 2.44772 2 3 2H21C21.5523 2 22 2.44772 22 3V11C22 11.5523 21.5523 12 21 12H20V21C20 21.5523 19.5523 22 19 22H5C4.44772 22 4 21.5523 4 21V12H3C2.44772 12 2 11.5523 2 11V3ZM3.2 10.8V3.2H20.8V10.8H3.2ZM18.8 20.8H15V15C15 14.4477 14.5523 14 14 14H10C9.44772 14 9 14.4477 9 15V20.8H5.2V12H18.8V20.8ZM13.8 20.8H10.2V15.2H13.8V20.8Z" fill="#0C0C0D"/>
</svg>
