<svg width="24" height="24" viewBox="0 0 24 24" fill="none" xmlns="http://www.w3.org/2000/svg">
<path fill-rule="evenodd" clip-rule="evenodd" d="M17.5605 4.97499C17.6375 3.87197 18.6008 3 19.7778 3C21.0051 3 22 3.9481 22 5.11765V16.7647C22 17.9342 21.0051 18.8823 19.7778 18.8823C18.6008 18.8823 17.6375 18.0104 17.5605 16.9073C17.4372 16.9074 17.312 16.8976 17.1858 16.8773L10.0677 15.7326L10.2167 18.7766C10.2801 19.9862 9.26809 21 7.99721 21H7.3444C6.20273 21 5.2468 20.1756 5.1332 19.0931L4.7122 14.8714L3.85245 14.7332C2.78296 14.5612 2 13.6786 2 12.645V9.23728C2 8.20371 2.78296 7.32114 3.85245 7.14916L17.1858 5.00504C17.312 4.98474 17.4372 4.97496 17.5605 4.97499ZM20.4444 5.11765V16.7647C20.4444 17.1156 20.146 17.4 19.7778 17.4C19.4096 17.4 19.1111 17.1156 19.1111 16.7647V5.11765C19.1111 4.76678 19.4096 4.48235 19.7778 4.48235C20.146 4.48235 20.4444 4.76678 20.4444 5.11765ZM17.5556 6.45771C17.5191 6.45778 17.482 6.46072 17.4446 6.46673L8.33332 7.93191V13.9504L17.4446 15.4156C17.482 15.4216 17.5191 15.4245 17.5556 15.4246V6.45771ZM6.77776 8.18205V13.7003L4.11129 13.2715C3.79045 13.2199 3.55556 12.9551 3.55556 12.645V9.23728C3.55556 8.92721 3.79044 8.66244 4.11129 8.61084L6.77776 8.18205ZM8.49706 15.4801L6.30222 15.1271L6.68104 18.9456C6.71512 19.2703 7.0019 19.5177 7.3444 19.5177H7.99721C8.37847 19.5177 8.68209 19.2135 8.66305 18.8506L8.49706 15.4801Z" fill="#0C0C0D"/>
</svg>
