<svg width="24" height="24" viewBox="0 0 24 24" fill="none" xmlns="http://www.w3.org/2000/svg">
<path fill-rule="evenodd" clip-rule="evenodd" d="M4.95055 4.37169C5.45171 3.52103 6.35786 3 7.33614 3H16.6643C17.6426 3 18.5489 3.52111 19.05 4.37188L21.0524 7.7713C21.2891 8.17319 21.5094 8.74725 21.3403 9.35648C21.0144 10.5308 19.9513 11.4375 18.6671 11.4375C17.7536 11.4375 16.9495 10.9788 16.4445 10.2874C15.9399 10.9788 15.1362 11.4375 14.2226 11.4375C13.309 11.4375 12.5049 10.9788 11.9999 10.2874C11.4953 10.9788 10.6917 11.4375 9.77798 11.4375C8.8643 11.4375 8.06065 10.9788 7.55604 10.2874C7.05106 10.9788 6.24695 11.4375 5.3334 11.4375C4.04942 11.4375 2.98593 10.531 2.6598 9.35665C2.49058 8.74731 2.71096 8.17312 2.94774 7.77121L4.95055 4.37169ZM8.11178 8.59192C8.11178 9.52711 8.86953 10.3125 9.77798 10.3125C10.6864 10.3125 11.4442 9.52712 11.4442 8.59192C11.4442 8.28126 11.6929 8.02942 11.9997 8.02942C12.3066 8.02942 12.5553 8.28126 12.5553 8.59192C12.5553 9.52676 13.3138 10.3125 14.2226 10.3125C15.131 10.3125 15.8888 9.52711 15.8888 8.59192C15.8888 8.28126 16.1375 8.02942 16.4443 8.02942C16.7511 8.02942 16.9999 8.28126 16.9999 8.59192C16.9999 9.52676 17.7583 10.3125 18.6671 10.3125C19.4179 10.3125 20.0695 9.77663 20.2706 9.05214C20.3184 8.88008 20.2719 8.64266 20.0981 8.34755L18.0957 4.94813C17.795 4.43767 17.2513 4.125 16.6643 4.125H7.33614C6.74917 4.125 6.20548 4.43762 5.90479 4.94801L3.90198 8.34753C3.72809 8.64269 3.68166 8.88011 3.72944 9.05213C3.93062 9.77655 4.58257 10.3125 5.3334 10.3125C6.2422 10.3125 7.00067 9.52676 7.00067 8.59192C7.00067 8.28126 7.2494 8.02942 7.55623 8.02942C7.86305 8.02942 8.11178 8.28126 8.11178 8.59192Z" fill="#0C0C0D"/>
<path d="M2 20.4375C2 20.1268 2.24873 19.875 2.55556 19.875H3.66667V12.5625C3.66667 12.2518 3.9154 12 4.22222 12C4.52905 12 4.77778 12.2518 4.77778 12.5625V19.875H19.2222V12.5625C19.2222 12.2518 19.471 12 19.7778 12C20.0846 12 20.3333 12.2518 20.3333 12.5625V19.875H21.4444C21.7513 19.875 22 20.1268 22 20.4375C22 20.7482 21.7513 21 21.4444 21H2.55556C2.24873 21 2 20.7482 2 20.4375Z" fill="#0C0C0D"/>
<path d="M7.55556 13.125C7.55556 12.8143 7.30683 12.5625 7 12.5625C6.69318 12.5625 6.44444 12.8143 6.44444 13.125V17.625C6.44444 17.9357 6.69318 18.1875 7 18.1875H17C17.3068 18.1875 17.5556 17.9357 17.5556 17.625V13.125C17.5556 12.8143 17.3068 12.5625 17 12.5625C16.6932 12.5625 16.4444 12.8143 16.4444 13.125V17.0625H7.55556V13.125Z" fill="#0C0C0D"/>
</svg>
