<svg width="24" height="24" viewBox="0 0 24 24" fill="none" xmlns="http://www.w3.org/2000/svg">
<path d="M4.77778 4.77778C5.0846 4.77778 5.33333 5.02651 5.33333 5.33333V7.55556C5.33333 7.86238 5.0846 8.11111 4.77778 8.11111C4.47095 8.11111 4.22222 7.86238 4.22222 7.55556V5.33333C4.22222 5.02651 4.47095 4.77778 4.77778 4.77778Z" fill="#0C0C0D"/>
<path d="M5.33333 12C5.33333 11.6932 5.0846 11.4444 4.77778 11.4444C4.47095 11.4444 4.22222 11.6932 4.22222 12V14.2222C4.22222 14.529 4.47095 14.7778 4.77778 14.7778C5.0846 14.7778 5.33333 14.529 5.33333 14.2222V12Z" fill="#0C0C0D"/>
<path fill-rule="evenodd" clip-rule="evenodd" d="M2 4.22222C2 2.99492 2.99492 2 4.22222 2H13.1111C14.3384 2 15.3333 2.99492 15.3333 4.22222V10.8889H19.7778C21.0051 10.8889 22 11.8838 22 13.1111V19.7778C22 21.0051 21.0051 22 19.7778 22H4.22222C2.99492 22 2 21.0051 2 19.7778V4.22222ZM4.22222 3.11111H13.1111C13.7248 3.11111 14.2222 3.60857 14.2222 4.22222V9.22222H3.11111V4.22222C3.11111 3.60857 3.60857 3.11111 4.22222 3.11111ZM3.11111 10.3333H14.2222V19.7778C14.2222 20.3914 13.7248 20.8889 13.1111 20.8889H4.22222C3.60857 20.8889 3.11111 20.3914 3.11111 19.7778V10.3333ZM15.036 20.8889H19.7778C20.3914 20.8889 20.8889 20.3914 20.8889 19.7778V18.1111H15.3333V19.7778C15.3333 20.1825 15.2251 20.562 15.036 20.8889ZM15.3333 17H20.8889V13.1111C20.8889 12.4975 20.3914 12 19.7778 12H15.3333V17Z" fill="#0C0C0D"/>
</svg>
