<svg width="24" height="24" viewBox="0 0 24 24" fill="none" xmlns="http://www.w3.org/2000/svg">
<path d="M8.66667 12.5294C8.66667 12.237 8.9154 12 9.22222 12H14.7778C15.0846 12 15.3333 12.237 15.3333 12.5294C15.3333 12.8218 15.0846 13.0588 14.7778 13.0588H9.22222C8.9154 13.0588 8.66667 12.8218 8.66667 12.5294Z" fill="#0C0C0D"/>
<path fill-rule="evenodd" clip-rule="evenodd" d="M2 18.8824V9.85285C2 9.5241 2.08032 9.19986 2.23461 8.90581L4.71913 4.17061C5.09555 3.45318 5.86503 3 6.70674 3H17.2933C18.135 3 18.9044 3.45318 19.2809 4.17061L21.7654 8.90581C21.9197 9.19986 22 9.5241 22 9.85285V18.8824C22 20.0519 21.0051 21 19.7778 21H4.22222C2.99492 21 2 20.0519 2 18.8824ZM3.11111 9.88235V18.8824C3.11111 19.4671 3.60857 19.9412 4.22222 19.9412H19.7778C20.3914 19.9412 20.8889 19.4671 20.8889 18.8824V9.88235H3.11111ZM20.48 8.82353L18.2871 4.64413C18.0989 4.28541 17.7141 4.05882 17.2933 4.05882H12.5556V8.82353H20.48ZM11.4444 8.82353H3.52004L5.71293 4.64413C5.90115 4.28541 6.28588 4.05882 6.70674 4.05882L11.4444 4.05882V8.82353Z" fill="#0C0C0D"/>
</svg>
