<svg width="24" height="24" viewBox="0 0 24 24" fill="none" xmlns="http://www.w3.org/2000/svg">
<path fill-rule="evenodd" clip-rule="evenodd" d="M10.1518 16.7875C9.99869 16.9292 9.78944 17 9.52406 17C9.25868 17 9.04943 16.9292 8.89633 16.7875C8.74322 16.6459 8.66667 16.4517 8.66667 16.2049V7.79507C8.66667 7.54832 8.74322 7.35412 8.89633 7.21247C9.04943 7.07083 9.25868 7 9.52406 7H12.8082C13.5227 7 14.153 7.13708 14.699 7.41124C15.2451 7.6854 15.6713 8.06694 15.9775 8.55586C16.2888 9.04021 16.4444 9.60452 16.4444 10.2488C16.4444 10.8931 16.2862 11.462 15.9698 11.9554C15.6585 12.4444 15.2247 12.8259 14.6684 13.1001C14.1172 13.3742 13.4793 13.5113 12.7546 13.5113H10.3815V16.2049C10.3815 16.4517 10.3049 16.6459 10.1518 16.7875ZM10.3815 8.29541V12.2228H12.3489C13.094 12.2228 13.6707 12.0514 14.079 11.7087C14.4872 11.3614 14.6914 10.8771 14.6914 10.2557C14.6914 9.63422 14.4872 9.15216 14.079 8.80946C13.6758 8.46676 13.1016 8.29541 12.3565 8.29541H10.3815Z" fill="#0C0C0D"/>
<path fill-rule="evenodd" clip-rule="evenodd" d="M2 12C2 6.47715 6.47715 2 12 2C17.5228 2 22 6.47715 22 12C22 17.5228 17.5228 22 12 22C6.47715 22 2 17.5228 2 12ZM12 20.8889C7.0908 20.8889 3.11111 16.9092 3.11111 12C3.11111 7.0908 7.0908 3.11111 12 3.11111C16.9092 3.11111 20.8889 7.0908 20.8889 12C20.8889 16.9092 16.9092 20.8889 12 20.8889Z" fill="#0C0C0D"/>
</svg>
