<svg width="24" height="24" viewBox="0 0 24 24" fill="none" xmlns="http://www.w3.org/2000/svg">
<path d="M12.7875 13.8889C12.7875 13.4593 12.4349 13.1111 12 13.1111C11.5651 13.1111 11.2125 13.4593 11.2125 13.8889V16.7778C11.2125 17.2073 11.5651 17.5556 12 17.5556C12.4349 17.5556 12.7875 17.2073 12.7875 16.7778V13.8889Z" fill="#0C0C0D"/>
<path fill-rule="evenodd" clip-rule="evenodd" d="M21 10.8889C21 9.66159 19.9926 8.66667 18.75 8.66667C18.75 4.98477 15.7279 2 12 2C8.27208 2 5.25 4.98477 5.25 8.66667C4.00736 8.66667 3 9.66159 3 10.8889V19.7778C3 21.0051 4.00736 22 5.25 22H18.75C19.9926 22 21 21.0051 21 19.7778V10.8889ZM12 3.55556C14.8581 3.55556 17.175 5.84388 17.175 8.66667H6.825C6.825 5.84388 9.14193 3.55556 12 3.55556ZM5.25 10.2222C4.87721 10.2222 4.575 10.5207 4.575 10.8889V19.7778C4.575 20.146 4.87721 20.4444 5.25 20.4444H18.75C19.1228 20.4444 19.425 20.146 19.425 19.7778V10.8889C19.425 10.5207 19.1228 10.2222 18.75 10.2222H5.25Z" fill="#0C0C0D"/>
</svg>
