<svg width="24" height="24" viewBox="0 0 24 24" fill="none" xmlns="http://www.w3.org/2000/svg">
<path fill-rule="evenodd" clip-rule="evenodd" d="M3.12945 9.15214C3.11735 9.05557 3.11111 8.9571 3.11111 8.85714V4.28571C3.11111 3.02335 4.10603 2 5.33333 2H18.6667C19.894 2 20.8889 3.02335 20.8889 4.28571V8.85714C20.8889 8.9571 20.8827 9.05557 20.8706 9.15214C21.5449 9.5446 22 10.2891 22 11.1429V16.8571C22 18.1195 21.0051 19.1429 19.7778 19.1429H19.2222V21.4286C19.2222 21.7442 18.9735 22 18.6667 22C18.3598 22 18.1111 21.7442 18.1111 21.4286V19.1429H5.88889V21.4286C5.88889 21.7442 5.64016 22 5.33333 22C5.02651 22 4.77778 21.7442 4.77778 21.4286V19.1429H4.22222C2.99492 19.1429 2 18.1195 2 16.8571V11.1429C2 10.2891 2.45513 9.5446 3.12945 9.15214ZM5.33333 3.14286H18.6667C19.2803 3.14286 19.7778 3.65453 19.7778 4.28571V8.85714H18.6667V6.57143C18.6667 5.30906 17.6717 4.28571 16.4444 4.28571H7.55556C6.32826 4.28571 5.33333 5.30906 5.33333 6.57143V8.85714H4.22222V4.28571C4.22222 3.65453 4.71968 3.14286 5.33333 3.14286ZM19.7778 18C20.3914 18 20.8889 17.4883 20.8889 16.8571V12.8571H3.11111V16.8571C3.11111 17.4883 3.60857 18 4.22222 18H19.7778ZM20.8889 11.1429V11.7143H3.11111V11.1429C3.11111 10.5117 3.60857 10 4.22222 10H19.7778C20.3914 10 20.8889 10.5117 20.8889 11.1429ZM6.44444 8.85714H11.4444V5.42857H7.55556C6.94191 5.42857 6.44444 5.94025 6.44444 6.57143V8.85714ZM12.5556 5.42857V8.85714H17.5556V6.57143C17.5556 5.94025 17.0581 5.42857 16.4444 5.42857H12.5556Z" fill="#0C0C0D"/>
</svg>
