<svg width="24" height="24" viewBox="0 0 24 24" fill="none" xmlns="http://www.w3.org/2000/svg">
<path fill-rule="evenodd" clip-rule="evenodd" d="M8.94444 7.7647C10.3252 7.7647 11.4444 6.69808 11.4444 5.38235C11.4444 4.06661 10.3252 3 8.94444 3C7.56373 3 6.44444 4.06661 6.44444 5.38235C6.44444 6.69808 7.56373 7.7647 8.94444 7.7647ZM8.94444 6.70588C9.71151 6.70588 10.3333 6.11331 10.3333 5.38235C10.3333 4.65139 9.71151 4.05882 8.94444 4.05882C8.17738 4.05882 7.55556 4.65139 7.55556 5.38235C7.55556 6.11331 8.17738 6.70588 8.94444 6.70588Z" fill="#0C0C0D"/>
<path fill-rule="evenodd" clip-rule="evenodd" d="M15.0556 7.7647C16.4363 7.7647 17.5556 6.69808 17.5556 5.38235C17.5556 4.06661 16.4363 3 15.0556 3C13.6748 3 12.5556 4.06661 12.5556 5.38235C12.5556 6.69808 13.6748 7.7647 15.0556 7.7647ZM15.0556 6.70588C15.8226 6.70588 16.4444 6.11331 16.4444 5.38235C16.4444 4.65139 15.8226 4.05882 15.0556 4.05882C14.2885 4.05882 13.6667 4.65139 13.6667 5.38235C13.6667 6.11331 14.2885 6.70588 15.0556 6.70588Z" fill="#0C0C0D"/>
<path fill-rule="evenodd" clip-rule="evenodd" d="M7 9.61764C7 10.9334 5.88071 12 4.5 12C3.11929 12 2 10.9334 2 9.61764C2 8.3019 3.11929 7.23529 4.5 7.23529C5.88071 7.23529 7 8.3019 7 9.61764ZM5.88889 9.61764C5.88889 10.3486 5.26706 10.9412 4.5 10.9412C3.73294 10.9412 3.11111 10.3486 3.11111 9.61764C3.11111 8.88667 3.73294 8.29411 4.5 8.29411C5.26706 8.29411 5.88889 8.88667 5.88889 9.61764Z" fill="#0C0C0D"/>
<path fill-rule="evenodd" clip-rule="evenodd" d="M19.5 12C20.8807 12 22 10.9334 22 9.61764C22 8.3019 20.8807 7.23529 19.5 7.23529C18.1193 7.23529 17 8.3019 17 9.61764C17 10.9334 18.1193 12 19.5 12ZM19.5 10.9412C20.2671 10.9412 20.8889 10.3486 20.8889 9.61764C20.8889 8.88667 20.2671 8.29411 19.5 8.29411C18.7329 8.29411 18.1111 8.88667 18.1111 9.61764C18.1111 10.3486 18.7329 10.9412 19.5 10.9412Z" fill="#0C0C0D"/>
<path fill-rule="evenodd" clip-rule="evenodd" d="M14.7925 11.0021L17.4321 14.861L18.2071 15.6465C20.3078 17.7757 18.531 21.2503 15.4767 20.9857L12 20.6845L8.52329 20.9857C5.46906 21.2503 3.69225 17.7757 5.79295 15.6465L6.56791 14.861L9.20757 11.0021C10.5226 9.07963 13.4774 9.07963 14.7925 11.0021ZM15.5773 19.9312L12 19.6213L8.42269 19.9312C6.38654 20.1076 5.202 17.7913 6.60247 16.3718L7.44492 15.5179L10.1384 11.5803C11.0151 10.2987 12.9849 10.2987 13.8616 11.5803L16.5551 15.5179L17.3976 16.3718C18.798 17.7913 17.6135 20.1076 15.5773 19.9312Z" fill="#0C0C0D"/>
</svg>
