<svg width="24" height="24" viewBox="0 0 24 24" fill="none" xmlns="http://www.w3.org/2000/svg">
<path fill-rule="evenodd" clip-rule="evenodd" d="M12 22C17.5228 22 22 17.5228 22 12C22 6.47715 17.5228 2 12 2C6.47715 2 2 6.47715 2 12C2 17.5228 6.47715 22 12 22ZM12.0001 7.55556C12.382 7.55556 12.6915 7.86509 12.6915 8.24691V11.3087L15.7531 11.3087C16.1349 11.3087 16.4444 11.6182 16.4444 12C16.4444 12.3818 16.1349 12.6914 15.7531 12.6914H12.6915V15.7531C12.6915 16.1349 12.382 16.4444 12.0001 16.4444C11.6183 16.4444 11.3088 16.1349 11.3088 15.7531V12.6914H8.24691C7.86509 12.6914 7.55556 12.3818 7.55556 12C7.55556 11.6182 7.86509 11.3087 8.24691 11.3087H11.3088V8.24691C11.3088 7.86509 11.6183 7.55556 12.0001 7.55556Z" fill="#0C0C0D"/>
</svg>
