<svg width="24" height="24" viewBox="0 0 24 24" fill="none" xmlns="http://www.w3.org/2000/svg">
<path d="M13.4286 4.40625C13.4286 4.89385 13.1765 5.32349 12.7936 5.57575L15.681 10.8543C15.8654 11.1914 16.2694 11.3491 16.6383 11.228L19.19 10.3908C19.1592 10.276 19.1429 10.1555 19.1429 10.0312C19.1429 9.2546 19.7825 8.625 20.5714 8.625C21.3604 8.625 22 9.2546 22 10.0312C22 10.8079 21.3604 11.4375 20.5714 11.4375C20.5175 11.4375 20.4643 11.4346 20.4119 11.4288L17.9221 17.1477C17.796 17.4373 17.5068 17.625 17.1868 17.625H6.81323C6.49321 17.625 6.20398 17.4373 6.07792 17.1477L3.58806 11.4288C3.5357 11.4346 3.48249 11.4375 3.42857 11.4375C2.63959 11.4375 2 10.8079 2 10.0312C2 9.2546 2.63959 8.625 3.42857 8.625C4.21755 8.625 4.85714 9.2546 4.85714 10.0312C4.85714 10.1555 4.84077 10.276 4.81003 10.3908L7.36165 11.228C7.73064 11.3491 8.13461 11.1914 8.31901 10.8543L11.2064 5.57575C10.8235 5.32349 10.5714 4.89385 10.5714 4.40625C10.5714 3.6296 11.211 3 12 3C12.789 3 13.4286 3.6296 13.4286 4.40625Z" fill="#0C0C0D"/>
<path d="M6.28571 18.75C5.65453 18.75 5.14286 19.2537 5.14286 19.875C5.14286 20.4963 5.65453 21 6.28571 21H17.7143C18.3455 21 18.8571 20.4963 18.8571 19.875C18.8571 19.2537 18.3455 18.75 17.7143 18.75H6.28571Z" fill="#0C0C0D"/>
</svg>
