<svg width="24" height="24" viewBox="0 0 24 24" fill="none" xmlns="http://www.w3.org/2000/svg">
<g clip-path="url(#clip0_4739_2476)">
<path d="M23.5 12C23.5 18.3513 18.3513 23.5 12 23.5C5.64873 23.5 0.5 18.3513 0.5 12C0.5 5.64873 5.64873 0.5 12 0.5C18.3513 0.5 23.5 5.64873 23.5 12Z" stroke="#0C0C0D"/>
<path d="M13.001 13.4363C13.001 12.8905 13.4091 12.2446 13.9292 11.9655C15.4296 11.161 16.2367 9.51119 15.9387 7.85847C15.6556 6.28845 14.3303 5.00051 12.717 4.7262C11.5387 4.52678 10.3375 4.8332 9.4293 5.57541C8.52111 6.31763 8 7.40322 8 8.55594C8 9.0929 8.44809 9.5287 9.00021 9.5287C9.55233 9.5287 10.0004 9.0929 10.0004 8.55594C10.0004 7.98007 10.2615 7.4363 10.7156 7.0647C11.1767 6.68727 11.7648 6.53747 12.3719 6.64155C13.1591 6.77579 13.8302 7.42852 13.9683 8.19407C14.1213 9.04037 13.7272 9.85165 12.964 10.2612C11.8078 10.8808 11.0006 12.1863 11.0006 13.4363C11.0006 13.9742 11.4487 14.409 12.0008 14.409C12.553 14.409 13.001 13.9742 13.001 13.4363Z" fill="#0C0C0D"/>
<path d="M12.0008 16.4151C12.829 16.4151 13.5012 17.0688 13.5012 17.8742C13.5012 18.6797 12.829 19.3334 12.0008 19.3334C11.1727 19.3334 10.5005 18.6797 10.5005 17.8742C10.5005 17.0688 11.1727 16.4151 12.0008 16.4151Z" fill="#0C0C0D"/>
</g>
<defs>
<clipPath id="clip0_4739_2476">
<rect width="24" height="24" fill="white"/>
</clipPath>
</defs>
</svg>
