<svg width="24" height="24" viewBox="0 0 24 24" fill="none" xmlns="http://www.w3.org/2000/svg">
<g clip-path="url(#clip0_4735_2490)">
<path fill-rule="evenodd" clip-rule="evenodd" d="M12 24C18.6274 24 24 18.6274 24 12C24 5.37258 18.6274 0 12 0C5.37258 0 0 5.37258 0 12C0 18.6274 5.37258 24 12 24ZM12.8759 13.1996C12.8759 12.7438 13.233 12.2043 13.6881 11.9711C15.0009 11.2992 15.7071 9.92126 15.4463 8.54087C15.1987 7.22954 14.039 6.15382 12.6274 5.9247C11.5964 5.75815 10.5453 6.01408 9.75064 6.63399C8.95597 7.25391 8.5 8.16063 8.5 9.12341C8.5 9.57189 8.89208 9.93588 9.37518 9.93588C9.85828 9.93588 10.2504 9.57189 10.2504 9.12341C10.2504 8.64243 10.4788 8.18825 10.8761 7.87789C11.2796 7.56265 11.7942 7.43753 12.3254 7.52446C13.0142 7.63658 13.6014 8.18176 13.7222 8.82117C13.8561 9.52802 13.5113 10.2056 12.8435 10.5477C11.8318 11.0652 11.1255 12.1556 11.1255 13.1996C11.1255 13.6489 11.5176 14.0121 12.0007 14.0121C12.4838 14.0121 12.8759 13.6489 12.8759 13.1996ZM12.0007 15.6876C12.7254 15.6876 13.3135 16.2336 13.3135 16.9063C13.3135 17.579 12.7254 18.125 12.0007 18.125C11.2761 18.125 10.688 17.579 10.688 16.9063C10.688 16.2336 11.2761 15.6876 12.0007 15.6876Z" fill="#0C0C0D"/>
</g>
<defs>
<clipPath id="clip0_4735_2490">
<rect width="24" height="24" fill="white"/>
</clipPath>
</defs>
</svg>
