<svg width="24" height="24" viewBox="0 0 24 24" fill="none" xmlns="http://www.w3.org/2000/svg">
<path d="M14.4116 12.7576C13.7614 13.1002 13.2513 13.4364 13.2513 14.1062C13.2513 14.7663 12.6912 15.3 12.001 15.3C11.3109 15.3 10.7508 14.7663 10.7508 14.1062C10.7508 12.5721 11.7597 11.4264 13.205 10.666C14.159 10.1634 14.6516 9.16769 14.4603 8.12905C14.2878 7.1895 13.4489 6.38844 12.4649 6.22369C11.706 6.09595 10.9708 6.2798 10.3945 6.74301C9.82684 7.19905 9.50052 7.86641 9.50052 8.57316C9.50052 9.23216 8.94041 9.767 8.25026 9.767C7.56012 9.767 7 9.23216 7 8.57316C7 7.15846 7.65139 5.82614 8.78662 4.91524C9.92186 4.00434 11.4234 3.62829 12.8962 3.87302C14.9129 4.20968 16.5695 5.79033 16.9233 7.71718C17.2959 9.74551 16.2869 11.7703 14.4116 12.7576Z" fill="#0C0C0D"/>
<path d="M13.6998 18.5C13.6998 19.4389 12.9387 20.2 11.9998 20.2C11.0609 20.2 10.2998 19.4389 10.2998 18.5C10.2998 17.5611 11.0609 16.8 11.9998 16.8C12.9387 16.8 13.6998 17.5611 13.6998 18.5Z" fill="#0C0C0D"/>
</svg>
