<svg width="24" height="24" viewBox="0 0 24 24" fill="none" xmlns="http://www.w3.org/2000/svg">
<path d="M15.005 3.1963C15.2653 2.93457 15.6875 2.93457 15.9478 3.1963L18.8045 6.0681C19.0648 6.32983 19.0654 6.75473 18.805 7.01647L15.9478 9.88881C15.6875 10.1505 15.2653 10.1505 15.005 9.88881C14.7446 9.62708 14.7446 9.20272 15.005 8.94099L16.7241 7.21277L9.47628 7.21278C7.74049 7.21278 6.33336 8.62737 6.33336 10.3724V12.2873C6.33336 12.6574 6.03488 12.9575 5.66668 12.9575C5.29848 12.9575 5 12.6574 5 12.2873V10.3724C5 7.88708 7.0041 5.87236 9.47628 5.87236L16.7241 5.87234L15.005 4.14413C14.7446 3.88239 14.7446 3.45804 15.005 3.1963Z" fill="#0C0C0D"/>
<path d="M14.5237 16.7872C16.2595 16.7872 17.6666 15.3727 17.6666 13.6277V11.7128C17.6666 11.3426 17.9651 11.0426 18.3333 11.0426C18.7015 11.0426 19 11.3426 19 11.7128V13.6277C19 16.1129 16.9959 18.1277 14.5237 18.1277L7.27594 18.1277L8.99502 19.8559C9.25538 20.1176 9.25538 20.542 8.99502 20.8037C8.73467 21.0654 8.31255 21.0654 8.0522 20.8037L5.19499 17.9314C4.93464 17.6696 4.93518 17.2447 5.19554 16.983L8.0522 14.1112C8.31255 13.8495 8.73467 13.8495 8.99502 14.1112C9.25538 14.3729 9.25538 14.7973 8.99502 15.059L7.2759 16.7873L14.5237 16.7872Z" fill="#0C0C0D"/>
</svg>
