<svg width="24" height="24" viewBox="0 0 24 24" fill="none" xmlns="http://www.w3.org/2000/svg">
<path d="M16.2537 16.7819C16.5837 16.4882 17.086 16.4502 17.4184 16.7411C17.751 17.0321 17.7871 17.5411 17.4644 17.843C16.0343 19.1809 14.1128 20 12 20C7.58172 20 4 16.4183 4 12C4 7.58172 7.58172 4 12 4C15.9978 4 19.3108 6.93248 19.9051 10.7638L20.4345 10.2343C20.7469 9.9219 21.2535 9.9219 21.5659 10.2343C21.8783 10.5467 21.8783 11.0533 21.5659 11.3657L19.5659 13.3657C19.2535 13.6781 18.7469 13.6781 18.4345 13.3657L16.4345 11.3657C16.1221 11.0533 16.1221 10.5467 16.4345 10.2343C16.7469 9.9219 17.2535 9.9219 17.5659 10.2343L18.3206 10.989C17.8359 7.93478 15.1906 5.6 12 5.6C8.46538 5.6 5.6 8.46538 5.6 12C5.6 15.5346 8.46538 18.4 12 18.4C13.6329 18.4 15.123 17.7885 16.2537 16.7819Z" fill="#0C0C0D"/>
</svg>
