<svg width="24" height="24" viewBox="0 0 24 24" fill="none" xmlns="http://www.w3.org/2000/svg">
<path d="M12.5787 5.88893C12.5787 5.5821 12.3196 5.33337 12 5.33337C11.6804 5.33337 11.4213 5.5821 11.4213 5.88893V7.00004C11.4213 7.30686 11.6804 7.55559 12 7.55559C12.3196 7.55559 12.5787 7.30686 12.5787 7.00004V5.88893Z" fill="#0C0C0D"/>
<path d="M12 9.22222C12.3196 9.22222 12.5787 9.47095 12.5787 9.77778V12C12.5787 12.3068 12.3196 12.5556 12 12.5556C11.6804 12.5556 11.4213 12.3068 11.4213 12V9.77778C11.4213 9.47095 11.6804 9.22222 12 9.22222Z" fill="#0C0C0D"/>
<path d="M12.5787 14.7778C12.5787 14.4709 12.3196 14.2222 12 14.2222C11.6804 14.2222 11.4213 14.4709 11.4213 14.7778V18.1111C11.4213 18.4179 11.6804 18.6667 12 18.6667C12.3196 18.6667 12.5787 18.4179 12.5787 18.1111V14.7778Z" fill="#0C0C0D"/>
<path fill-rule="evenodd" clip-rule="evenodd" d="M4.73282 3.85689C4.91886 2.78536 5.88462 2 7.01625 2H16.9837C18.1154 2 19.0811 2.78536 19.2672 3.85689L21.9679 19.4124C22.2031 20.767 21.115 22 19.6845 22H4.3155C2.88502 22 1.7969 20.767 2.03207 19.4124L4.73282 3.85689ZM7.01625 3.11111H16.9837C17.5496 3.11111 18.0324 3.50379 18.1255 4.03956L20.8262 19.5951C20.9438 20.2724 20.3997 20.8889 19.6845 20.8889H4.3155C3.60026 20.8889 3.0562 20.2724 3.17379 19.5951L5.87454 4.03956C5.96756 3.50379 6.45044 3.11111 7.01625 3.11111Z" fill="#0C0C0D"/>
</svg>
