<svg width="24" height="24" viewBox="0 0 24 24" fill="none" xmlns="http://www.w3.org/2000/svg">
<path fill-rule="evenodd" clip-rule="evenodd" d="M12 12.5555C13.578 12.5555 14.8571 11.3119 14.8571 9.77777C14.8571 8.24365 13.578 7 12 7C10.422 7 9.14286 8.24365 9.14286 9.77777C9.14286 11.3119 10.422 12.5555 12 12.5555ZM12 11C12.6943 11 13.2571 10.4528 13.2571 9.77777C13.2571 9.10276 12.6943 8.55555 12 8.55555C11.3057 8.55555 10.7429 9.10276 10.7429 9.77777C10.7429 10.4528 11.3057 11 12 11Z" fill="#0C0C0D"/>
<path d="M15.4286 7C15.7442 7 16 6.75127 16 6.44444C16 6.13762 15.7442 5.88889 15.4286 5.88889C15.113 5.88889 14.8571 6.13762 14.8571 6.44444C14.8571 6.75127 15.113 7 15.4286 7Z" fill="#0C0C0D"/>
<path fill-rule="evenodd" clip-rule="evenodd" d="M17.4552 15.4668C19.021 14.0471 20 12.0236 20 9.77777C20 5.48223 16.4183 2 12 2C7.58172 2 4 5.48223 4 9.77777C4 12.0236 4.97903 14.0471 6.54479 15.4668L4.64985 18.732C3.83784 20.2123 4.94113 22 6.66666 22H17.3333C19.0589 22 20.1622 20.2123 19.3501 18.732L17.4552 15.4668ZM18.4 9.77777C18.4 13.2142 15.5346 16 12 16C8.46538 16 5.6 13.2142 5.6 9.77777C5.6 6.34134 8.46538 3.55555 12 3.55555C15.5346 3.55555 18.4 6.34134 18.4 9.77777ZM16.1647 16.4198C14.9516 17.1403 13.5257 17.5555 12 17.5555C10.4743 17.5555 9.04839 17.1403 7.83524 16.4198L6.06162 19.4641C5.81802 19.9081 6.149 20.4444 6.66666 20.4444H17.3333C17.851 20.4444 18.182 19.9081 17.9384 19.4641L16.1647 16.4198Z" fill="#0C0C0D"/>
</svg>
