<svg width="24" height="24" viewBox="0 0 24 24" fill="none" xmlns="http://www.w3.org/2000/svg">
<path d="M4.9999 4.40002C4.66853 4.40002 4.3999 4.66865 4.3999 5.00002V10C4.3999 10.3314 4.66853 10.6 4.9999 10.6C5.33127 10.6 5.5999 10.3314 5.5999 10V5.60002H9.9999C10.3313 5.60002 10.5999 5.3314 10.5999 5.00002C10.5999 4.66865 10.3313 4.40002 9.9999 4.40002H4.9999Z" fill="#0C0C0D"/>
<path d="M19.6001 19C19.6001 19.3313 19.3315 19.6 19.0001 19.6H14.0001C13.6687 19.6 13.4001 19.3313 13.4001 19C13.4001 18.6686 13.6687 18.4 14.0001 18.4H18.4001L18.4001 14C18.4001 13.6686 18.6687 13.4 19.0001 13.4C19.3315 13.4 19.6001 13.6686 19.6001 14V19Z" fill="#0C0C0D"/>
<path d="M18.1104 11.092C18.2503 11.092 18.3768 11.0529 18.4699 10.9576L18.4709 10.9566C18.5593 10.8641 18.6 10.7466 18.6 10.6154C18.6 10.4829 18.5602 10.3638 18.4694 10.2727C18.3763 10.1778 18.2501 10.1389 18.1104 10.1389H17.4326L17.768 9.84934C17.9326 9.70676 18.0688 9.57965 18.1757 9.46826C18.2876 9.35318 18.3738 9.23548 18.4306 9.11334C18.491 8.98576 18.5193 8.84216 18.5193 8.68561C18.5193 8.47062 18.4605 8.27697 18.3407 8.10968C18.2232 7.94366 18.0583 7.818 17.8525 7.73024C17.6455 7.64199 17.4058 7.59998 17.1367 7.59998C16.9419 7.59998 16.7588 7.62639 16.5892 7.68028C16.4217 7.73401 16.2741 7.81163 16.1484 7.91441C16.0215 8.01665 15.9246 8.1413 15.8607 8.28587C15.8259 8.36653 15.8088 8.45218 15.8088 8.54153C15.8088 8.67969 15.8516 8.80294 15.9475 8.89668L15.9495 8.89859C16.0471 8.99001 16.1744 9.02901 16.3159 9.02901C16.422 9.02901 16.5215 9.00676 16.6066 8.95607C16.6901 8.90557 16.7642 8.82668 16.8311 8.72955C16.8661 8.67888 16.8992 8.64018 16.9298 8.6117C16.9603 8.58462 16.9901 8.56661 17.019 8.55544C17.0475 8.54439 17.0818 8.53782 17.1236 8.53782C17.183 8.53782 17.2273 8.54923 17.2608 8.56689L17.2644 8.56863C17.3009 8.58641 17.3268 8.61002 17.3455 8.63983L17.3464 8.64124C17.3634 8.66742 17.374 8.7009 17.374 8.74674C17.374 8.79075 17.365 8.83318 17.3462 8.87513C17.3282 8.91401 17.2921 8.96547 17.2304 9.0298L17.2295 9.03081C17.1683 9.09601 17.0802 9.17873 16.964 9.27917L16.0984 10.0205C16.0043 10.099 15.929 10.181 15.8785 10.2675C15.8257 10.3581 15.8 10.4583 15.8 10.5652C15.8 10.7074 15.8432 10.8345 15.9355 10.9366L15.9364 10.9375C16.0396 11.0493 16.1905 11.092 16.3596 11.092H18.1104Z" fill="#0C0C0D"/>
<path d="M8.94566 14.6C9.13728 14.6 9.29205 14.5417 9.40997 14.4251C9.53083 14.3085 9.59127 14.1396 9.59127 13.9184V11.6045C9.59127 11.3354 9.66644 11.1157 9.81679 10.9453C9.97009 10.7749 10.1691 10.6897 10.4138 10.6897C10.6525 10.6897 10.8397 10.7614 10.9753 10.9049C11.111 11.0484 11.1788 11.2502 11.1788 11.5103V13.9184C11.1788 14.1396 11.2333 14.3085 11.3424 14.4251C11.4544 14.5417 11.6062 14.6 11.7978 14.6C11.9895 14.6 12.1413 14.5417 12.2533 14.4251C12.3653 14.3085 12.4213 14.1396 12.4213 13.9184V11.5865C12.4213 11.3175 12.495 11.1007 12.6424 10.9363C12.7928 10.7719 12.9903 10.6897 13.235 10.6897C13.4856 10.6897 13.6772 10.7644 13.8098 10.9139C13.9425 11.0604 14.0088 11.2726 14.0088 11.5506V13.9184C14.0088 14.1396 14.0678 14.3085 14.1857 14.4251C14.3036 14.5417 14.4584 14.6 14.65 14.6C14.8416 14.6 14.9979 14.5417 15.1187 14.4251C15.2396 14.3085 15.3 14.1396 15.3 13.9184V11.2233C15.3 10.9004 15.2352 10.6179 15.1055 10.3758C14.9758 10.1336 14.7945 9.94527 14.5616 9.81074C14.3287 9.67621 14.0575 9.60894 13.7479 9.60894C13.515 9.60894 13.2998 9.6493 13.1023 9.73002C12.9078 9.81074 12.7382 9.92583 12.5938 10.0753C12.4598 10.214 12.3338 10.3768 12.2607 10.5638C12.2571 10.5731 12.2432 10.5723 12.2406 10.5627C12.1895 10.3676 12.1053 10.2006 11.988 10.0619C11.8671 9.91537 11.7168 9.80326 11.5369 9.72554C11.3571 9.64781 11.1537 9.60894 10.9267 9.60894C10.6054 9.60894 10.3238 9.69714 10.0821 9.87352C9.85884 10.0356 9.67295 10.2487 9.56779 10.5128C9.56362 10.5233 9.54705 10.5203 9.54705 10.509V10.2681C9.54705 10.0469 9.48956 9.88099 9.37459 9.77038C9.25962 9.65678 9.10927 9.59998 8.92355 9.59998C8.74077 9.59998 8.59043 9.65678 8.47251 9.77038C8.35753 9.88398 8.30005 10.0499 8.30005 10.2681V13.9184C8.30005 14.1396 8.35901 14.3085 8.47693 14.4251C8.5978 14.5417 8.75404 14.6 8.94566 14.6Z" fill="#0C0C0D"/>
<path fill-rule="evenodd" clip-rule="evenodd" d="M1 2C1 1.44772 1.44772 1 2 1H22C22.5523 1 23 1.44772 23 2V22C23 22.5523 22.5523 23 22 23H2C1.44772 23 1 22.5523 1 22V2ZM2.2 21.8V2.2H21.8V21.8H2.2Z" fill="#0C0C0D"/>
</svg>
