<svg width="24" height="24" viewBox="0 0 24 24" fill="none" xmlns="http://www.w3.org/2000/svg">
<path d="M9.35633 9.16593C8.91197 9.16593 8.55174 9.5341 8.55174 9.98825C8.55174 10.4424 8.91197 10.8106 9.35633 10.8106H14.6437C15.0881 10.8106 15.4483 10.4424 15.4483 9.98825C15.4483 9.5341 15.0881 9.16593 14.6437 9.16593H9.35633Z" fill="#0C0C0D"/>
<path fill-rule="evenodd" clip-rule="evenodd" d="M10.4828 2.51689C11.3819 1.8277 12.6181 1.8277 13.5172 2.51689L20.9885 8.24376C21.6253 8.73184 22 9.49784 22 10.3113V19.4156C22 20.8429 20.8678 22 19.4713 22H4.52874C3.13215 22 2 20.8429 2 19.4156V10.3113C2 9.49784 2.37474 8.73184 3.01149 8.24376L10.4828 2.51689ZM12.5517 3.8326C12.2248 3.58199 11.7752 3.58199 11.4483 3.8326L3.97701 9.55947C3.74547 9.73696 3.6092 10.0155 3.6092 10.3113V19.4156C3.6092 19.9346 4.02089 20.3554 4.52874 20.3554H7.97703V16.0969C7.97703 14.7993 9.00626 13.7474 10.2759 13.7474H13.7242C14.9938 13.7474 16.023 14.7993 16.023 16.0969V20.3554H19.4713C19.9791 20.3554 20.3908 19.9346 20.3908 19.4156V10.3113C20.3908 10.0155 20.2545 9.73696 20.023 9.55947L12.5517 3.8326ZM13.7242 15.3921H10.2759C9.89499 15.3921 9.58622 15.7076 9.58622 16.0969V20.326H14.4138V16.0969C14.4138 15.7076 14.105 15.3921 13.7242 15.3921Z" fill="#0C0C0D"/>
</svg>
