<svg width="24" height="24" viewBox="0 0 24 24" fill="none" xmlns="http://www.w3.org/2000/svg">
<path fill-rule="evenodd" clip-rule="evenodd" d="M9.80366 2.53744C10.649 1.87024 11.8348 1.81947 12.7355 2.41191L18.4839 6.19283C18.8474 6.4319 18.9456 6.91639 18.7033 7.27499C18.461 7.63358 17.9699 7.73048 17.6065 7.49142L11.858 3.7105C11.5305 3.49507 11.0993 3.51353 10.7919 3.75615L3.92118 9.179C3.70675 9.34825 3.58192 9.60448 3.58192 9.87541V18.5475C3.58192 19.04 3.98664 19.4393 4.48588 19.4393H18.6102C19.047 19.4393 19.4011 19.7887 19.4011 20.2196C19.4011 20.6506 19.047 21 18.6102 21H4.48588C3.11296 21 2 19.902 2 18.5475V9.87541C2 9.13037 2.34327 8.42572 2.93296 7.96029L9.80366 2.53744Z" fill="#0C0C0D"/>
<path fill-rule="evenodd" clip-rule="evenodd" d="M17.4802 17.9901C19.9764 17.9901 22 15.9936 22 13.5309C22 11.0682 19.9764 9.07171 17.4802 9.07171C14.984 9.07171 12.9605 11.0682 12.9605 13.5309C12.9605 15.9936 14.984 17.9901 17.4802 17.9901ZM17.9181 11.3988V13.0989H19.6412C19.8831 13.0989 20.0791 13.2923 20.0791 13.5309C20.0791 13.7695 19.8831 13.9629 19.6412 13.9629H17.9181V15.6629C17.9181 15.9015 17.722 16.0949 17.4802 16.0949C17.2384 16.0949 17.0424 15.9015 17.0424 15.6629V13.9629H15.3192C15.0774 13.9629 14.8814 13.7695 14.8814 13.5309C14.8814 13.2923 15.0774 13.0989 15.3192 13.0989H17.0424V11.3988C17.0424 11.1603 17.2384 10.9669 17.4802 10.9669C17.722 10.9669 17.9181 11.1603 17.9181 11.3988Z" fill="#0C0C0D"/>
</svg>
