<svg width="24" height="24" viewBox="0 0 24 24" fill="none" xmlns="http://www.w3.org/2000/svg">
<path fill-rule="evenodd" clip-rule="evenodd" d="M18.2442 10.3915C18.547 10.1085 19.0264 10.1199 19.3148 10.4172L21.7911 13.0183C22.0696 13.3054 22.0696 13.7564 21.7911 14.0434L19.3148 16.6446C19.0264 16.9418 18.547 16.9533 18.2442 16.6702C17.9413 16.3872 17.9296 15.9167 18.218 15.6195L19.4757 14.2741H13.7178C13.2995 14.2741 12.9605 13.9413 12.9605 13.5309C12.9605 13.1204 13.2995 12.7877 13.7178 12.7877H19.4757L18.218 11.4423C17.9296 11.145 17.9413 10.6746 18.2442 10.3915Z" fill="#0C0C0D"/>
<path fill-rule="evenodd" clip-rule="evenodd" d="M9.80366 2.53744C10.649 1.87024 11.8348 1.81947 12.7355 2.41191L18.4839 6.19283C18.8474 6.4319 18.9456 6.91639 18.7033 7.27499C18.461 7.63358 17.9699 7.73048 17.6065 7.49142L11.858 3.7105C11.5305 3.49507 11.0993 3.51353 10.7919 3.75615L3.92118 9.179C3.70675 9.34825 3.58192 9.60448 3.58192 9.87541V18.5475C3.58192 19.04 3.98664 19.4393 4.48588 19.4393H18.6102C19.047 19.4393 19.4011 19.7887 19.4011 20.2196C19.4011 20.6506 19.047 21 18.6102 21H4.48588C3.11296 21 2 19.902 2 18.5475V9.87541C2 9.13037 2.34327 8.42572 2.93296 7.96029L9.80366 2.53744Z" fill="#0C0C0D"/>
</svg>
