<svg width="24" height="24" viewBox="0 0 24 24" fill="none" xmlns="http://www.w3.org/2000/svg">
<path fill-rule="evenodd" clip-rule="evenodd" d="M3 22C2.44772 22 2 21.5523 2 21V3C2 2.44772 2.44772 2 3 2H21C21.5523 2 22 2.44772 22 3V21C22 21.5523 21.5523 22 21 22H3ZM3.2 3.2V20.8H7V16.6C7 16.2686 7.26863 16 7.6 16C7.93137 16 8.2 16.2686 8.2 16.6V20.8H20.8V9.2H15.6C15.2686 9.2 15 8.93137 15 8.6C15 8.26863 15.2686 8 15.6 8L20.8 8V3.2H8.2V8H10.4C10.7314 8 11 8.26863 11 8.6C11 8.93137 10.7314 9.2 10.4 9.2H8.2V11.4C8.2 11.7314 7.93137 12 7.6 12C7.26863 12 7 11.7314 7 11.4V3.2H3.2Z" fill="#0C0C0D"/>
</svg>
