<svg width="24" height="24" viewBox="0 0 24 24" fill="none" xmlns="http://www.w3.org/2000/svg">
<path d="M12.5565 2.41191C11.6708 1.81947 10.5048 1.87024 9.67358 2.53744L2.91741 7.96029C2.33755 8.42572 2 9.13037 2 9.87541V18.5475C2 19.902 3.09441 21 4.44444 21H18.3333C18.7629 21 19.1111 20.6506 19.1111 20.2196C19.1111 19.7887 18.7629 19.4393 18.3333 19.4393H4.44444C3.95352 19.4393 3.55555 19.04 3.55555 18.5475V9.87541C3.55555 9.60448 3.6783 9.34825 3.88916 9.179L10.6453 3.75615C10.9476 3.51353 11.3716 3.49507 11.6937 3.7105L17.3463 7.49142C17.7037 7.73048 18.1866 7.63358 18.4249 7.27499C18.6632 6.91639 18.5666 6.43189 18.2092 6.19283L12.5565 2.41191Z" fill="#0C0C0D"/>
<path fill-rule="evenodd" clip-rule="evenodd" d="M12.4445 12.8819C12.4445 10.5929 14.2939 8.73727 16.5754 8.73727C18.8568 8.73727 20.7063 10.5929 20.7063 12.8819C20.7063 13.7769 20.4232 14.6063 19.9421 15.2839L21.7986 17.1465C22.0671 17.416 22.0671 17.8529 21.7986 18.1224C21.53 18.3919 21.0945 18.3919 20.8259 18.1224L18.9695 16.2598C18.2941 16.7424 17.4675 17.0265 16.5754 17.0265C14.2939 17.0265 12.4445 15.1709 12.4445 12.8819ZM16.5754 10.1174C15.0536 10.1174 13.82 11.3551 13.82 12.8819C13.82 14.4087 15.0536 15.6464 16.5754 15.6464C18.0971 15.6464 19.3307 14.4087 19.3307 12.8819C19.3307 11.3551 18.0971 10.1174 16.5754 10.1174Z" fill="#0C0C0D"/>
</svg>
