<svg width="24" height="24" viewBox="0 0 24 24" fill="none" xmlns="http://www.w3.org/2000/svg">
<path fill-rule="evenodd" clip-rule="evenodd" d="M9.80366 2.53744C10.649 1.87024 11.8348 1.81947 12.7355 2.41191L18.4839 6.19283C18.8474 6.4319 18.9456 6.91639 18.7033 7.27499C18.461 7.63358 17.9699 7.73048 17.6065 7.49142L11.858 3.7105C11.5305 3.49507 11.0993 3.51353 10.7919 3.75615L3.92118 9.179C3.70675 9.34825 3.58192 9.60448 3.58192 9.87541V18.5475C3.58192 19.04 3.98664 19.4393 4.48588 19.4393H18.6102C19.047 19.4393 19.4011 19.7887 19.4011 20.2196C19.4011 20.6506 19.047 21 18.6102 21H4.48588C3.11296 21 2 19.902 2 18.5475V9.87541C2 9.13037 2.34327 8.42572 2.93296 7.96029L9.80366 2.53744Z" fill="#0C0C0D"/>
<path fill-rule="evenodd" clip-rule="evenodd" d="M16.5118 9.07171C16.3336 9.07171 16.1825 9.19863 16.1573 9.36949L16.061 10.0221C16.0293 10.2371 15.883 10.4182 15.6889 10.527C15.4945 10.636 15.2607 10.6673 15.0523 10.5863L14.4204 10.3406C14.255 10.2764 14.066 10.3396 13.9769 10.4891L13.0085 12.1135C12.9193 12.263 12.9573 12.4532 13.0975 12.5597L13.6335 12.9672C13.8099 13.1013 13.899 13.3136 13.899 13.5309C13.899 13.7482 13.8099 13.9604 13.6335 14.0946L13.0975 14.502C12.9573 14.6086 12.9193 14.7988 13.0085 14.9483L13.9769 16.5727C14.066 16.7222 14.255 16.7854 14.4204 16.7211L15.0523 16.4755C15.2607 16.3945 15.4945 16.4258 15.6889 16.5347C15.883 16.6436 16.0293 16.8246 16.061 17.0397L16.1573 17.6923C16.1825 17.8631 16.3336 17.9901 16.5118 17.9901H18.4486C18.6269 17.9901 18.778 17.8631 18.8032 17.6923L18.8994 17.0397C18.9311 16.8246 19.0774 16.6436 19.2715 16.5347C19.4659 16.4258 19.6997 16.3945 19.9081 16.4755L20.54 16.7211C20.7054 16.7854 20.8945 16.7222 20.9836 16.5727L21.952 14.9483C22.0411 14.7988 22.0032 14.6086 21.863 14.502L21.327 14.0946C21.1505 13.9604 21.0614 13.7481 21.0614 13.5309C21.0614 13.3136 21.1505 13.1013 21.327 12.9672L21.863 12.5597C22.0031 12.4532 22.0411 12.263 21.952 12.1135L20.9836 10.4891C20.8945 10.3396 20.7054 10.2763 20.54 10.3406L19.9082 10.5863C19.6997 10.6673 19.4659 10.636 19.2715 10.527C19.0774 10.4182 18.9311 10.2371 18.8994 10.0221L18.8032 9.36949C18.778 9.19863 18.6269 9.07171 18.4486 9.07171H16.5118ZM17.4802 15.5127C18.6104 15.5127 19.5266 14.6254 19.5266 13.5309C19.5266 12.4363 18.6104 11.549 17.4802 11.549C16.35 11.549 15.4338 12.4363 15.4338 13.5309C15.4338 14.6254 16.35 15.5127 17.4802 15.5127Z" fill="#0C0C0D"/>
</svg>
