<svg width="24" height="24" viewBox="0 0 24 24" fill="none" xmlns="http://www.w3.org/2000/svg">
<path fill-rule="evenodd" clip-rule="evenodd" d="M9.22222 9.97333C10.5109 9.97333 11.5556 8.97045 11.5556 7.73333C11.5556 6.49622 10.5109 5.49333 9.22222 5.49333C7.93356 5.49333 6.88889 6.49622 6.88889 7.73333C6.88889 8.97045 7.93356 9.97333 9.22222 9.97333ZM9.22222 11.4667C11.37 11.4667 13.1111 9.7952 13.1111 7.73333C13.1111 5.67147 11.37 4 9.22222 4C7.07445 4 5.33333 5.67147 5.33333 7.73333C5.33333 9.7952 7.07445 11.4667 9.22222 11.4667Z" fill="#0C0C0D"/>
<path fill-rule="evenodd" clip-rule="evenodd" d="M14.2222 18.5067H4.22222C3.85403 18.5067 3.55556 18.2201 3.55556 17.8667C3.55556 15.7459 5.34642 14.0267 7.55556 14.0267H10.8889C13.098 14.0267 14.8889 15.7459 14.8889 17.8667C14.8889 18.2201 14.5904 18.5067 14.2222 18.5067ZM14.2222 20C15.4495 20 16.4444 19.0449 16.4444 17.8667C16.4444 14.9211 13.9571 12.5333 10.8889 12.5333H7.55556C4.48731 12.5333 2 14.9211 2 17.8667C2 19.0449 2.99492 20 4.22222 20H14.2222Z" fill="#0C0C0D"/>
<path fill-rule="evenodd" clip-rule="evenodd" d="M13.6358 9.99083C14.0101 9.31793 14.2222 8.54942 14.2222 7.73333C14.2222 7.17873 14.1242 6.64609 13.944 6.1505C14.5548 5.48588 15.4486 5.06667 16.4444 5.06667C18.2854 5.06667 19.7778 6.49936 19.7778 8.26667C19.7778 10.034 18.2854 11.4667 16.4444 11.4667C15.2648 11.4667 14.2283 10.8784 13.6358 9.99083ZM16.4444 9.97333C17.4263 9.97333 18.2222 9.20923 18.2222 8.26667C18.2222 7.3241 17.4263 6.56 16.4444 6.56C15.4626 6.56 14.6667 7.3241 14.6667 8.26667C14.6667 9.20923 15.4626 9.97333 16.4444 9.97333Z" fill="#0C0C0D"/>
<path d="M17.3659 18.9333H19.7778C21.0051 18.9333 22 17.9782 22 16.8C22 14.4436 20.0102 12.5333 17.5556 12.5333H15.3333C15.1017 12.5333 14.8742 12.5503 14.6522 12.5831C15.2542 12.979 15.7851 13.4673 16.2227 14.0267H17.5556C19.151 14.0267 20.4444 15.2683 20.4444 16.8C20.4444 17.1535 20.146 17.44 19.7778 17.44H17.541C17.5506 17.581 17.5556 17.7233 17.5556 17.8667C17.5556 18.2407 17.4887 18.5997 17.3659 18.9333Z" fill="#0C0C0D"/>
</svg>
