<svg width="24" height="24" viewBox="0 0 24 24" fill="none" xmlns="http://www.w3.org/2000/svg">
<path d="M12 15.375C12.6137 15.375 13.1111 14.8713 13.1111 14.25C13.1111 13.6287 12.6137 13.125 12 13.125C11.3864 13.125 10.8889 13.6287 10.8889 14.25C10.8889 14.8713 11.3864 15.375 12 15.375Z" fill="#0C0C0D"/>
<path fill-rule="evenodd" clip-rule="evenodd" d="M12 17.625C13.841 17.625 15.3333 16.114 15.3333 14.25C15.3333 12.386 13.841 10.875 12 10.875C10.1591 10.875 8.66667 12.386 8.66667 14.25C8.66667 16.114 10.1591 17.625 12 17.625ZM12 16.5C13.2273 16.5 14.2222 15.4926 14.2222 14.25C14.2222 13.0074 13.2273 12 12 12C10.7727 12 9.77778 13.0074 9.77778 14.25C9.77778 15.4926 10.7727 16.5 12 16.5Z" fill="#0C0C0D"/>
<path fill-rule="evenodd" clip-rule="evenodd" d="M4.22222 7.5C2.99492 7.5 2 6.49264 2 5.25C2 4.00736 2.99492 3 4.22222 3H19.7778C21.0051 3 22 4.00736 22 5.25C22 6.49264 21.0051 7.5 19.7778 7.5V13.125C19.7778 17.4742 16.2955 21 12 21C7.70445 21 4.22222 17.4742 4.22222 13.125V7.5ZM4.22222 4.125H19.7778C20.3914 4.125 20.8889 4.62868 20.8889 5.25C20.8889 5.87132 20.3914 6.375 19.7778 6.375H4.22222C3.60857 6.375 3.11111 5.87132 3.11111 5.25C3.11111 4.62868 3.60857 4.125 4.22222 4.125ZM5.33333 12V13.125C5.33333 16.8529 8.3181 19.875 12 19.875C15.6819 19.875 18.6667 16.8529 18.6667 13.125V12C16.2121 12 14.2222 9.98528 14.2222 7.5H9.77778C9.77778 9.98528 7.78793 12 5.33333 12ZM5.33333 10.875C7.17428 10.875 8.66667 9.36396 8.66667 7.5H5.33333V10.875ZM18.6667 7.5V10.875C16.8257 10.875 15.3333 9.36396 15.3333 7.5H18.6667Z" fill="#0C0C0D"/>
</svg>
