<svg width="24" height="24" viewBox="0 0 24 24" fill="none" xmlns="http://www.w3.org/2000/svg">
<path fill-rule="evenodd" clip-rule="evenodd" d="M15.5967 16.6118C14.2653 17.7162 12.5552 18.3802 10.6901 18.3802C6.44298 18.3802 3 14.9372 3 10.6901C3 6.44298 6.44298 3 10.6901 3C14.9373 3 18.3802 6.44298 18.3802 10.6901C18.3802 12.5552 17.7163 14.2652 16.6118 15.5967L20.7898 19.7747C21.0701 20.055 21.0701 20.5095 20.7898 20.7898C20.5095 21.0701 20.055 21.0701 19.7747 20.7898L15.5967 16.6118ZM16.9447 10.6901C16.9447 14.1444 14.1445 16.9447 10.6901 16.9447C7.23578 16.9447 4.43549 14.1444 4.43549 10.6901C4.43549 7.23577 7.23578 4.43549 10.6901 4.43549C14.1445 4.43549 16.9447 7.23577 16.9447 10.6901Z" fill="#0C0C0D"/>
</svg>
