<svg width="24" height="24" viewBox="0 0 24 24" fill="none" xmlns="http://www.w3.org/2000/svg">
<path fill-rule="evenodd" clip-rule="evenodd" d="M19.5663 3.07112C20.4179 2.74807 21.2519 3.58205 20.9289 4.43372L14.5244 21.3181C14.1805 22.225 12.8986 22.228 12.5504 21.3227L9.97645 14.6304C9.86913 14.3514 9.64862 14.1309 9.36959 14.0236L2.67728 11.4496C1.772 11.1014 1.77496 9.81955 2.68185 9.47556L19.5663 3.07112ZM17.5276 5.42645L4.241 10.4662L9.90059 12.643C9.99761 12.6803 10.0917 12.7233 10.1824 12.7716L17.5276 5.42645ZM11.2284 13.8176C11.2767 13.9083 11.3197 14.0024 11.357 14.0994L13.5338 19.759L18.5736 6.47235L11.2284 13.8176Z" fill="#0C0C0D"/>
</svg>
