<svg width="24" height="24" viewBox="0 0 24 24" fill="none" xmlns="http://www.w3.org/2000/svg">
<path fill-rule="evenodd" clip-rule="evenodd" d="M10.0716 3C9.71675 3 9.41587 3.25615 9.36569 3.601L9.174 4.91815C9.11084 5.35216 8.81957 5.71766 8.43301 5.93728C8.04593 6.15719 7.58038 6.22037 7.16533 6.05684L5.90714 5.56111C5.5778 5.43134 5.20138 5.55904 5.02394 5.86073L3.09559 9.13932C2.91815 9.441 2.9937 9.82485 3.27285 10.0399L4.34014 10.8623C4.69153 11.1331 4.86886 11.5615 4.86886 12C4.86886 12.4385 4.69152 12.867 4.34012 13.1377L3.27285 13.9601C2.9937 14.1752 2.91815 14.559 3.09559 14.8607L5.02394 18.1393C5.20138 18.441 5.5778 18.5687 5.90714 18.4389L7.16538 17.9432C7.58042 17.7796 8.04595 17.8428 8.43302 18.0627C8.81957 18.2823 9.11084 18.6478 9.174 19.0818L9.36569 20.399C9.41587 20.7439 9.71675 21 10.0716 21H13.9283C14.2832 21 14.5841 20.7438 14.6343 20.399L14.826 19.0818C14.8891 18.6478 15.1804 18.2823 15.5669 18.0627C15.954 17.8428 16.4196 17.7796 16.8346 17.9432L18.0929 18.4389C18.4222 18.5687 18.7986 18.441 18.9761 18.1393L20.9044 14.8607C21.0819 14.559 21.0063 14.1752 20.7271 13.9601L19.6598 13.1377C19.3084 12.867 19.1311 12.4385 19.1311 12C19.1311 11.5615 19.3084 11.133 19.6598 10.8623L20.7271 10.0399C21.0063 9.82484 21.0818 9.44099 20.9044 9.1393L18.976 5.86071C18.7986 5.55903 18.4222 5.43133 18.0928 5.56109L16.8346 6.05683C16.4196 6.22036 15.954 6.15718 15.5669 5.93727C15.1804 5.71766 14.8891 5.35216 14.826 4.91815L14.6343 3.60101C14.5841 3.25615 14.2832 3 13.9283 3H10.0716ZM12 16C14.2505 16 16.0749 14.2091 16.0749 12C16.0749 9.79086 14.2505 8 12 8C9.74947 8 7.92506 9.79086 7.92506 12C7.92506 14.2091 9.74947 16 12 16Z" fill="#0C0C0D"/>
</svg>
