<svg width="24" height="24" viewBox="0 0 24 24" fill="none" xmlns="http://www.w3.org/2000/svg">
<path fill-rule="evenodd" clip-rule="evenodd" d="M13.0942 9.46838C13.0942 9.66776 12.9396 9.8367 12.7318 9.86448L11.8258 9.98556C7.71855 10.5345 4.45894 13.4622 3.66119 17.1989C5.85663 15.4328 8.60002 14.3532 11.5005 14.1282L12.6389 14.0399C12.8841 14.0209 13.0942 14.2048 13.0942 14.4386V18.6468L20.2083 12L13.0942 5.35321V9.46838ZM3.47368 19.3121C3.47221 19.3136 3.47073 19.3152 3.46926 19.3167C3.44 19.3473 3.4109 19.378 3.38197 19.4089C3.29278 19.5042 3.20512 19.6009 3.11903 19.6993L3.06286 19.7634C2.7063 20.1706 2 19.935 2 19.4089V18.9797C2 18.9609 2.00005 18.9422 2.00016 18.9235C2.00036 18.8876 2.00075 18.8517 2.00134 18.8159C2.00145 18.8091 2.00157 18.8022 2.0017 18.7954C2.00176 18.7922 2.00182 18.7891 2.00188 18.7859C2.10262 13.5902 6.24786 9.31722 11.6205 8.59921V3.70051C11.6205 3.07767 12.4265 2.76575 12.8979 3.20617L21.7808 11.5057C22.0731 11.7787 22.0731 12.2213 21.7808 12.4943L12.8979 20.7938C12.4265 21.2342 11.6205 20.9223 11.6205 20.2995V15.5236C11.1232 15.5621 10.6311 15.6288 10.1468 15.7224C7.58544 16.2177 5.2404 17.4676 3.47368 19.3121Z" fill="#0C0C0D"/>
</svg>
