<svg width="24" height="24" viewBox="0 0 24 24" fill="none" xmlns="http://www.w3.org/2000/svg">
<path fill-rule="evenodd" clip-rule="evenodd" d="M18.7146 18.2928C19.095 18.6833 19.0951 19.3166 18.7147 19.7071C18.3343 20.0977 17.7175 20.0976 17.3372 19.7071L10.5191 12.7071C10.1387 12.3166 10.1387 11.6834 10.5191 11.2929L17.3372 4.29289C17.7176 3.90237 18.3343 3.90237 18.7147 4.29289C19.0951 4.68342 19.0951 5.31658 18.7147 5.70711L12.5853 12L18.7146 18.2928Z" fill="#0C0C0D"/>
<path fill-rule="evenodd" clip-rule="evenodd" d="M12.4808 18.2928C12.8612 18.6833 12.8613 19.3166 12.4809 19.7071C12.1005 20.0977 11.4838 20.0976 11.1034 19.7071L4.28529 12.7071C3.9049 12.3166 3.9049 11.6834 4.28529 11.2929L11.1035 4.29289C11.4838 3.90237 12.1006 3.90237 12.4809 4.29289C12.8613 4.68342 12.8613 5.31658 12.4809 5.70711L6.3515 12L12.4808 18.2928Z" fill="#0C0C0D"/>
</svg>
