<svg width="24" height="24" viewBox="0 0 24 24" fill="none" xmlns="http://www.w3.org/2000/svg">
<path fill-rule="evenodd" clip-rule="evenodd" d="M5.28542 18.2928C4.90504 18.6833 4.9049 19.3166 5.28529 19.7071C5.66569 20.0977 6.28245 20.0976 6.66281 19.7071L13.4809 12.7071C13.8613 12.3166 13.8613 11.6834 13.4809 11.2929L6.66276 4.29289C6.28238 3.90237 5.66567 3.90237 5.28529 4.29289C4.9049 4.68342 4.9049 5.31658 5.28529 5.70711L11.4147 12L5.28542 18.2928Z" fill="#0C0C0D"/>
<path fill-rule="evenodd" clip-rule="evenodd" d="M11.5192 18.2928C11.1388 18.6833 11.1387 19.3166 11.5191 19.7071C11.8995 20.0977 12.5162 20.0976 12.8966 19.7071L19.7147 12.7071C20.0951 12.3166 20.0951 11.6834 19.7147 11.2929L12.8965 4.29289C12.5162 3.90237 11.8994 3.90237 11.5191 4.29289C11.1387 4.68342 11.1387 5.31658 11.5191 5.70711L17.6485 12L11.5192 18.2928Z" fill="#0C0C0D"/>
</svg>
