<svg width="24" height="24" viewBox="0 0 24 24" fill="none" xmlns="http://www.w3.org/2000/svg">
<path fill-rule="evenodd" clip-rule="evenodd" d="M15.7059 2C14.5569 2 13.2362 2.33297 12.1923 3.21322C11.7256 3.60671 11.3252 4.10049 11.023 4.70314C10.9958 4.70285 10.9685 4.7027 10.9412 4.7027C9.53564 4.7027 8.2391 5.08951 7.27848 5.74334C6.32156 6.39465 5.64706 7.35383 5.64706 8.48649V9.56757C5.64706 9.8661 5.88408 10.1081 6.17647 10.1081H15.7059C15.9983 10.1081 16.2353 9.8661 16.2353 9.56757V8.48649C16.2353 7.35383 15.5608 6.39465 14.6039 5.74334C13.9362 5.2889 13.1062 4.96346 12.1902 4.80722C12.3887 4.50709 12.6185 4.25596 12.8665 4.04678C13.6756 3.3646 14.7373 3.08108 15.7059 3.08108C16.6745 3.08108 17.7362 3.3646 18.5452 4.04678C19.3365 4.71397 19.9412 5.80797 19.9412 7.5573V21.4595C19.9412 21.758 20.1782 22 20.4706 22C20.763 22 21 21.758 21 21.4595V7.5573C21 5.52285 20.2812 4.10846 19.2195 3.21322C18.1756 2.33297 16.8549 2 15.7059 2ZM6.70588 8.48649C6.70588 7.82779 7.09814 7.16535 7.86578 6.64288C8.62971 6.12292 9.71552 5.78378 10.9412 5.78378C12.1668 5.78378 13.2526 6.12292 14.0166 6.64288C14.7842 7.16535 15.1765 7.82779 15.1765 8.48649V9.02703H6.70588V8.48649Z" fill="#0C0C0D"/>
<path d="M11.0318 11.7297C11.3242 11.7297 11.5613 11.9717 11.5613 12.2703V12.8108C11.5613 13.1093 11.3242 13.3513 11.0318 13.3513C10.7395 13.3513 10.5024 13.1093 10.5024 12.8108V12.2703C10.5024 11.9717 10.7395 11.7297 11.0318 11.7297Z" fill="#0C0C0D"/>
<path d="M7.06809 11.7785C7.34285 11.8806 7.48456 12.1908 7.38459 12.4713L7.20353 12.9794C7.10356 13.2599 6.79978 13.4046 6.52502 13.3026C6.25025 13.2005 6.10855 12.8903 6.20852 12.6098L6.38958 12.1017C6.48954 11.8211 6.79332 11.6765 7.06809 11.7785Z" fill="#0C0C0D"/>
<path d="M11.5613 16.0541C11.5613 15.7555 11.3242 15.5135 11.0318 15.5135C10.7395 15.5135 10.5024 15.7555 10.5024 16.0541V17.1351C10.5024 17.4337 10.7395 17.6757 11.0318 17.6757C11.3242 17.6757 11.5613 17.4337 11.5613 17.1351V16.0541Z" fill="#0C0C0D"/>
<path d="M5.57039 15.5785C5.84515 15.6806 5.98685 15.9908 5.88688 16.2713L5.52477 17.2875C5.4248 17.5681 5.12102 17.7127 4.84625 17.6107C4.57149 17.5086 4.42979 17.1984 4.52975 16.9179L4.89187 15.9017C4.99184 15.6211 5.29562 15.4765 5.57039 15.5785Z" fill="#0C0C0D"/>
<path d="M11.5613 20.3784C11.5613 20.0798 11.3242 19.8378 11.0318 19.8378C10.7395 19.8378 10.5024 20.0798 10.5024 20.3784V20.9189C10.5024 21.2174 10.7395 21.4595 11.0318 21.4595C11.3242 21.4595 11.5613 21.2174 11.5613 20.9189V20.3784Z" fill="#0C0C0D"/>
<path d="M3.89162 19.8866C4.16639 19.9887 4.30809 20.2989 4.20812 20.5794L4.02706 21.0875C3.92709 21.3681 3.62331 21.5127 3.34855 21.4107C3.07378 21.3086 2.93208 20.9984 3.03205 20.7179L3.21311 20.2098C3.31308 19.9292 3.61686 19.7846 3.89162 19.8866Z" fill="#0C0C0D"/>
</svg>
