<svg width="24" height="24" viewBox="0 0 24 24" fill="none" xmlns="http://www.w3.org/2000/svg">
<path d="M8.50119 18.0648C9.53097 18.6607 10.7266 19.0017 12.002 19.0017C15.8679 19.0017 19.002 15.8677 19.002 12.0017C19.002 8.13572 15.8679 5.00171 12.002 5.00171C8.13596 5.00171 5.00195 8.13572 5.00195 12.0017C5.00195 12.8301 4.33038 13.5017 3.50195 13.5017C2.67353 13.5017 2.00195 12.8301 2.00195 12.0017C2.00195 6.47886 6.47911 2.00171 12.002 2.00171C17.5248 2.00171 22.002 6.47886 22.002 12.0017C22.002 17.5246 17.5248 22.0017 12.002 22.0017C10.1828 22.0017 8.47709 21.516 7.00747 20.6671C7.00529 20.6658 7.00311 20.6646 7.00093 20.6633C6.28349 20.2491 6.03768 19.3317 6.45189 18.6143C6.86611 17.8968 7.78375 17.6506 8.50119 18.0648Z" fill="#0C0C0D"/>
</svg>
