<svg width="24" height="24" viewBox="0 0 24 24" fill="none" xmlns="http://www.w3.org/2000/svg">
<path fill-rule="evenodd" clip-rule="evenodd" d="M20.3728 5.16225C21.2407 6.07462 21.2407 7.55385 20.3728 8.46622L8.61078 20.8319H21.4444C21.7513 20.8319 22 21.0934 22 21.4159C22 21.7385 21.7513 22 21.4444 22H2.55556C2.24873 22 2 21.7385 2 21.4159L2.00001 21.4133L2 16.8954C2 16.4617 2.16389 16.0457 2.45561 15.739L14.8731 2.68427C15.7409 1.77191 17.148 1.77191 18.0158 2.68428L20.3728 5.16225ZM19.5871 5.98824L17.2301 3.51027C16.7962 3.05408 16.0927 3.05408 15.6588 3.51027L14.4325 4.79943L18.3609 8.92938L19.5871 7.64023C20.0211 7.18404 20.0211 6.44442 19.5871 5.98824ZM17.5752 9.75538L13.6469 5.62542L3.24129 16.565C3.15794 16.6526 3.11111 16.7715 3.11111 16.8954L3.11112 20.8318L6.85539 20.8318C6.97326 20.8318 7.08631 20.7826 7.16966 20.695L17.5752 9.75538Z" fill="#0C0C0D"/>
</svg>
