<svg width="24" height="24" viewBox="0 0 24 24" fill="none" xmlns="http://www.w3.org/2000/svg">
<path fill-rule="evenodd" clip-rule="evenodd" d="M10.3094 6.58015C10.3103 5.9149 10.0558 5.27468 9.59847 4.79166C9.59847 4.79166 8.0526 2.78543 8.02672 2.75955C7.55049 2.28011 6.90479 2.00733 6.22913 2.00015C5.55348 1.99296 4.90213 2.25194 4.4158 2.72114L3.4559 3.55603C-2.98716 10.4104 13.6393 27.0481 20.4838 20.5042L21.2451 19.6276C21.7285 19.1425 22 18.4854 22 17.8004C22 17.1155 21.7285 16.4584 21.2451 15.9733C21.2175 15.9508 19.2076 14.4037 19.2076 14.4037C18.7256 13.945 18.0855 13.6897 17.4203 13.6906C16.755 13.6915 16.1157 13.9487 15.635 14.4087L14.2508 15.5754C14.1238 15.6824 13.9474 15.7104 13.7957 15.643C12.595 15.11 11.5022 14.3595 10.5729 13.4285C9.64349 12.4974 8.89475 11.403 8.36374 10.2009C8.2968 10.0493 8.32486 9.87344 8.43157 9.7467L9.59346 8.36665C10.0522 7.88491 10.3084 7.24541 10.3094 6.58015ZM18.1352 15.5305L18.1942 15.5867L20.1952 17.1275C20.3554 17.3141 20.4444 17.5527 20.4444 17.8004C20.4444 18.0738 20.3361 18.336 20.1432 18.5295L20.1055 18.5674L19.3605 19.4253C18.2022 20.4964 16.5602 20.7334 14.4881 20.0942C12.3737 19.442 10.0652 17.9287 8.08582 15.9534C6.10675 13.9784 4.58464 11.669 3.92006 9.55051C3.26843 7.47328 3.4939 5.82945 4.54069 4.67413L5.46696 3.8685L5.49586 3.84062C5.68814 3.65511 5.9456 3.55277 6.21259 3.55561C6.457 3.55821 6.69155 3.64876 6.87392 3.80947L6.87539 3.81134C6.91844 3.8665 6.97962 3.94528 7.05362 4.04078C7.2013 4.23136 7.39626 4.48367 7.59098 4.73589L8.41454 5.80375L8.46892 5.86118C8.65216 6.05471 8.75418 6.31129 8.7538 6.57797C8.75343 6.84465 8.6507 7.10095 8.46691 7.29396L8.43412 7.32841L7.24159 8.74484C6.76675 9.30884 6.62494 10.1143 6.94083 10.8294C7.54922 12.2067 8.40708 13.4606 9.47199 14.5275C10.5367 15.5941 11.7888 16.4541 13.1646 17.0648C13.8807 17.3827 14.6882 17.241 15.2532 16.7648L16.6751 15.5665L16.7106 15.5325C16.9023 15.349 17.1572 15.2465 17.4225 15.2462C17.6877 15.2458 17.9429 15.3476 18.1352 15.5305Z" fill="#0C0C0D"/>
<path d="M18.2574 5.74258C16.0576 3.54278 14.0307 3.46696 13.4826 3.59345C13.064 3.69004 12.6464 3.42903 12.5498 3.01048C12.4532 2.59192 12.7142 2.17432 13.1328 2.07773C14.287 1.81138 16.8431 2.1284 19.3574 4.64264C21.8716 7.15688 22.1886 9.71303 21.9223 10.8672C21.8257 11.2858 21.4081 11.5468 20.9895 11.4502C20.571 11.3536 20.31 10.936 20.4066 10.5174C20.533 9.96934 20.4572 7.94239 18.2574 5.74258Z" fill="#0C0C0D"/>
<path d="M15.9004 8.09962C15.175 7.37427 14.4651 7.4599 14.3393 7.50184C13.9318 7.63768 13.4913 7.41744 13.3555 7.00993C13.2196 6.60242 13.4399 6.16195 13.8474 6.02611C14.5072 5.80616 15.8401 5.83942 17.0003 6.99968C18.1606 8.15994 18.1938 9.49278 17.9739 10.1526C17.838 10.5601 17.3976 10.7804 16.9901 10.6445C16.5826 10.5087 16.3623 10.0682 16.4982 9.66072C16.5401 9.53489 16.6257 8.82498 15.9004 8.09962Z" fill="#0C0C0D"/>
</svg>
