<svg width="24" height="24" viewBox="0 0 24 24" fill="none" xmlns="http://www.w3.org/2000/svg">
<path fill-rule="evenodd" clip-rule="evenodd" d="M19 4V13H20.5C20.7761 13 21 13.2239 21 13.5C21 13.7761 20.7761 14 20.5 14H19.5V18H20C20.5523 18 21 18.4477 21 19V20C21 20.5523 20.5523 21 20 21H4C3.44772 21 3 20.5523 3 20V19C3 18.4477 3.44772 18 4 18H4.5V14H3.5C3.22386 14 3 13.7761 3 13.5C3 13.2239 3.22386 13 3.5 13H5V4C5 3.44772 5.44772 3 6 3H18C18.5523 3 19 3.44772 19 4ZM6 4H18V13H17.5V5C17.5 4.72386 17.2761 4.5 17 4.5H7C6.72386 4.5 6.5 4.72386 6.5 5V13H6V4ZM16 14H18.5V18H16V14ZM12.5 14H15V18H12.5V14ZM9 14H11.5V18H9V14ZM8 14V18H5.5V14H8ZM16.5 5.5V13H12.5V5.5H16.5ZM11.5 5.5H7.5V13H11.5V5.5ZM4 20V19H20V20H4Z" fill="#0C0C0D"/>
</svg>
