<svg width="24" height="24" viewBox="0 0 24 24" fill="none" xmlns="http://www.w3.org/2000/svg">
<path fill-rule="evenodd" clip-rule="evenodd" d="M11.1652 4.34164L7.98193 10H4.98193C4.42965 10 3.98193 10.4477 3.98193 11V18C3.98193 18.5523 4.42965 19 4.98193 19H16.7792C17.7394 19 18.5642 18.3175 18.7438 17.3742L19.9819 10.8742C20.2167 9.64178 19.2719 8.50001 18.0173 8.50001H14.6594C14.5614 8.50001 14.4819 8.42058 14.4819 8.32259V6C14.4819 4.73428 13.4559 3.7082 12.1901 3.7082C11.7561 3.7082 11.3593 3.95343 11.1652 4.34164ZM9.38193 17.6H16.7792C17.0672 17.6 17.3147 17.3953 17.3686 17.1123L18.6067 10.6123C18.6771 10.2425 18.3936 9.90001 18.0173 9.90001H14.6594C13.7882 9.90001 13.0819 9.19378 13.0819 8.32259V6C13.0819 5.55884 12.7616 5.1925 12.3408 5.12088L9.38193 10.3305V17.6ZM5.38193 11.4H7.98193V17.6H5.38193V11.4Z" fill="#0C0C0D"/>
</svg>
