<svg width="24" height="24" viewBox="0 0 24 24" fill="none" xmlns="http://www.w3.org/2000/svg">
<path d="M12.7778 6.99999C12.7778 6.57043 12.4296 6.22221 12 6.22221C11.5704 6.22221 11.2222 6.57043 11.2222 6.99999V12C11.2222 12.2063 11.3042 12.4041 11.45 12.55L15.3389 16.4388C15.6427 16.7426 16.1351 16.7426 16.4389 16.4388C16.7426 16.1351 16.7426 15.6426 16.4389 15.3389L12.7778 11.6778V6.99999Z" fill="#0C0C0D"/>
<path fill-rule="evenodd" clip-rule="evenodd" d="M22 12C22 17.5228 17.5228 22 12 22C6.47715 22 2 17.5228 2 12C2 6.47715 6.47715 2 12 2C17.5228 2 22 6.47715 22 12ZM20.4444 12C20.4444 16.6637 16.6637 20.4444 12 20.4444C7.33626 20.4444 3.55556 16.6637 3.55556 12C3.55556 7.33626 7.33626 3.55556 12 3.55556C16.6637 3.55556 20.4444 7.33626 20.4444 12Z" fill="#0C0C0D"/>
</svg>
