<svg width="24" height="24" viewBox="0 0 24 24" fill="none" xmlns="http://www.w3.org/2000/svg">
<path d="M7 5.33333C7 5.02651 7.24873 4.77778 7.55556 4.77778H10.3333C10.6402 4.77778 10.8889 5.02651 10.8889 5.33333C10.8889 5.64016 10.6402 5.88889 10.3333 5.88889H7.55556C7.24873 5.88889 7 5.64016 7 5.33333Z" fill="#0C0C0D"/>
<path fill-rule="evenodd" clip-rule="evenodd" d="M19.7778 8.66666C21.0051 8.66666 22 9.66158 22 10.8889V12C22 14.9109 20.1344 17.386 17.5336 18.295C17.5499 18.4101 17.5556 18.5517 17.5556 18.6667V19.7778C17.5556 21.0051 16.5606 22 15.3333 22H8.66667C7.43937 22 6.44444 21.0051 6.44444 19.7778V18.6667C6.44444 18.5534 6.44989 18.4098 6.46564 18.2948C3.86526 17.3856 2 14.9106 2 12V10.8889C2 9.66158 2.99492 8.66666 4.22222 8.66666V4.22222C4.22222 2.99492 5.21715 2 6.44444 2H17.5556C18.7829 2 19.7778 2.99492 19.7778 4.22222V8.66666ZM17.5556 3.11111H6.44444C5.8308 3.11111 5.33333 3.60857 5.33333 4.22222V8.66666H18.6667V4.22222C18.6667 3.60857 18.1692 3.11111 17.5556 3.11111ZM3.13854 12.5555C3.41728 15.3629 5.78592 17.5555 8.66667 17.5555H15.3333C18.2141 17.5555 20.5827 15.3629 20.8615 12.5555H3.13854ZM20.8889 11.4444H3.11111V10.8889C3.11111 10.2752 3.60857 9.77777 4.22222 9.77777H19.7778C20.3914 9.77777 20.8889 10.2752 20.8889 10.8889V11.4444ZM7.5551 18.6309C7.55479 18.6129 7.55444 18.5925 7.55447 18.5743C7.91615 18.635 8.28772 18.6667 8.66667 18.6667H15.3333C15.7123 18.6667 16.0838 18.635 16.4455 18.5743C16.4456 18.5925 16.4452 18.6131 16.4449 18.6315C16.4447 18.6451 16.4444 18.6574 16.4444 18.6667V19.7778C16.4444 20.3914 15.947 20.8889 15.3333 20.8889H8.66667C8.05302 20.8889 7.55556 20.3914 7.55556 19.7778V18.6667L7.55532 18.6439L7.5551 18.6309Z" fill="#0C0C0D"/>
</svg>
