<svg width="24" height="24" viewBox="0 0 24 24" fill="none" xmlns="http://www.w3.org/2000/svg">
<path fill-rule="evenodd" clip-rule="evenodd" d="M11.4145 3.11082L2.99105 5.869C1.66965 6.38846 1.66965 8.22677 2.99104 8.74623L11.4145 11.5044C11.7904 11.6522 12.2097 11.6522 12.5855 11.5044L20.4234 8.93798V16.8031C20.4234 17.231 20.7763 17.5778 21.2117 17.5778C21.647 17.5778 21.9999 17.231 21.9999 16.8031V7.61713C21.9999 7.57016 21.9957 7.5335 21.9875 7.50546C22.0699 6.85453 21.7437 6.15786 21.009 5.869L12.5855 3.11082C12.2097 2.96306 11.7904 2.96306 11.4145 3.11082ZM12 4.54944L3.57657 7.30761L12 10.0658L20.4234 7.30762L12 4.54944Z" fill="#0C0C0D"/>
<path d="M17.1802 16.573V11.7525L18.7567 11.2362V16.573C18.7567 17.4114 18.2747 18.1779 17.5117 18.5528L13.0072 20.7663C12.3732 21.0779 11.6268 21.0779 10.9928 20.7663L6.4883 18.5528C5.72528 18.1779 5.2433 17.4114 5.2433 16.573V11.2362L6.81986 11.7524V16.573C6.81986 16.8245 6.96446 17.0545 7.19337 17.167L11.6978 19.3805C11.8881 19.4739 12.112 19.4739 12.3022 19.3805L16.8067 17.167C17.0356 17.0545 17.1802 16.8245 17.1802 16.573Z" fill="#0C0C0D"/>
</svg>
