<svg width="24" height="24" viewBox="0 0 24 24" fill="none" xmlns="http://www.w3.org/2000/svg">
<path d="M2.99105 5.869L11.4145 3.11082C11.7904 2.96306 12.2097 2.96306 12.5855 3.11082L21.009 5.869C21.7437 6.15786 22.0699 6.85453 21.9875 7.50547C21.9957 7.53351 21.9999 7.57016 21.9999 7.61713V16.8031C21.9999 17.231 21.647 17.5778 21.2117 17.5778C20.7763 17.5778 20.4234 17.231 20.4234 16.8031V8.93798L12.5855 11.5044C12.2097 11.6522 11.7904 11.6522 11.4145 11.5044L2.99104 8.74624C1.66965 8.22678 1.66965 6.38846 2.99105 5.869Z" fill="#0C0C0D"/>
<path d="M5.24327 11.2362L10.8797 13.0818C11.6014 13.3514 12.3988 13.3514 13.1204 13.0818L18.7567 11.2362V16.573C18.7567 17.4114 18.2747 18.1779 17.5117 18.5528L13.0072 20.7663C12.3732 21.0779 11.6268 21.0779 10.9928 20.7663L6.48828 18.5528C5.72526 18.1779 5.24327 17.4114 5.24327 16.573V11.2362Z" fill="#0C0C0D"/>
</svg>
