<svg width="24" height="24" viewBox="0 0 24 24" fill="none" xmlns="http://www.w3.org/2000/svg">
<path d="M8.05115 8.85002C7.74361 9.15756 7.24499 9.15756 6.93746 8.85002C6.62992 8.54249 6.62992 8.04387 6.93746 7.73633L11.4431 3.23065C11.5908 3.08297 11.7911 3 12 3C12.2088 3 12.4091 3.08297 12.5568 3.23065L17.0625 7.73633C17.37 8.04387 17.37 8.54249 17.0625 8.85002C16.755 9.15756 16.2563 9.15756 15.9488 8.85002L12.7875 5.68869V14.025C12.7875 14.4599 12.4349 14.8125 12 14.8125C11.5651 14.8125 11.2125 14.4599 11.2125 14.025L11.2125 5.68869L8.05115 8.85002Z" fill="#0C0C0D"/>
<path d="M4.575 12.7875C4.575 12.3526 4.22242 12 3.7875 12C3.35258 12 3 12.3526 3 12.7875L3 17.9625C3 19.6401 4.35993 21 6.0375 21H17.9625C19.6401 21 21 19.6401 21 17.9625L21 12.7875C21 12.3526 20.6474 12 20.2125 12C19.7776 12 19.425 12.3526 19.425 12.7875V17.9625C19.425 18.7702 18.7702 19.425 17.9625 19.425H6.0375C5.22978 19.425 4.575 18.7702 4.575 17.9625L4.575 12.7875Z" fill="#0C0C0D"/>
</svg>
