<svg width="24" height="24" viewBox="0 0 24 24" fill="none" xmlns="http://www.w3.org/2000/svg">
<path d="M16 7.5C16 9.70914 14.2091 11.5 12 11.5C9.79086 11.5 8 9.70914 8 7.5C8 5.29086 9.79086 3.5 12 3.5C14.2091 3.5 16 5.29086 16 7.5Z" fill="#0C0C0D"/>
<path d="M20 18.25C20 19.4926 18.9926 20.5 17.75 20.5H6.25C5.00736 20.5 4 19.4926 4 18.25V17.9717L4.00294 17.9688L4.00587 17.9659C4.15475 14.3698 7.11724 12 10.75 12H13.25C16.8828 12 19.8452 14.3698 19.9941 17.9659L19.9971 17.9688L20 17.9717V18.25Z" fill="#0C0C0D"/>
</svg>
