<svg width="24" height="24" viewBox="0 0 24 24" fill="none" xmlns="http://www.w3.org/2000/svg">
<path fill-rule="evenodd" clip-rule="evenodd" d="M12 10.0614C13.4359 10.0614 14.6 8.90415 14.6 7.47661C14.6 6.04907 13.4359 4.89181 12 4.89181C10.5641 4.89181 9.4 6.04907 9.4 7.47661C9.4 8.90415 10.5641 10.0614 12 10.0614ZM12 11.4532C14.2091 11.4532 16 9.67283 16 7.47661C16 5.28039 14.2091 3.5 12 3.5C9.79086 3.5 8 5.28039 8 7.47661C8 9.67283 9.79086 11.4532 12 11.4532Z" fill="#0C0C0D"/>
<path fill-rule="evenodd" clip-rule="evenodd" d="M17.75 19.1082H6.25C5.78056 19.1082 5.4 18.7299 5.4 18.2632V18.1082C5.40213 18.0851 5.40369 18.0618 5.40467 18.0383C5.52263 15.2057 7.87105 13.3421 10.75 13.3421H13.25C16.129 13.3421 18.4774 15.2057 18.5953 18.0383C18.5963 18.0618 18.5979 18.0851 18.6 18.1083V18.2632C18.6 18.7299 18.2194 19.1082 17.75 19.1082ZM19.7182 19.3479C19.3342 20.035 18.5967 20.5 17.75 20.5H6.25C5.40329 20.5 4.66581 20.035 4.28182 19.3479C4.11997 19.0582 4.02083 18.7289 4.00294 18.3784C4.00099 18.3402 4 18.3018 4 18.2632V17.9865L4.00294 17.9836L4.00587 17.9807C4.15475 14.4056 7.11724 11.9503 10.75 11.9503H13.25C16.8828 11.9503 19.8452 14.4056 19.9941 17.9807L19.9971 17.9836L20 17.9865V18.2632C20 18.3018 19.999 18.3402 19.9971 18.3784C19.9792 18.7289 19.88 19.0582 19.7182 19.3479Z" fill="#0C0C0D"/>
</svg>
