<svg width="24" height="24" viewBox="0 0 24 24" fill="none" xmlns="http://www.w3.org/2000/svg">
<path fill-rule="evenodd" clip-rule="evenodd" d="M5.33333 9.08991V5.59777C5.33333 4.31201 6.32826 3.26969 7.55556 3.26969H13.3532C13.7845 2.38683 14.7356 1.84273 15.7429 2.04058L20.1873 2.91361C21.2384 3.12007 22 4.08151 22 5.20182V18.7982C22 19.9185 21.2384 20.8799 20.1873 21.0864L15.7429 21.9594C14.7356 22.1573 13.7845 21.6132 13.3532 20.7303C13.3532 20.7303 13.3532 20.7303 13.3532 20.7303L7.55556 20.7303C6.32826 20.7303 5.33333 19.688 5.33333 18.4022V14.9101H2.55556C2.24873 14.9101 2 14.6495 2 14.3281V9.67193C2 9.35049 2.24873 9.08991 2.55556 9.08991H5.33333ZM19.9825 4.05772L15.5381 3.18469C14.8543 3.05037 14.2222 3.59994 14.2222 4.32879V19.6712C14.2222 20.4001 14.8543 20.9496 15.5381 20.8153L19.9825 19.9423C20.5081 19.8391 20.8889 19.3583 20.8889 18.7982V5.20182C20.8889 4.64167 20.5081 4.16095 19.9825 4.05772ZM13.1111 4.43373H7.55556C6.94191 4.43373 6.44444 4.95489 6.44444 5.59777V9.08991H8.11111V7.34384C8.11111 7.12011 8.23353 6.91618 8.42601 6.81926C8.61849 6.72235 8.84696 6.7496 9.01372 6.88936L13.1111 10.3234V4.43373ZM6.44444 14.9101V18.4022C6.44444 19.0451 6.94191 19.5663 7.55556 19.5663H13.1111V13.6766L9.01372 17.1107C8.84696 17.2504 8.61849 17.2777 8.42601 17.1808C8.23353 17.0838 8.11111 16.8799 8.11111 16.6562V14.9101H6.44444ZM9.22222 8.55481L13.1111 11.8141V12.1859L9.22222 15.4452V14.3281C9.22222 14.0067 8.97349 13.7461 8.66667 13.7461H3.11111V10.2539H8.66667C8.97349 10.2539 9.22222 9.99337 9.22222 9.67193V8.55481Z" fill="#0C0C0D"/>
</svg>
