<svg width="24" height="24" viewBox="0 0 24 24" fill="none" xmlns="http://www.w3.org/2000/svg">
<path fill-rule="evenodd" clip-rule="evenodd" d="M11.9998 16.0833C14.1814 16.0833 15.9499 14.2552 15.9499 12C15.9499 9.74484 14.1814 7.91667 11.9998 7.91667C9.81824 7.91667 8.04971 9.74484 8.04971 12C8.04971 14.2552 9.81824 16.0833 11.9998 16.0833ZM11.9998 14.45C13.3088 14.45 14.3699 13.3531 14.3699 12C14.3699 10.6469 13.3088 9.55 11.9998 9.55C10.6909 9.55 9.62976 10.6469 9.62976 12C9.62976 13.3531 10.6909 14.45 11.9998 14.45Z" fill="#0C0C0D"/>
<path fill-rule="evenodd" clip-rule="evenodd" d="M21.8149 12.7979C20.6091 15.2556 17.4591 19 12 19C6.54088 19 3.39093 15.2556 2.18514 12.7979C1.93829 12.2947 1.93829 11.7053 2.18514 11.2021C3.39093 8.7444 6.54088 5 12 5C17.4591 5 20.6091 8.7444 21.8149 11.2021C22.0617 11.7053 22.0617 12.2947 21.8149 12.7979ZM12 6.63333C7.33727 6.63333 4.63588 9.81792 3.59431 11.9409C3.57529 11.9797 3.57529 12.0203 3.59431 12.0591C4.63588 14.1821 7.33727 17.3667 12 17.3667C16.6627 17.3667 19.3641 14.1821 20.4057 12.0591C20.4247 12.0203 20.4247 11.9797 20.4057 11.9409C19.3641 9.81792 16.6627 6.63333 12 6.63333Z" fill="#0C0C0D"/>
</svg>
