<svg width="24" height="24" viewBox="0 0 24 24" fill="none" xmlns="http://www.w3.org/2000/svg">
<path d="M12.2778 5.33333C11.971 5.33333 11.7222 5.58206 11.7222 5.88889C11.7222 6.19571 11.971 6.44444 12.2778 6.44444H13.3889C13.6957 6.44444 13.9444 6.19571 13.9444 5.88889C13.9444 5.58206 13.6957 5.33333 13.3889 5.33333H12.2778Z" fill="#0C0C0D"/>
<path d="M12.2778 9.77778C11.971 9.77778 11.7222 10.0265 11.7222 10.3333C11.7222 10.6402 11.971 10.8889 12.2778 10.8889H13.3889C13.6957 10.8889 13.9444 10.6402 13.9444 10.3333C13.9444 10.0265 13.6957 9.77778 13.3889 9.77778H12.2778Z" fill="#0C0C0D"/>
<path d="M15.6111 5.88889C15.6111 5.58206 15.8598 5.33333 16.1667 5.33333H17.2778C17.5846 5.33333 17.8333 5.58206 17.8333 5.88889C17.8333 6.19571 17.5846 6.44444 17.2778 6.44444H16.1667C15.8598 6.44444 15.6111 6.19571 15.6111 5.88889Z" fill="#0C0C0D"/>
<path d="M15.6111 10.3333C15.6111 10.0265 15.8598 9.77778 16.1667 9.77778H17.2778C17.5846 9.77778 17.8333 10.0265 17.8333 10.3333C17.8333 10.6402 17.5846 10.8889 17.2778 10.8889H16.1667C15.8598 10.8889 15.6111 10.6402 15.6111 10.3333Z" fill="#0C0C0D"/>
<path d="M16.1667 14.2222C15.8598 14.2222 15.6111 14.471 15.6111 14.7778C15.6111 15.0846 15.8598 15.3333 16.1667 15.3333H17.2778C17.5846 15.3333 17.8333 15.0846 17.8333 14.7778C17.8333 14.471 17.5846 14.2222 17.2778 14.2222H16.1667Z" fill="#0C0C0D"/>
<path fill-rule="evenodd" clip-rule="evenodd" d="M7 15.3333C6.69318 15.3333 6.44444 15.5821 6.44444 15.8889V18.1111C6.44444 18.4179 6.69318 18.6667 7 18.6667H10.3333C10.6402 18.6667 10.8889 18.4179 10.8889 18.1111V15.8889C10.8889 15.5821 10.6402 15.3333 10.3333 15.3333H7ZM7.55556 16.4444V17.5556H9.77778V16.4444H7.55556Z" fill="#0C0C0D"/>
<path fill-rule="evenodd" clip-rule="evenodd" d="M21.4444 22C21.7513 22 22 21.7513 22 21.4444C22 21.1376 21.7513 20.8889 21.4444 20.8889H20.8889V4.22222C20.8889 2.99492 19.894 2 18.6667 2H10.8889C9.66159 2 8.66667 2.99492 8.66667 4.22222V10.4364C8.16485 10.4364 7.66304 10.6058 7.25248 10.9445L3.91915 13.6945C3.40746 14.1166 3.11111 14.7453 3.11111 15.4086V20.8889L2.55556 20.8889C2.24873 20.8889 2 21.1376 2 21.4444C2 21.7513 2.24873 22 2.55556 22H21.4444ZM18.6667 3.11111H10.8889C10.2752 3.11111 9.77778 3.60857 9.77778 4.22222V10.7339C9.88305 10.7948 9.98446 10.865 10.0809 10.9445L13.4142 13.6945C13.9259 14.1166 14.2222 14.7453 14.2222 15.4086V20.8889H19.7778V4.22222C19.7778 3.60857 19.2803 3.11111 18.6667 3.11111ZM12.7071 14.5516L9.37376 11.8016C8.96321 11.4628 8.37013 11.4628 7.95958 11.8016L4.62624 14.5516C4.3704 14.7626 4.22222 15.077 4.22222 15.4086V20.8889H13.1111V15.4086C13.1111 15.077 12.9629 14.7626 12.7071 14.5516Z" fill="#0C0C0D"/>
</svg>
