<svg width="24" height="24" viewBox="0 0 24 24" fill="none" xmlns="http://www.w3.org/2000/svg">
<path d="M12 8.53426C12.4294 8.53426 12.7775 8.87398 12.7775 9.29304V13.7373C12.7775 14.1564 12.4294 14.4961 12 14.4961C11.5705 14.4961 11.2224 14.1564 11.2224 13.7373V9.29304C11.2224 8.87398 11.5705 8.53426 12 8.53426Z" fill="#0C0C0D"/>
<path d="M13.1108 16.6641C13.1108 17.2627 12.6135 17.748 12 17.748C11.3865 17.748 10.8892 17.2627 10.8892 16.6641C10.8892 16.0654 11.3865 15.5801 12 15.5801C12.6135 15.5801 13.1108 16.0654 13.1108 16.6641Z" fill="#0C0C0D"/>
<path fill-rule="evenodd" clip-rule="evenodd" d="M2.23741 17.8625L10.013 4.19841C10.8317 2.60053 13.1683 2.60053 13.987 4.19841L21.7626 17.8625C22.5012 19.304 21.427 21 19.7755 21H4.22445C2.57297 21 1.49884 19.304 2.23741 17.8625ZM12.6112 4.90645L20.3821 18.5624C20.5827 18.9901 20.2629 19.4824 19.7755 19.4824H4.22445C3.73709 19.4824 3.41732 18.9901 3.61793 18.5624L11.3888 4.90645L11.4039 4.87708C11.6495 4.39772 12.3505 4.39772 12.5961 4.87709L12.6112 4.90645Z" fill="#0C0C0D"/>
</svg>
