<svg width="24" height="24" viewBox="0 0 24 24" fill="none" xmlns="http://www.w3.org/2000/svg">
<path fill-rule="evenodd" clip-rule="evenodd" d="M13.987 4.19841C13.1683 2.60053 10.8317 2.60053 10.013 4.19841L2.23741 17.8625C1.49884 19.304 2.57297 21 4.22445 21H19.7755C21.427 21 22.5012 19.304 21.7626 17.8625L13.987 4.19841ZM12 8.5343C12.4294 8.5343 12.7776 8.87402 12.7776 9.29308V13.7374C12.7776 14.1564 12.4294 14.4962 12 14.4962C11.5706 14.4962 11.2224 14.1564 11.2224 13.7374V9.29308C11.2224 8.87402 11.5706 8.5343 12 8.5343ZM13.1108 16.6641C13.1108 17.2628 12.6135 17.7481 12 17.7481C11.3865 17.7481 10.8892 17.2628 10.8892 16.6641C10.8892 16.0654 11.3865 15.5801 12 15.5801C12.6135 15.5801 13.1108 16.0654 13.1108 16.6641Z" fill="#0C0C0D"/>
</svg>
