<svg width="24" height="24" viewBox="0 0 24 24" fill="none" xmlns="http://www.w3.org/2000/svg">
<path fill-rule="evenodd" clip-rule="evenodd" d="M4.22222 6.375C4.22222 5.75368 4.71968 5.25 5.33333 5.25H18.6667C19.2803 5.25 19.7778 5.75368 19.7778 6.375V17.625C19.7778 18.2463 19.2803 18.75 18.6667 18.75H5.33333C4.71968 18.75 4.22222 18.2463 4.22222 17.625V6.375ZM5.33333 6.375H12V10.875H10.3333C10.0265 10.875 9.77778 11.1268 9.77778 11.4375C9.77778 11.7482 10.0265 12 10.3333 12H12V17.625H5.33333V6.375ZM13.1111 17.625H18.6667V6.375H13.1111V17.625Z" fill="#0C0C0D"/>
<path fill-rule="evenodd" clip-rule="evenodd" d="M2 5.25C2 4.00736 2.99492 3 4.22222 3H19.7778C21.0051 3 22 4.00736 22 5.25V18.75C22 19.9926 21.0051 21 19.7778 21H4.22222C2.99492 21 2 19.9926 2 18.75V5.25ZM4.22222 4.125H19.7778C20.3914 4.125 20.8889 4.62868 20.8889 5.25V18.75C20.8889 19.3713 20.3914 19.875 19.7778 19.875H4.22222C3.60857 19.875 3.11111 19.3713 3.11111 18.75V5.25C3.11111 4.62868 3.60857 4.125 4.22222 4.125Z" fill="#0C0C0D"/>
</svg>
