<svg width="24" height="24" viewBox="0 0 24 24" fill="none" xmlns="http://www.w3.org/2000/svg">
<path d="M16.8373 8.22725C17.0542 8.44692 17.0542 8.80308 16.8373 9.02275L15.1706 10.7102C14.9537 10.9299 14.6019 10.9299 14.3849 10.7102C14.168 10.4906 14.168 10.1344 14.3849 9.91475L16.0516 8.22725C16.2686 8.00758 16.6203 8.00758 16.8373 8.22725Z" fill="#0C0C0D"/>
<path fill-rule="evenodd" clip-rule="evenodd" d="M4.22222 3C2.99492 3 2 4.00736 2 5.25V18.75C2 19.9926 2.99492 21 4.22222 21H19.7778C21.0051 21 22 19.9926 22 18.75V5.25C22 4.00736 21.0051 3 19.7778 3H4.22222ZM19.7778 4.125H12.5556V19.875H19.7778C20.3914 19.875 20.8889 19.3713 20.8889 18.75V8.2955L18.504 10.7102C18.287 10.9299 17.9352 10.9299 17.7183 10.7102C17.5013 10.4906 17.5013 10.1344 17.7183 9.91475L20.8889 6.7045V5.25C20.8889 5.14922 20.8758 5.05154 20.8513 4.9586L18.504 7.33525C18.287 7.55492 17.9352 7.55492 17.7183 7.33525C17.5013 7.11558 17.5013 6.75942 17.7183 6.53975L20.0656 4.16311C19.9738 4.13825 19.8773 4.125 19.7778 4.125ZM4.22222 4.125H11.4444V19.875H4.22222C3.60857 19.875 3.11111 19.3713 3.11111 18.75V5.25C3.11111 4.62868 3.60857 4.125 4.22222 4.125Z" fill="#0C0C0D"/>
</svg>
