<svg width="24" height="24" viewBox="0 0 24 24" fill="none" xmlns="http://www.w3.org/2000/svg">
<path fill-rule="evenodd" clip-rule="evenodd" d="M5.87248 4.32132C5.44412 3.89296 4.74962 3.89296 4.32127 4.32132C3.89291 4.74968 3.89291 5.44418 4.32127 5.87254L10.4488 12.0002L4.32233 18.1266C3.89397 18.555 3.89397 19.2495 4.32233 19.6778C4.75068 20.1062 5.44518 20.1062 5.87354 19.6778L12 13.5514L18.1273 19.6787C18.5557 20.1071 19.2501 20.1071 19.6785 19.6787C20.1069 19.2504 20.1069 18.5559 19.6785 18.1275L13.5512 12.0002L19.6787 5.8725C20.1071 5.44415 20.1071 4.74964 19.6787 4.32128C19.2504 3.89293 18.5559 3.89293 18.1275 4.32128L12 10.4489L5.87248 4.32132Z" fill="#0C0C0D"/>
</svg>
