<svg width="24" height="24" viewBox="0 0 24 24" fill="none" xmlns="http://www.w3.org/2000/svg">
<path fill-rule="evenodd" clip-rule="evenodd" d="M12 22C17.5228 22 22 17.5228 22 12C22 6.47715 17.5228 2 12 2C6.47715 2 2 6.47715 2 12C2 17.5228 6.47715 22 12 22ZM15.323 8.67658C15.5964 8.94995 15.5964 9.39317 15.323 9.66653L12.9896 12L15.323 14.3334C15.5964 14.6068 15.5964 15.05 15.323 15.3234C15.0497 15.5968 14.6064 15.5968 14.3331 15.3234L11.9996 12.9899L9.66617 15.3234C9.3928 15.5968 8.94958 15.5968 8.67622 15.3234C8.40285 15.05 8.40285 14.6068 8.67622 14.3334L11.0097 12L8.67622 9.66653C8.40285 9.39317 8.40285 8.94995 8.67622 8.67658C8.94958 8.40322 9.3928 8.40322 9.66617 8.67658L11.9996 11.01L14.3331 8.67658C14.6064 8.40322 15.0497 8.40322 15.323 8.67658Z" fill="#0C0C0D"/>
</svg>
