<svg width="24" height="24" viewBox="0 0 24 24" fill="none" xmlns="http://www.w3.org/2000/svg">
<path d="M14.925 3.7875C14.925 3.35258 15.2776 3 15.7125 3H20.2125C20.6474 3 21 3.35258 21 3.7875V8.2875C21 8.72242 20.6474 9.07499 20.2125 9.07499C19.7776 9.07499 19.425 8.72242 19.425 8.2875V5.68871L14.2387 10.875C13.9312 11.1825 13.4325 11.1825 13.125 10.875C12.8175 10.5675 12.8175 10.0689 13.125 9.76132L18.3113 4.575H15.7125C15.2776 4.575 14.925 4.22242 14.925 3.7875Z" fill="#0C0C0D"/>
<path d="M10.875 13.125C11.1825 13.4325 11.1825 13.9312 10.875 14.2387L5.68869 19.425H8.2875C8.72242 19.425 9.075 19.7776 9.075 20.2125C9.075 20.6474 8.72242 21 8.2875 21H3.7875C3.67732 21 3.57243 20.9774 3.47722 20.9365C3.39544 20.9015 3.31839 20.852 3.24997 20.788C3.23688 20.7758 3.22421 20.7631 3.21198 20.75C3.14684 20.6804 3.09672 20.6018 3.0616 20.5184C3.02193 20.4243 3 20.321 3 20.2125V15.7125C3 15.2776 3.35258 14.925 3.7875 14.925C4.22242 14.925 4.575 15.2776 4.575 15.7125V18.3113L9.76131 13.125C10.0688 12.8175 10.5675 12.8175 10.875 13.125Z" fill="#0C0C0D"/>
</svg>
