<svg width="24" height="24" viewBox="0 0 24 24" fill="none" xmlns="http://www.w3.org/2000/svg">
<path d="M14.0204 2.97727C13.8223 2.73004 13.8388 2.38871 14.0749 2.17392C14.3373 1.93527 14.7713 1.94321 15.0444 2.19165L18.6408 5.46329L18.7148 5.54192C18.9129 5.78915 18.8964 6.13048 18.6603 6.34526L15.2057 9.48795L15.1222 9.55215C14.8581 9.72261 14.482 9.69382 14.2362 9.47022L14.1622 9.3916C13.9641 9.14436 13.9806 8.80304 14.2167 8.58825L16.7534 6.28001H7.1145C6.19395 6.28001 5.43743 6.94518 5.35162 7.7957L5.34351 7.95723V13.3552C5.34351 13.7065 5.04276 13.9913 4.67176 13.9913C4.33786 13.9913 4.06085 13.7606 4.00879 13.4584L4 13.3552V7.95723C4 6.39338 5.28509 5.11378 6.90972 5.01392L7.1145 5.00764H16.2408L14.0944 3.05589L14.0204 2.97727Z" fill="black"/>
<path d="M7.24665 17.72L9.7833 15.4118C10.0194 15.197 10.0359 14.8556 9.8378 14.6084L9.76381 14.5298C9.51802 14.3062 9.14185 14.2774 8.87783 14.4478L8.79431 14.512L5.33975 17.6547C5.10364 17.8695 5.0871 18.2108 5.28524 18.4581L5.35924 18.5367L8.95555 21.8083C9.22866 22.0568 9.66271 22.0647 9.92505 21.8261C10.1612 21.6113 10.1777 21.27 9.97955 21.0227L9.90556 20.9441L7.75921 18.9924H16.8855L17.0903 18.9861C18.7149 18.8862 20 17.6066 20 16.0428V10.6448L19.9912 10.5416C19.9391 10.2394 19.6621 10.0087 19.3282 10.0087C18.9572 10.0087 18.6565 10.2935 18.6565 10.6448V16.0428L18.6484 16.2043C18.5626 17.0548 17.8061 17.72 16.8855 17.72H7.24665Z" fill="black"/>
</svg>
