<svg width="24" height="24" viewBox="0 0 24 24" fill="none" xmlns="http://www.w3.org/2000/svg">
<path d="M21 12C21 12.117 20.9777 12.2278 20.933 12.3325C20.8883 12.4371 20.8213 12.5325 20.732 12.6187L14.7914 18.7507C14.6186 18.9169 14.4251 19 14.2107 19C13.9903 19 13.8057 18.9246 13.6568 18.7737C13.5079 18.6229 13.4335 18.4336 13.4335 18.2058C13.4335 18.095 13.4514 17.9888 13.4871 17.8872C13.5228 17.7856 13.5764 17.6979 13.6479 17.624L15.649 15.5185L18.5745 12.755L16.6763 12.8219L3.78613 12.8219C3.55386 12.8219 3.36478 12.7449 3.21887 12.591C3.07296 12.4371 3 12.2401 3 12C3 11.7599 3.07296 11.5629 3.21887 11.409C3.36478 11.2551 3.55386 11.1781 3.78613 11.1781L16.6763 11.1781L18.5836 11.2444L15.649 8.48153L13.6479 6.37599C13.5764 6.30211 13.5228 6.21438 13.4871 6.1128C13.4514 6.01121 13.4335 5.90501 13.4335 5.7942C13.4335 5.5664 13.5079 5.37709 13.6568 5.22625C13.8057 5.07542 13.9903 5 14.2107 5C14.4251 5 14.6186 5.08619 14.7914 5.25858L20.732 11.3813C20.8213 11.4736 20.8883 11.5721 20.933 11.6768C20.9777 11.7814 21 11.8892 21 12Z" fill="black"/>
</svg>
