<svg width="24" height="24" viewBox="0 0 24 24" fill="none" xmlns="http://www.w3.org/2000/svg">
<path fill-rule="evenodd" clip-rule="evenodd" d="M15.3172 3.22811C15.0047 3.53564 15.0008 4.03816 15.3084 4.35052L17.2921 6.36532H4.79793L4.69855 6.37152C4.30792 6.42061 4.00569 6.75528 4.00569 7.16084C4.00569 7.60019 4.36039 7.95635 4.79793 7.95635H17.3115L15.311 9.9686L15.2402 10.0501C15.0043 10.362 15.0294 10.8078 15.3146 11.091C15.6257 11.4 16.1285 11.3983 16.4376 11.0874L19.7693 7.73548L19.8396 7.65463C20.074 7.34529 20.0517 6.90335 19.7718 6.61926L16.4401 3.23685L16.3594 3.16519C16.05 2.92601 15.6036 2.94621 15.3172 3.22811ZM8.6916 13.0288C8.99927 12.7165 8.99536 12.214 8.68286 11.9064C8.3964 11.6245 7.95007 11.6043 7.64069 11.8435L7.55993 11.9152L4.22822 15.2976C3.94838 15.5817 3.92601 16.0236 4.16045 16.3329L4.23075 16.4138L7.56245 19.7657C7.87154 20.0767 8.37431 20.0783 8.68541 19.7694C8.97059 19.4862 8.99573 19.0403 8.75987 18.7284L8.68907 18.6469L6.68855 16.6347H19.2022C19.6397 16.6347 19.9944 16.2785 19.9944 15.8392C19.9944 15.4336 19.6922 15.0989 19.3015 15.0498L19.2022 15.0436H6.70797L8.6916 13.0288Z" fill="black"/>
</svg>
