<svg width="24" height="24" viewBox="0 0 24 24" fill="none" xmlns="http://www.w3.org/2000/svg">
<path d="M12 3C12.117 3 12.2278 3.02233 12.3325 3.067C12.4371 3.11167 12.5325 3.17867 12.6187 3.268L18.7507 9.20864C18.9169 9.38135 19 9.57491 19 9.78931C19 10.0097 18.9246 10.1943 18.7737 10.3432C18.6229 10.4921 18.4336 10.5665 18.2058 10.5665C18.095 10.5665 17.9888 10.5486 17.8872 10.5129C17.7856 10.4772 17.6979 10.4236 17.624 10.3521L15.5185 8.35105L12.755 5.4255L12.8219 7.32372V20.2139C12.8219 20.4461 12.7449 20.6352 12.591 20.7811C12.4371 20.927 12.2401 21 12 21C11.7599 21 11.5629 20.927 11.409 20.7811C11.2551 20.6352 11.1781 20.4461 11.1781 20.2139V7.32372L11.2444 5.41635L8.48153 8.35105L6.37599 10.3521C6.30211 10.4236 6.21438 10.4772 6.1128 10.5129C6.01121 10.5486 5.90501 10.5665 5.7942 10.5665C5.5664 10.5665 5.37709 10.4921 5.22625 10.3432C5.07542 10.1943 5 10.0097 5 9.78931C5 9.57491 5.08619 9.38135 5.25858 9.20864L11.3813 3.268C11.4736 3.17867 11.5721 3.11167 11.6768 3.067C11.7814 3.02233 11.8892 3 12 3Z" fill="black"/>
</svg>
