<svg width="24" height="24" viewBox="0 0 24 24" fill="none" xmlns="http://www.w3.org/2000/svg">
<path d="M2.99988 12C2.99988 11.883 3.02221 11.7722 3.06688 11.6675C3.11154 11.5629 3.17854 11.4675 3.26788 11.3813L9.20852 5.24934C9.38123 5.08311 9.57479 5 9.78918 5C10.0095 5 10.1942 5.07542 10.343 5.22625C10.4919 5.37709 10.5664 5.5664 10.5664 5.7942C10.5664 5.90501 10.5485 6.01121 10.5128 6.1128C10.477 6.21438 10.4234 6.30211 10.352 6.37599L8.35092 8.48153L5.42538 11.245L7.32359 11.1781L20.2137 11.1781C20.446 11.1781 20.6351 11.2551 20.781 11.409C20.9269 11.5629 20.9999 11.7599 20.9999 12C20.9999 12.2401 20.9269 12.4371 20.781 12.591C20.6351 12.7449 20.446 12.8219 20.2137 12.8219L7.32359 12.8219L5.41623 12.7556L8.35092 15.5185L10.352 17.624C10.4234 17.6979 10.477 17.7856 10.5128 17.8872C10.5485 17.9888 10.5664 18.095 10.5664 18.2058C10.5664 18.4336 10.4919 18.6229 10.343 18.7737C10.1942 18.9246 10.0095 19 9.78918 19C9.57479 19 9.38123 18.9138 9.20852 18.7414L3.26788 12.6187C3.17854 12.5264 3.11154 12.4279 3.06688 12.3232C3.02221 12.2186 2.99988 12.1108 2.99988 12Z" fill="black"/>
</svg>
