<svg width="24" height="24" viewBox="0 0 24 24" fill="none" xmlns="http://www.w3.org/2000/svg">
<path d="M4.233 5.00233C4.01319 4.71351 4.03517 4.29951 4.29895 4.03573C4.5867 3.74798 5.05324 3.74798 5.341 4.03573L12.7842 11.479L12.8502 11.5544C13.07 11.8432 13.048 12.2572 12.7842 12.521L5.341 19.9642L5.26554 20.0302C4.97673 20.25 4.56272 20.228 4.29895 19.9642L4.233 19.8888C4.01319 19.6 4.03517 19.186 4.29895 18.9222L11.2211 12L4.29895 5.07778L4.233 5.00233Z" fill="black"/>
<path d="M11.1499 5.00233C10.9301 4.71351 10.952 4.29951 11.2158 4.03573C11.5036 3.74798 11.9701 3.74798 12.2579 4.03573L19.7011 11.479L19.767 11.5544C19.9869 11.8432 19.9649 12.2572 19.7011 12.521L12.2579 19.9642L12.1824 20.0302C11.8936 20.25 11.4796 20.228 11.2158 19.9642L11.1499 19.8888C10.9301 19.6 10.952 19.186 11.2158 18.9222L18.138 12L11.2158 5.07778L11.1499 5.00233Z" fill="black"/>
</svg>
