<svg width="24" height="24" viewBox="0 0 24 24" fill="none" xmlns="http://www.w3.org/2000/svg">
<path d="M12.8502 5.00233C13.07 4.71351 13.048 4.29951 12.7842 4.03573C12.4965 3.74798 12.0299 3.74798 11.7422 4.03573L4.29895 11.479L4.233 11.5544C4.01319 11.8432 4.03517 12.2572 4.29895 12.521L11.7422 19.9642L11.8176 20.0302C12.1064 20.25 12.5205 20.228 12.7842 19.9642L12.8502 19.8888C13.07 19.6 13.048 19.186 12.7842 18.9222L5.86202 12L12.7842 5.07778L12.8502 5.00233Z" fill="black"/>
<path d="M19.767 5.18241C19.9869 4.8936 19.9649 4.47959 19.7011 4.21582C19.4133 3.92806 18.9468 3.92806 18.659 4.21582L11.2158 11.659L11.1499 11.7345C10.9301 12.0233 10.952 12.4373 11.2158 12.7011L18.659 20.1443L18.7345 20.2103C19.0233 20.4301 19.4373 20.4081 19.7011 20.1443L19.767 20.0689C19.9869 19.7801 19.9649 19.366 19.7011 19.1023L12.7789 12.1801L19.7011 5.25787L19.767 5.18241Z" fill="black"/>
</svg>
