<svg width="24" height="24" viewBox="0 0 24 24" fill="none" xmlns="http://www.w3.org/2000/svg">
<path d="M11.4085 12.9188V4.58248L11.4162 4.488C11.462 4.21124 11.706 4 12 4C12.3267 4 12.5915 4.26079 12.5915 4.58248V12.9188L15.0674 10.4809L15.1408 10.4194C15.3719 10.2557 15.6961 10.2761 15.904 10.4809C16.135 10.7083 16.135 11.0771 15.904 11.3046L12.4183 14.7369L12.345 14.7983C12.1138 14.9621 11.7896 14.9417 11.5817 14.7369L8.09597 11.3046L8.0336 11.2324C7.86727 11.0048 7.88806 10.6856 8.09597 10.4809L8.1693 10.4194C8.40046 10.2557 8.72464 10.2761 8.93255 10.4809L11.4085 12.9188Z" fill="black"/>
<path d="M18.4085 13.9838C18.7025 13.9838 18.9464 14.1951 18.9923 14.4718L19 14.5663V19.4175C19 19.707 18.7855 19.9472 18.5044 19.9924L18.4085 20H5.59155C5.29752 20 5.05359 19.7888 5.00774 19.512L5 19.4175V14.5663C5 14.2446 5.26485 13.9838 5.59155 13.9838C5.88558 13.9838 6.12951 14.1951 6.17536 14.4718L6.1831 14.5663V18.835H17.8169V14.5663C17.8169 14.2768 18.0314 14.0366 18.3125 13.9915L18.4085 13.9838Z" fill="black"/>
</svg>
