<svg width="24" height="24" viewBox="0 0 24 24" fill="none" xmlns="http://www.w3.org/2000/svg">
<path d="M15.1584 14.8651C14.9817 15.1128 15.0038 15.4601 15.2246 15.6829C15.47 15.9304 15.8679 15.9304 16.1133 15.6829L19.816 11.9481L19.8822 11.8696C20.0589 11.6219 20.0368 11.2746 19.816 11.0518L16.1133 7.31709L16.0354 7.25026C15.7898 7.07205 15.4455 7.09432 15.2246 7.31709L15.1584 7.39565C14.9817 7.64332 15.0038 7.99065 15.2246 8.21342L17.8546 10.8662L8.86167 10.8662L8.75975 10.8745C8.46118 10.9236 8.23331 11.1849 8.23331 11.5C8.23331 11.85 8.51464 12.1338 8.86167 12.1338L17.8546 12.1338L15.2246 14.7865L15.1584 14.8651Z" fill="black"/>
<path d="M13.1284 18.3662C13.1284 18.6812 12.9005 18.9426 12.6019 18.9917L12.5 19H3.62836C3.31603 19 3.05692 18.7701 3.00822 18.469L3 18.3662L3 4.63377C3 4.31874 3.22788 4.05738 3.52644 4.00826L3.62837 3.99997L12.5 3.99997C12.847 3.99997 13.1284 4.28373 13.1284 4.63377C13.1284 4.94881 12.9005 5.21016 12.6019 5.25928L12.5 5.26758L4.25681 5.26758L4.2568 17.7324H12.5C12.8123 17.7324 13.0714 17.9622 13.1201 18.2634L13.1284 18.3662Z" fill="black"/>
</svg>
