<svg width="24" height="24" viewBox="0 0 24 24" fill="none" xmlns="http://www.w3.org/2000/svg">
<path d="M13.3371 18.5357C13.2343 18.5357 13.1886 18.4785 13.1886 18.3641V14.4744C13.1886 14.2799 13.0971 14.1884 12.9029 14.1884H11.8743C10.3429 14.1884 9.00571 14.3486 7.85143 14.6689C6.69714 14.9892 5.73714 15.4583 4.97143 16.0875C4.20571 16.7167 3.62286 17.4717 3.23429 18.3641C3.21143 18.4098 3.2 18.4441 3.17714 18.4785C3.15429 18.5013 3.13143 18.5242 3.09714 18.5242C3.02857 18.5242 3.00571 18.4785 3.00571 18.3869C3.02857 17.2887 3.15429 16.2476 3.38286 15.2867C3.6 14.3028 3.94286 13.4334 4.4 12.644C4.85714 11.8546 5.42857 11.1797 6.12571 10.6077C6.82286 10.0357 7.64571 9.60094 8.59429 9.3035C9.54286 9.00606 10.64 8.8459 11.8743 8.8459H12.9029C13.0971 8.8459 13.1886 8.75437 13.1886 8.55989V4.56729C13.1886 4.46433 13.2457 4.41857 13.3486 4.41857C13.3829 4.41857 13.4171 4.43001 13.4514 4.45289C13.4857 4.47577 13.52 4.49865 13.5429 4.52153L20.5714 11.1682C20.6971 11.2941 20.7543 11.397 20.7543 11.5C20.7543 11.5458 20.7429 11.603 20.72 11.6487C20.6971 11.6945 20.6514 11.7631 20.5829 11.8318L13.5429 18.4213C13.4629 18.5013 13.3943 18.5357 13.3371 18.5357ZM12.9714 20C13.1657 20 13.3371 19.9542 13.5086 19.8742C13.68 19.7941 13.8514 19.6682 14.0229 19.5081L21.4857 12.4953C21.6914 12.3008 21.8286 12.1178 21.8971 11.9576C21.9657 11.7974 22 11.6373 22 11.5C22 11.3627 21.9657 11.2026 21.8971 11.031C21.8286 10.8708 21.6914 10.6878 21.4857 10.5047L14.0229 3.53769C13.8286 3.35464 13.6571 3.21736 13.5086 3.13728C13.36 3.04576 13.1771 3 12.9829 3C12.7086 3 12.48 3.09152 12.32 3.27456C12.1486 3.46904 12.0686 3.69785 12.0686 3.96097V7.79341H11.7257C10.1371 7.79341 8.73143 8.03365 7.50857 8.51413C6.29714 8.99462 5.28 9.7039 4.46857 10.6534C3.65714 11.603 3.04 12.7584 2.61714 14.1541C2.20571 15.5384 2 17.1514 2 18.959C2 19.2907 2.08 19.5424 2.25143 19.7254C2.42286 19.9085 2.60571 20 2.82286 20C3.00571 20 3.17714 19.9657 3.33714 19.8856C3.49714 19.8055 3.64571 19.6339 3.78286 19.3822C4.28571 18.3526 4.90286 17.5404 5.62286 16.9455C6.35429 16.3506 7.22286 15.9159 8.22857 15.6642C9.23429 15.4011 10.4 15.2752 11.7257 15.2752H12.0686V19.0734C12.0686 19.3479 12.1486 19.5653 12.32 19.7483C12.48 19.9085 12.7086 20 12.9714 20Z" fill="black"/>
</svg>
