<svg width="24" height="24" viewBox="0 0 24 24" fill="none" xmlns="http://www.w3.org/2000/svg">
<path d="M14.8651 7.84162C15.1128 8.0183 15.4601 7.99621 15.6829 7.77536C15.9304 7.52997 15.9304 7.13211 15.6829 6.88672L11.9482 3.18404L11.8696 3.11779C11.6219 2.94111 11.2746 2.96319 11.0518 3.18404L7.31712 6.88672L7.25029 6.96461C7.07208 7.21016 7.09435 7.55451 7.31712 7.77536L7.39568 7.84162C7.64335 8.0183 7.99068 7.99621 8.21345 7.77536L10.8662 5.14537V14.1383L10.8745 14.2403C10.9236 14.5388 11.185 14.7667 11.5 14.7667C11.85 14.7667 12.1338 14.4854 12.1338 14.1383V5.14537L14.7866 7.77536L14.8651 7.84162Z" fill="black"/>
<path d="M18.3662 13.51C18.6812 13.51 18.9426 13.7378 18.9917 14.0364L19 14.1383V19.3716C19 19.684 18.7702 19.9431 18.469 19.9918L18.3662 20H4.6338C4.31877 20 4.05742 19.7721 4.0083 19.4736L4 19.3716V14.1383C4 13.7913 4.28376 13.51 4.6338 13.51C4.94884 13.51 5.21019 13.7378 5.25931 14.0364L5.26761 14.1383V18.7432H17.7324V14.1383C17.7324 13.826 17.9622 13.5669 18.2634 13.5182L18.3662 13.51Z" fill="black"/>
</svg>
