<svg width="24" height="24" viewBox="0 0 24 24" fill="none" xmlns="http://www.w3.org/2000/svg">
<path d="M13.3583 4.51337C13.3583 4.22984 13.5881 4 13.8717 4H19.4866L19.5789 4.00827C19.8184 4.05174 20 4.26135 20 4.51337V10.1283L19.9917 10.2206C19.9483 10.4601 19.7387 10.6417 19.4866 10.6417L19.3944 10.6334C19.1549 10.59 18.9733 10.3804 18.9733 10.1283V5.76161L13.4531 11.2817L13.382 11.3411C13.182 11.4797 12.9053 11.4599 12.7271 11.2817C12.5266 11.0813 12.5266 10.7562 12.7271 10.5557L18.2561 5.02674H13.8717L13.7794 5.01847C13.5399 4.975 13.3583 4.76539 13.3583 4.51337Z" fill="black"/>
<path d="M10.1283 20C10.4119 20 10.6417 19.7702 10.6417 19.4866C10.6417 19.2346 10.4601 19.025 10.2206 18.9815L10.1283 18.9733H5.74389L11.2729 13.4443C11.4734 13.2438 11.4734 12.9187 11.2729 12.7183C11.0947 12.5401 10.818 12.5203 10.618 12.6589L10.5469 12.7183L5.02674 18.2384V13.8717C5.02674 13.6196 4.84513 13.41 4.60565 13.3666L4.51337 13.3583C4.26135 13.3583 4.05174 13.5399 4.00827 13.7794L4 13.8717V19.4866C4 19.7387 4.1816 19.9483 4.42109 19.9917L4.51337 20H10.1283Z" fill="black"/>
</svg>
